<?xml version="1.0" standalone="no"?>
<!DOCTYPE svg PUBLIC "-//W3C//DTD SVG 1.1//EN" "http://www.w3.org/Graphics/SVG/1.1/DTD/svg11.dtd" >
<svg xmlns="http://www.w3.org/2000/svg" xmlns:xlink="http://www.w3.org/1999/xlink" version="1.1">
<metadata>
Created by FontForge 20170910 at Tue May  6 04:26:55 2014
 By Jimmy Wärting
Copyright (c) 2000, Modular Infotech, Pune, INDIA.
</metadata>
<defs>
<font id="ShreeDev0714-Bold" horiz-adv-x="0" >
  <font-face 
    font-family="Shree Devanagari 714"
    font-weight="700"
    font-stretch="normal"
    units-per-em="805"
    panose-1="2 0 8 0 0 0 0 0 0 0"
    ascent="644"
    descent="-161"
    x-height="448"
    cap-height="608"
    bbox="-611 -415 1026 808"
    underline-thickness="20"
    underline-position="-395"
    unicode-range="U+0020-25CC"
  />
<missing-glyph horiz-adv-x="800" 
d="M100 0v700h600v-700h-600zM150 50h500v600h-500v-600z" />
    <glyph glyph-name=".notdef" horiz-adv-x="800" 
d="M100 0v700h600v-700h-600zM150 50h500v600h-500v-600z" />
    <glyph glyph-name="space" unicode=" " horiz-adv-x="260" 
 />
    <glyph glyph-name="uni0901" unicode="&#x901;" 
d="M-108 552q-63 0 -112 44t-61 111h82q6 -36 32 -59t59 -23q29 0 52 23t29 59h91q-12 -67 -61 -111q-48 -44 -111 -44zM-155 676v83h80v-83h-80z" />
    <glyph glyph-name="uni0902" unicode="&#x902;" 
d="M-159 611v100h100v-100h-100z" />
    <glyph glyph-name="uni0903" unicode="&#x903;" horiz-adv-x="220" 
d="M70 73v75h80v-75h-80zM70 336v75h80v-75h-80z" />
    <glyph glyph-name="uni0905" unicode="&#x905;" horiz-adv-x="594" 
d="M364 427v73h240v-73h-80v-427h-80v204q-30 -14 -41 -14q-26 0 -42 9q11 -24 11 -40q0 -56 -42 -95q-41 -39 -100 -39q-63 0 -122 55q-58 55 -91 145l62 29q25 -69 67 -112q41 -42 84 -42q26 0 44 17q18 18 18 42q0 34 -26 59q-26 24 -62 24q-18 0 -33 -4l-18 61
q43 8 72 28q28 21 28 45q0 23 -13 39t-32 16q-26 0 -57 -17q-31 -16 -62 -47l-40 52q34 40 76 63q41 22 83 22q52 0 88 -37q37 -38 37 -91q0 -24 -12 -46q-11 -22 -32 -36q17 -12 47 -19q29 -6 68 -6q19 0 40 12v150h-80z" />
    <glyph glyph-name="uni0906" unicode="&#x906;" horiz-adv-x="821" 
d="M443 0v214q-30 -14 -41 -14q-7 0 -21 6q-13 6 -33 17q11 -13 17 -28q6 -16 6 -31q0 -53 -40 -91t-97 -38q-65 0 -125 55t-93 145l62 29q25 -69 67 -112q41 -42 84 -42q26 0 44 21t18 51q0 37 -38 58q-37 20 -83 8l-18 61q43 8 72 28q28 21 28 45q0 22 -13 38t-32 16
q-27 0 -58 -16q-31 -17 -61 -47l-40 52q34 41 76 63q42 23 83 23q52 0 88 -38q37 -38 37 -91q0 -20 -9 -41t-25 -41q17 -12 42 -19q24 -6 53 -6q19 0 31 2q13 2 19 5v145h-80v73h468v-73h-80v-427h-80v427h-148v-427h-80z" />
    <glyph glyph-name="uni0907" unicode="&#x907;" horiz-adv-x="397" 
d="M-10 427v73h417v-73h-91v-118h-171q-12 0 -20 -5q-8 -6 -8 -13q0 -14 22 -34q22 -21 36 -21q15 0 45 10q29 9 44 9q42 0 72 -31t30 -74q0 -51 -37 -91t-93 -50q24 -24 109 -73l-41 -65q-98 57 -148 116q-49 0 -84 24q-35 23 -35 57q0 23 14 39q15 16 35 16q22 0 47 -16
q25 -15 48 -43q43 0 74 25t31 61q0 14 -6 25q-7 10 -16 10q-15 0 -45 -11q-29 -10 -44 -10q-34 0 -86 48t-52 80q0 38 32 65q31 27 76 27h91v43h-246z" />
    <glyph glyph-name="uni0908" unicode="&#x908;" horiz-adv-x="405" 
d="M-10 427v73h249q-19 18 -29 43t-10 52q0 52 36 88q36 37 87 37q13 0 30 -7q18 -8 38 -22l-14 -55q-25 9 -54 9q-18 0 -30 -16q-13 -16 -13 -38q0 -29 8 -53q9 -24 24 -38h103v-73h-93v-118h-171q-12 0 -20 -5q-8 -6 -8 -13q0 -14 27 -34q28 -21 46 -21q21 0 46 9
q27 10 63 10q28 0 47 -27q20 -26 20 -64q0 -58 -34 -102q-35 -44 -87 -53q36 -36 100 -73l-41 -65q-102 59 -150 116q-52 0 -89 24q-37 23 -37 57q0 23 17 39t41 16q13 0 37 -15q22 -14 58 -44q43 0 74 25t31 61q0 12 -9 21q-10 9 -23 9l-37 -7l-54 -9q-31 0 -79 61
q-47 62 -47 102q0 24 16 40q15 17 37 17h146v43h-252z" />
    <glyph glyph-name="uni0909" unicode="&#x909;" horiz-adv-x="499" 
d="M-10 427v73h519v-73h-93q16 -28 16 -63q0 -32 -12 -56q-11 -24 -31 -33q31 -18 48 -50q18 -32 18 -70q0 -64 -43 -110q-44 -45 -105 -45q-91 0 -172 86q-80 86 -117 222l71 28q31 -115 92 -188q60 -73 126 -73q28 0 48 23q20 24 20 57q0 34 -23 57q-22 24 -54 24h-82
l-27 75h100q26 0 45 16q18 15 18 37q0 12 -8 28q-8 17 -24 35h-330z" />
    <glyph glyph-name="uni090A" unicode="&#x90a;" horiz-adv-x="751" 
d="M-10 427v73h771v-73h-349q21 -36 21 -63q0 -30 -12 -55q-12 -24 -32 -36l28 -18q26 45 65 71t80 26q65 0 111 -47q46 -48 46 -115q0 -42 -25 -86q-24 -43 -69 -81l-54 59q32 27 50 56q18 28 18 53q0 36 -23 61q-22 25 -54 25q-37 0 -68 -37q-31 -38 -41 -95
q0 -60 -42 -103q-43 -42 -103 -42q-90 0 -171 85q-81 86 -120 222l74 30q31 -116 92 -189q60 -73 125 -73q29 0 49 23t20 56q0 34 -23 58t-56 24h-77l-32 75h102q26 0 44 16q18 15 18 37q0 18 -10 34q-9 17 -26 29h-327z" />
    <glyph glyph-name="uni090B" unicode="&#x90b;" horiz-adv-x="687" 
d="M-10 427v73h707v-73h-300v-127q11 -5 50 -5q10 0 18 1q8 2 12 4q-5 7 -7 17q-3 10 -3 23q0 21 18 35q17 15 42 15q29 0 49 -19q21 -19 21 -46q0 -17 -5 -29t-13 -16q38 -45 58 -86q20 -42 20 -74q0 -50 -37 -85q-36 -35 -88 -35q-43 0 -74 29q-31 30 -31 71h75
q0 -10 9 -18q9 -7 21 -7q19 0 32 13t13 32q0 26 -16 56q-15 30 -44 59q-32 -15 -70 -15q-33 0 -50 10v-230h-80v155l-216 -114l-41 68l191 100l-41 46q-12 15 -29 23q-16 8 -34 8q-14 0 -40 -13q-25 -13 -60 -37l-32 73q36 25 70 39q33 13 60 13q35 0 63 -9q27 -9 43 -25
l66 -68v168h-327z" />
    <glyph glyph-name="uni090C" unicode="&#x90c;" horiz-adv-x="555" 
d="M-10 427v73h575v-73h-130v-77q38 -12 61 -56q24 -44 24 -103q0 -62 -38 -108q-37 -46 -94 -53q-23 -3 -39 -21q-15 -17 -15 -41q0 -20 19 -34q18 -14 45 -14t41 1q16 2 23 6l27 -55q-58 -27 -91 -27q-60 0 -102 36t-42 87t33 87q32 36 78 36q31 1 53 30t22 70
q0 36 -16 61q-17 25 -40 25q-28 -3 -53 -34q-24 -31 -36 -79l-76 22q2 8 19 41l7 14q-10 17 -29 26q-19 10 -41 10q-26 0 -45 -23q-18 -22 -18 -54q0 -42 32 -81t85 -60l-33 -64q-74 30 -119 86t-45 119t43 107q44 45 105 45q34 0 62 -14q27 -14 39 -38q17 22 36 35t38 15
v77h-365z" />
    <glyph glyph-name="uni090D" unicode="&#x90d;" horiz-adv-x="388" 
d="M-10 427v73h408v-73h-49v-136q0 -37 -23 -66q-22 -28 -57 -34l-53 53q23 4 38 25t15 49v109h-148v-191q0 -10 7 -20q6 -11 18 -21l173 -163q15 -17 22 -33q8 -15 8 -26q0 -33 -23 -59q-22 -26 -57 -32l-46 54q20 4 33 12t13 17q0 10 -6 22q-6 11 -17 22l-150 136
q-26 26 -41 54q-14 27 -14 51v177h-51zM313 565q-64 0 -113 41t-60 104h82q5 -30 31 -50t60 -20t59 20q26 20 31 50h82q-11 -63 -60 -104q-48 -41 -112 -41z" />
    <glyph glyph-name="uni090E" unicode="&#x90e;" horiz-adv-x="388" 
d="M-10 427v73h408v-73h-49v-136q0 -37 -23 -66q-22 -28 -57 -34l-53 53q23 4 38 25t15 49v109h-148v-191q0 -10 7 -20q6 -11 18 -21l173 -163q15 -17 22 -33q8 -15 8 -26q0 -33 -23 -59q-22 -26 -57 -32l-46 54q20 4 33 12t13 17q0 10 -6 22q-6 11 -17 22l-150 136
q-26 26 -41 54q-14 27 -14 51v177h-51zM182 595q-64 0 -113 41t-60 104h82q5 -30 31 -50t60 -20q70 0 119 -48q49 -49 49 -117h-81q0 37 -25 64q-26 26 -62 26z" />
    <glyph glyph-name="uni090F" unicode="&#x90f;" horiz-adv-x="388" 
d="M-10 427v73h408v-73h-49v-136q0 -37 -23 -66q-22 -28 -57 -34l-53 53q23 4 38 25t15 49v109h-148v-178q0 -16 7 -30q6 -14 18 -24l173 -163q15 -17 22 -33q8 -15 8 -26q0 -33 -23 -59q-22 -26 -57 -32l-46 54q20 4 33 12t13 17q0 10 -6 22q-6 11 -17 22l-150 136
q-26 26 -41 54q-14 27 -14 51v177h-51z" />
    <glyph glyph-name="uni0910" unicode="&#x910;" horiz-adv-x="391" 
d="M-10 427v73h279l-210 185l56 54l234 -239h52v-73h-51v-136q0 -33 -22 -63t-59 -47l-50 60q22 4 37 23q14 19 14 45v118h-149v-172q0 -14 5 -26t15 -20l191 -182q8 -10 13 -24q4 -14 4 -30q0 -26 -19 -49q-19 -24 -51 -35l-56 52q20 4 33 13t13 19q0 9 -3 16q-2 7 -7 11
l-184 171q-16 16 -25 39q-9 22 -9 47v170h-51z" />
    <glyph glyph-name="uni0911" unicode="&#x911;" horiz-adv-x="821" 
d="M443 0v214q-30 -14 -41 -14q-7 0 -21 6q-13 6 -33 17q11 -13 17 -28q6 -16 6 -31q0 -53 -40 -91t-97 -38q-65 0 -125 55t-93 145l62 29q25 -69 67 -112q41 -42 84 -42q26 0 44 21t18 51q0 37 -38 58q-37 20 -83 8l-18 61q43 8 72 28q28 21 28 45q0 22 -13 38t-32 16
q-27 0 -58 -16q-31 -17 -61 -47l-40 52q34 41 76 63q42 23 83 23q52 0 88 -38q37 -38 37 -91q0 -20 -9 -41t-25 -41q17 -12 42 -19q24 -6 53 -6q19 0 31 2q13 2 19 5v145h-80v73h468v-73h-80v-427h-80v427h-148v-427h-80zM714 565q-64 0 -113 41t-60 104h82q5 -30 31 -50
t60 -20t59 20q26 20 31 50h82q-11 -63 -60 -104q-48 -41 -112 -41z" />
    <glyph glyph-name="uni0912" unicode="&#x912;" horiz-adv-x="821" 
d="M443 0v214q-30 -14 -41 -14q-7 0 -21 6q-13 6 -33 17q11 -13 17 -28q6 -16 6 -31q0 -53 -40 -91t-97 -38q-65 0 -125 55t-93 145l62 29q25 -69 67 -112q41 -42 84 -42q26 0 44 21t18 51q0 37 -38 58q-37 20 -83 8l-18 61q43 8 72 28q28 21 28 45q0 22 -13 38t-32 16
q-27 0 -58 -16q-31 -17 -61 -47l-40 52q34 41 76 63q42 23 83 23q52 0 88 -38q37 -38 37 -91q0 -20 -9 -41t-25 -41q17 -12 42 -19q24 -6 53 -6q19 0 31 2q13 2 19 5v145h-80v73h468v-73h-80v-427h-80v427h-148v-427h-80zM580 595q-64 0 -113 41t-60 104h82q5 -30 31 -50
t60 -20q70 0 120 -48q50 -49 50 -117h-83q0 37 -25 64q-26 26 -62 26z" />
    <glyph glyph-name="uni0913" unicode="&#x913;" horiz-adv-x="821" 
d="M443 0v214q-30 -14 -41 -14q-7 0 -21 6q-13 6 -33 17q11 -13 17 -28q6 -16 6 -31q0 -53 -40 -91t-97 -38q-65 0 -125 55t-93 145l62 29q25 -69 67 -112q41 -42 84 -42q26 0 44 21t18 51q0 37 -38 58q-37 20 -83 8l-18 61q43 8 72 28q28 21 28 45q0 22 -13 38t-32 16
q-27 0 -58 -16q-31 -17 -61 -47l-40 52q34 41 76 63q42 23 83 23q52 0 88 -38q37 -38 37 -91q0 -20 -9 -41t-25 -41q17 -12 42 -19q24 -6 53 -6q19 0 31 2q13 2 19 5v145h-80v73h303l-194 203l53 46l224 -249h82v-73h-80v-427h-80v427h-148v-427h-80z" />
    <glyph glyph-name="uni0914" unicode="&#x914;" horiz-adv-x="821" 
d="M443 0v214q-30 -14 -41 -14q-7 0 -21 6q-13 6 -33 17q11 -13 17 -28q6 -16 6 -31q0 -53 -40 -91t-97 -38q-65 0 -125 55t-93 145l62 29q25 -69 67 -112q41 -42 84 -42q26 0 44 21t18 51q0 37 -38 58q-37 20 -83 8l-18 61q43 8 72 28q28 21 28 45q0 22 -13 38t-32 16
q-27 0 -58 -16q-31 -17 -61 -47l-40 52q34 41 76 63q42 23 83 23q52 0 88 -38q37 -38 37 -91q0 -20 -9 -41t-25 -41q17 -12 42 -19q24 -6 53 -6q19 0 31 2q13 2 19 5v145h-80v73h277l-203 121l38 60l238 -182l-130 226l65 24l115 -249h68v-73h-80v-427h-80v427h-148v-427
h-80z" />
    <glyph glyph-name="uni0915" unicode="&#x915;" horiz-adv-x="610" 
d="M-10 427v73h630v-73h-275v-86q12 14 33 21q22 8 50 8q63 0 107 -42q44 -43 44 -103q0 -44 -26 -90q-25 -46 -72 -85l-59 54q37 31 57 62q20 32 20 59q0 29 -22 49q-22 21 -53 21q-23 0 -44 -13q-22 -14 -35 -37v-245h-80v107q-14 -12 -34 -18q-21 -6 -46 -6
q-65 0 -110 42q-46 42 -46 101q0 63 49 107q48 45 117 45q25 0 53 -13l-20 -69q-9 2 -21 5q-7 2 -10 2q-36 0 -62 -23q-26 -22 -26 -54q0 -28 22 -48q23 -20 54 -20q22 0 43 10q21 11 37 30v229h-275z" />
    <glyph glyph-name="uni0916" unicode="&#x916;" horiz-adv-x="642" 
d="M-10 427v73h662v-73h-80v-427h-80v47q-81 -47 -175 -47q-85 0 -168 85t-134 224l66 26q4 -20 17 -34q13 -13 30 -13q12 0 21 8q8 7 8 18v113h-167zM317 75q58 0 104 14q45 14 71 40v21q-11 -11 -31 -17q-19 -6 -44 -6q-59 0 -101 39t-42 95t42 95q42 40 101 40
q34 0 65 -15l-22 -69q-15 10 -43 10q-26 0 -45 -18q-18 -17 -18 -42t18 -42q19 -18 45 -18q25 0 45 10q20 9 30 26v189h-255v-134q0 -29 -23 -49q-23 -21 -55 -21q-9 0 -26 8q21 -58 79 -107t105 -49z" />
    <glyph glyph-name="uni0917" unicode="&#x917;" horiz-adv-x="430" 
d="M-10 427v73h450v-73h-80v-427h-80v427h-109v-258q0 -15 -8 -26t-19 -11q-22 0 -77 50t-55 70q0 11 7 19q6 8 16 8h36q8 0 14 6q6 7 6 16v126h-101z" />
    <glyph glyph-name="uni0918" unicode="&#x918;" horiz-adv-x="495" 
d="M-10 427v73h515v-73h-80v-427h-80v129q-27 -23 -62 -35t-74 -12q-70 0 -120 37q-49 38 -49 91q0 30 19 55q18 25 49 36q-32 11 -51 35t-19 51q0 11 5 22q5 10 14 18h-67zM209 157q40 0 76 16q35 17 60 46v208h-173q-22 0 -38 -12q-16 -11 -16 -28q0 -20 22 -35
q21 -14 52 -14h31v-75h-34q-29 0 -49 -16q-20 -15 -20 -37t26 -37q26 -16 63 -16z" />
    <glyph glyph-name="uni0919" unicode="&#x919;" horiz-adv-x="505" 
d="M-10 427v73h525v-73h-169v-118h-170q-12 0 -21 -5q-8 -6 -8 -13q0 -13 21 -32q21 -20 35 -20q13 0 38 10t38 10q49 0 83 -33q35 -34 35 -81q0 -60 -47 -103t-113 -43q-65 0 -125 38q-60 39 -98 105l62 40q29 -50 72 -79t89 -29q33 0 57 21q23 21 23 50q0 16 -11 28
q-11 11 -27 11q-13 0 -39 -10q-25 -10 -38 -10q-33 0 -84 48t-51 80q0 38 32 65q31 27 76 27h91v43h-276zM446 240q-18 0 -31 13t-13 32t13 32t31 13q19 0 33 -13q13 -13 13 -32t-13 -32q-14 -13 -33 -13z" />
    <glyph glyph-name="uni091A" unicode="&#x91a;" horiz-adv-x="499" 
d="M-10 427v73h519v-73h-80v-427h-80v152q-25 -30 -59 -46q-33 -17 -69 -17q-58 0 -99 34t-41 82q0 24 12 48q12 25 34 47h-114v75h291v-75h-71q-32 -12 -52 -38t-20 -57q0 -17 18 -29t43 -12q30 0 63 24q34 24 64 67v172h-359z" />
    <glyph glyph-name="uni091B" unicode="&#x91b;" horiz-adv-x="546" 
d="M-10 427v73h566v-73h-113v-60q34 -20 53 -47q20 -28 20 -57q0 -97 -88 -178q-89 -82 -193 -82q-71 0 -122 47q-50 47 -50 113q0 34 11 60q12 26 31 37q-32 11 -51 42t-19 70q0 29 18 55h-63zM235 78q34 0 64 12q29 13 48 35q-27 27 -42 61q-15 33 -15 68q0 36 20 67
q20 30 53 46v60h-205q-18 0 -30 -16q-13 -16 -13 -39q0 -22 22 -37t53 -15h70l-29 -75h-18q-29 0 -49 -24q-21 -24 -21 -58q0 -35 27 -60t65 -25zM397 172q19 19 29 42q10 24 10 49q0 17 -9 29q-10 12 -23 12q-14 0 -24 -15q-10 -14 -10 -35q0 -26 7 -48q7 -21 20 -34z" />
    <glyph glyph-name="uni091C" unicode="&#x91c;" horiz-adv-x="612" 
d="M-10 427v73h632v-73h-80v-427h-80v264h-100q21 -36 21 -67q0 -53 -40 -90t-97 -37q-79 0 -143 73t-84 184l69 23q16 -89 60 -147q45 -58 98 -58q24 0 40 16q17 15 17 37q0 23 -20 59q-21 36 -59 82h238v88h-472z" />
    <glyph glyph-name="uni091D" unicode="&#x91d;" horiz-adv-x="583" 
d="M-10 427v73h603v-73h-80v-427h-80v182q-24 -14 -50 -14q-17 0 -42 9q0 -52 -36 -92t-92 -50l65 -41l-48 -59l-107 83q-37 0 -63 21q-26 22 -26 52q0 22 16 38t39 16q22 0 45 -12q22 -12 40 -33q37 7 62 27q24 21 24 46q0 6 -8 11q-8 4 -19 4t-32 -8q-21 -7 -32 -7
q-36 0 -80 50t-44 90q0 31 23 54q24 22 57 22h108v38h-243zM383 243q19 0 32 5q13 4 18 12v167h-120v-113h-160q-12 0 -20 -4t-8 -10q0 -15 22 -34q21 -18 39 -18q16 0 48 8t48 8q17 0 50 -10q34 -11 51 -11z" />
    <glyph glyph-name="uni091E" unicode="&#x91e;" horiz-adv-x="557" 
d="M-10 427v73h577v-73h-80v-427h-80v209q-24 -14 -54 -14q-17 0 -41 14q-5 -54 -48 -90q-44 -37 -103 -37q-38 0 -77 22q-39 21 -72 60l50 59q26 -31 53 -49q26 -17 47 -17q28 0 48 26t20 62q0 27 -18 45q-17 19 -42 19q-14 0 -27 -6t-22 -17l-50 59q23 19 48 29
q26 10 52 10q49 0 87 -27q37 -27 44 -69l29 -11q16 -7 22 -7q13 0 27 6t27 17v134h-417z" />
    <glyph glyph-name="uni091F" unicode="&#x91f;" horiz-adv-x="439" 
d="M-10 427v73h459v-73h-87v-156h-180q-29 0 -49 -21q-21 -22 -21 -52q0 -51 42 -88q42 -36 101 -36q32 0 60 12q28 13 47 35l66 -45q-25 -36 -71 -57q-46 -20 -102 -20q-92 0 -158 58q-65 59 -65 141q0 61 45 105q44 43 107 43h98v81h-292z" />
    <glyph glyph-name="uni0920" unicode="&#x920;" horiz-adv-x="457" 
d="M-10 427v73h477v-73h-103v-148q28 -19 43 -52q16 -33 16 -72q0 -64 -49 -109t-118 -45q-88 0 -157 61q-68 60 -68 138q0 61 45 105q45 43 109 43h99v79h-294zM343 273h-159q-30 0 -52 -21q-21 -22 -21 -52q0 -49 44 -86q44 -38 101 -38q36 0 62 23q25 24 25 57
q0 18 -11 40q-11 23 -31 47z" />
    <glyph glyph-name="uni0921" unicode="&#x921;" horiz-adv-x="443" 
d="M-10 427v73h463v-73h-91v-118h-193q-8 0 -14 -4t-6 -10q0 -15 20 -38q19 -23 32 -23q16 0 46 12q29 11 45 11q50 0 85 -32q35 -31 35 -76q0 -62 -51 -105q-52 -44 -124 -44q-69 0 -129 40q-60 41 -92 109l58 42q25 -53 69 -85q44 -31 94 -31q39 0 67 22q28 21 28 52
q0 14 -12 23q-11 10 -28 10q-16 0 -45 -12q-29 -11 -45 -11q-33 0 -83 50q-50 51 -50 84q0 38 29 64q28 27 69 27h115v43h-292z" />
    <glyph glyph-name="uni0922" unicode="&#x922;" horiz-adv-x="468" 
d="M-10 427v73h488v-73h-116v-145h-176q-31 0 -52 -21q-22 -22 -22 -52q0 -48 35 -88q34 -40 75 -40q-20 29 -20 59q0 46 35 79t85 33t85 -35q35 -36 35 -86q0 -56 -53 -96t-127 -40q-90 0 -160 65t-70 149q0 61 45 105q45 43 109 43h96v70h-292zM309 81q20 0 36 16
q17 15 17 34t-12 33q-11 13 -28 13t-28 -13q-12 -14 -12 -33q0 -16 7 -29q7 -14 20 -21z" />
    <glyph glyph-name="uni0923" unicode="&#x923;" horiz-adv-x="540" 
d="M-10 427v73h560v-73h-80v-427h-80v427h-82v-182q0 -56 -38 -96q-39 -40 -93 -40q-56 0 -95 40t-39 96v182h-53zM177 184q21 0 36 18t15 43v182h-105v-182q0 -25 16 -43t38 -18z" />
    <glyph glyph-name="uni0924" unicode="&#x924;" horiz-adv-x="489" 
d="M-10 427v73h509v-73h-80v-427h-80v282h-182q-19 0 -33 -12q-13 -12 -13 -29q0 -48 34 -98q34 -51 94 -93l-46 -55q-76 53 -119 119q-43 65 -43 127q0 48 37 82t89 34h182v70h-349z" />
    <glyph glyph-name="uni0925" unicode="&#x925;" horiz-adv-x="536" 
d="M331 427v73h215v-73h-80v-427h-80v125q-22 -26 -56 -40q-35 -14 -76 -14q-94 0 -161 67q-66 67 -66 162h86q46 0 78 25q32 24 32 59q0 32 -21 54q-22 23 -52 23q-16 0 -28 -10q-11 -10 -11 -24q0 -12 11 -21q12 -9 28 -9v-64q-49 0 -84 28q-35 27 -35 66q0 45 35 77
t84 32q63 0 108 -45q45 -44 45 -107q0 -66 -49 -112q-49 -47 -118 -47q21 -37 53 -58q31 -21 65 -21q42 0 78 23t54 61v197h-55z" />
    <glyph glyph-name="uni0926" unicode="&#x926;" horiz-adv-x="426" 
d="M-10 427v73h446v-73h-75v-152h-175q-32 0 -54 -19q-23 -19 -23 -46q0 -49 44 -84t107 -35q-6 10 -6 32q0 27 20 45q19 19 47 19t47 -21q20 -22 20 -52q0 -18 -11 -37q-11 -20 -30 -36l53 -96l-71 -33l-48 106q-104 0 -178 56t-74 136q0 58 46 99t111 41h95v77h-291z" />
    <glyph glyph-name="uni0927" unicode="&#x927;" horiz-adv-x="499" 
d="M269 427v73h240v-73h-80v-427h-80v135q-22 -26 -57 -41q-36 -14 -78 -14q-61 0 -105 37q-43 37 -43 89q0 26 10 48q10 21 28 34q-39 23 -62 59q-23 37 -23 77q0 48 34 82q35 34 83 34q46 0 79 -28t33 -68q0 -33 -34 -57q-35 -23 -83 -23v55q15 0 26 7q11 8 11 18
q-2 9 -11 15t-21 6q-15 0 -26 -12t-11 -29q0 -29 17 -56t47 -44q34 16 66 16l12 -70q-39 0 -67 -19q-28 -18 -28 -45q0 -21 20 -36q19 -15 47 -15q42 0 78 21q37 22 58 59v192h-80z" />
    <glyph glyph-name="uni0928" unicode="&#x928;" horiz-adv-x="468" 
d="M-10 427v73h488v-73h-80v-427h-80v255h-132q-10 0 -16 -7q-7 -6 -7 -16v-50q0 -13 -8 -23q-8 -9 -19 -9q-29 0 -74 55q-44 54 -44 90q0 14 11 25q10 10 25 10h264v97h-328z" />
    <glyph glyph-name="uni0929" unicode="&#x929;" horiz-adv-x="468" 
d="M-10 427v73h488v-73h-80v-427h-80v255h-132q-10 0 -16 -7q-7 -6 -7 -16v-50q0 -13 -8 -23q-8 -9 -19 -9q-29 0 -74 55q-44 54 -44 90q0 14 11 25q10 10 25 10h264v97h-328zM158 -36l-50 45l50 46l50 -46z" />
    <glyph glyph-name="uni092A" unicode="&#x92a;" horiz-adv-x="434" 
d="M-10 427v73h454v-73h-80v-427h-80v168q-17 -17 -41 -27q-24 -9 -50 -9q-64 0 -109 38q-45 39 -45 93v164h-49zM193 207q24 0 48 13q24 12 43 35v172h-165v-163q0 -24 22 -40q21 -17 52 -17z" />
    <glyph glyph-name="uni092B" unicode="&#x92b;" horiz-adv-x="620" 
d="M-10 427v73h640v-73h-282v-95q13 18 36 28t51 10q63 0 107 -48q45 -47 45 -115q0 -45 -24 -90q-23 -45 -66 -81l-61 46q34 28 52 61q19 33 19 64q0 36 -21 62t-50 26q-22 0 -45 -16q-24 -15 -43 -43v-236h-80v168q-13 -15 -34 -24q-21 -8 -46 -8q-68 0 -108 37
q-41 38 -41 100v154h-49zM188 211q22 0 43 15q22 16 37 42v159h-149v-154q0 -26 20 -44t49 -18z" />
    <glyph glyph-name="uni092C" unicode="&#x92c;" horiz-adv-x="434" 
d="M-10 427v73h454v-73h-80v-427h-80v93q-47 -22 -91 -22q-68 0 -115 45q-48 46 -48 110q0 65 50 110q51 46 122 46q46 0 72 -15l-26 -69q-19 9 -46 9q-22 0 -45 -13l127 -105v238h-294zM193 146q17 0 31 4t23 12l-122 99q-5 -6 -7 -15q-3 -9 -3 -20q0 -33 23 -57
q23 -23 55 -23z" />
    <glyph glyph-name="uni092D" unicode="&#x92d;" horiz-adv-x="513" 
d="M283 427v73h240v-73h-80v-427h-80v200h-138v-34q0 -13 -8 -23q-7 -9 -18 -9q-22 0 -70 46t-48 67q0 12 8 20t19 8h37v151q0 17 -8 28q-9 12 -21 12t-20 -9q-8 -10 -8 -23q0 -15 10 -25q9 -11 23 -11v-65q-47 0 -80 30q-33 29 -33 71q0 44 31 76q31 31 74 31q46 0 79 -34
q33 -33 33 -81v-151h138v152h-80z" />
    <glyph glyph-name="uni092E" unicode="&#x92e;" horiz-adv-x="461" 
d="M-10 427v73h481v-73h-80v-427h-80v200h-154v-50q0 -8 -7 -14q-6 -6 -16 -6q-19 0 -69 48q-49 47 -49 66q0 13 6 22q7 9 16 9h39v152h-87zM157 275h154v152h-154v-152z" />
    <glyph glyph-name="uni092F" unicode="&#x92f;" horiz-adv-x="469" 
d="M-10 427v73h489v-73h-80v-427h-80v123q-20 -20 -48 -30q-28 -11 -61 -11q-79 0 -135 61t-56 148q34 -9 46 -9q32 0 54 21q23 22 23 52q0 20 -9 39q-10 19 -27 33h-116zM210 157q27 0 56 16t53 45v209h-127q15 -17 22 -36q8 -18 8 -36q0 -49 -32 -86q-31 -37 -80 -46
q11 -30 38 -48q28 -18 62 -18z" />
    <glyph glyph-name="uni0930" unicode="&#x930;" horiz-adv-x="352" 
d="M-10 427v73h372v-73h-66v-119q0 -37 -26 -64q-27 -26 -64 -26q-11 0 -18 1t-9 4l145 -196l-63 -42l-249 339l67 49q13 -37 38 -59q25 -23 53 -23q19 0 33 14q13 14 13 33v89h-226z" />
    <glyph glyph-name="uni0931" unicode="&#x931;" horiz-adv-x="346" 
d="M-10 427v73h366v-73h-67v-104q0 -43 -23 -74q-22 -31 -54 -31q-17 0 -24 1q-9 1 -12 4l145 -196l-63 -32l-244 334l62 44q13 -37 38 -59q25 -23 53 -23q17 0 30 13q12 13 12 32v91h-219zM102 -36l-50 45l50 46l50 -46z" />
    <glyph glyph-name="uni0932" unicode="&#x932;" horiz-adv-x="554" 
d="M-10 427v73h574v-73h-80v-427h-80v273q-35 -3 -65 -37t-44 -86l-66 31q5 28 30 64q-13 19 -30 30t-34 11q-35 0 -59 -25q-25 -25 -25 -61q0 -43 38 -82q38 -40 101 -63l-37 -60q-82 30 -132 86q-50 57 -50 119q0 67 48 114t116 47q30 0 60 -16t54 -45q20 24 45 37t50 13
v77h-414z" />
    <glyph glyph-name="uni0933" unicode="&#x933;" horiz-adv-x="569" 
d="M-10 427v73h589v-73h-152v-72q48 -13 79 -56q30 -43 30 -99q0 -66 -42 -113t-102 -47q-35 0 -66 24q-30 24 -44 63q-14 -39 -44 -63t-64 -24q-58 0 -100 47q-41 47 -41 113q0 67 41 114q42 47 100 47q34 0 65 -21q30 -22 47 -58q10 28 26 47t35 26v72h-357zM174 115
q19 0 38 26t30 68q-13 35 -31 56q-19 21 -37 21q-25 0 -43 -25t-18 -61q0 -35 18 -60t43 -25zM392 115q27 0 45 25q19 25 19 60q0 38 -19 64q-18 27 -45 27q-18 0 -38 -24q-20 -23 -34 -62q11 -40 31 -65t41 -25z" />
    <glyph glyph-name="uni0934" unicode="&#x934;" horiz-adv-x="569" 
d="M-10 427v73h589v-73h-152v-72q48 -13 79 -56q30 -43 30 -99q0 -66 -42 -112q-42 -47 -102 -47q-38 0 -70 24q-32 23 -46 62q-14 -39 -42 -62q-28 -24 -60 -24q-58 0 -100 47q-41 46 -41 112q0 67 41 114q42 47 100 47q34 0 65 -21q30 -22 47 -58q10 28 26 47t35 26v72
h-357zM174 116q19 0 38 26t30 67q-13 35 -31 56q-19 21 -37 21q-25 0 -43 -25t-18 -61q0 -35 18 -59q18 -25 43 -25zM392 116q27 0 45 25q19 24 19 59q0 38 -19 64q-18 27 -45 27q-18 0 -38 -24q-20 -23 -34 -62q11 -39 31 -64t41 -25zM280 -46l-50 45l50 46l50 -46z" />
    <glyph glyph-name="uni0935" unicode="&#x935;" horiz-adv-x="432" 
d="M-10 427v73h452v-73h-80v-427h-80v127q-14 -17 -39 -27q-25 -9 -56 -9q-66 0 -112 42q-47 43 -47 103t47 103q47 42 113 42q29 0 50 -3q21 -4 32 -10l-20 -74q-8 6 -24 9q-17 3 -39 3q-33 0 -56 -21q-23 -20 -23 -49t23 -49q23 -21 56 -21q30 0 56 14q25 14 39 38v209
h-292z" />
    <glyph glyph-name="uni0936" unicode="&#x936;" horiz-adv-x="555" 
d="M239 -15l-219 196l55 59l40 -36q48 0 83 23t41 58q-23 -18 -54 -18q-57 0 -97 35q-40 34 -40 83q0 51 38 88q38 36 91 36q64 0 103 -48q39 -47 39 -126q0 -72 -42 -126q-41 -54 -105 -65l120 -104zM184 342q16 0 31 5q14 6 24 16q0 29 -18 50t-44 21q-20 0 -35 -14
q-14 -15 -14 -35q0 -18 16 -30q17 -13 40 -13zM405 0v427h-80v73h240v-73h-80v-427h-80z" />
    <glyph glyph-name="uni0937" unicode="&#x937;" horiz-adv-x="418" 
d="M-10 427v73h438v-73h-80v-427h-80v149q-9 -10 -30 -16t-50 -6q-61 0 -105 37q-43 38 -43 91v172h-50zM188 202q21 0 37 4t25 12l-130 146v-109q0 -22 20 -37q20 -16 48 -16zM268 273v154h-128z" />
    <glyph glyph-name="uni0938" unicode="&#x938;" horiz-adv-x="550" 
d="M-10 427v73h570v-73h-80v-427h-80v218h-91l-32 75h123v134h-138v-112q0 -42 -20 -71q-19 -30 -47 -30q-12 0 -18 1q-7 1 -9 3l127 -191l-68 -42l-214 328l69 46q23 -41 36 -56q15 -21 27 -21q15 0 26 11q11 10 11 25v109h-192z" />
    <glyph glyph-name="uni0939" unicode="&#x939;" horiz-adv-x="424" 
d="M-10 427v73h444v-73h-63v-109h-199q-17 0 -30 -7q-12 -6 -12 -16q1 -10 13 -25q12 -16 34 -34q30 14 68 14q59 0 101 -35t42 -85q0 -24 -14 -48t-39 -41l-54 43q13 11 20 23t7 23q0 19 -18 32q-19 13 -45 13q-48 0 -82 -25t-34 -61q0 -51 50 -88q50 -36 120 -36h90v-75
h-92q-103 0 -175 58q-73 59 -73 141q0 32 16 61q15 29 43 48q-27 19 -43 45q-15 27 -15 54q0 40 36 68q37 28 88 28h117v34h-301z" />
    <glyph glyph-name="uni093C" unicode="&#x93c;" 
d="M-382 -46l-50 45l50 46l50 -46z" />
    <glyph glyph-name="uni093D" unicode="&#x93d;" horiz-adv-x="385" 
d="M205 0q-60 0 -111 44q-50 44 -72 115l61 41q23 -57 57 -91q33 -34 66 -34q30 0 51 18q21 19 21 45q0 22 -28 50t-76 54q-53 28 -84 64q-31 35 -31 68q0 52 36 89q37 37 88 37h117v-72h-116q-19 0 -32 -16q-13 -15 -13 -37q0 -18 29 -43q28 -26 78 -52q52 -27 82 -66
t30 -78q0 -56 -45 -96t-108 -40z" />
    <glyph glyph-name="uni093E" unicode="&#x93e;" horiz-adv-x="220" 
d="M70 0v427h-80v73h240v-73h-80v-427h-80z" />
    <glyph glyph-name="uni093F" unicode="&#x93f;" horiz-adv-x="220" 
d="M-10 427v73h71q-10 27 -10 55q0 65 55 110q55 46 132 46q111 0 202 -56q92 -56 136 -150h-82q-35 61 -104 96q-68 35 -152 35q-44 0 -76 -24q-31 -23 -31 -57q0 -25 11 -55h88v-73h-80v-427h-80v427h-80z" />
    <glyph glyph-name="uni0940" unicode="&#x940;" horiz-adv-x="220" 
d="M70 0v427h-80v73h80q-12 69 -49 115q-37 45 -81 45q-25 0 -42 -16q-18 -16 -18 -38q0 -27 16 -53q16 -27 45 -47h-92q-23 13 -36 40q-13 26 -13 59q0 54 41 92q42 38 100 38q71 0 130 -67q58 -66 76 -168h83v-73h-80v-427h-80z" />
    <glyph glyph-name="uni0941" unicode="&#x941;" 
d="M-142 -220q-80 0 -150 24q-71 23 -124 68l35 51q43 -36 105 -56q62 -19 134 -19q36 0 62 17q26 18 26 42q0 17 -16 29t-38 12q-15 0 -30 -7q-14 -7 -25 -20l-45 50q26 22 52 33q25 12 47 12q51 0 87 -32t36 -77q0 -53 -46 -90q-45 -37 -110 -37z" />
    <glyph glyph-name="uni0942" unicode="&#x942;" 
d="M-118 -206q-48 0 -83 32q-34 32 -34 77t37 77t89 32q75 0 153 -61q78 -60 139 -165l-60 -36q-54 94 -117 149q-62 54 -115 54q-26 0 -45 -15q-18 -14 -18 -35q0 -19 16 -32t38 -13t46 14l27 -56q-38 -22 -73 -22z" />
    <glyph glyph-name="uni0943" unicode="&#x943;" 
d="M-109 -200q-64 0 -109 35q-45 34 -45 83q0 45 37 77t90 32h82v-63h-82q-24 0 -42 -12q-17 -12 -17 -29q0 -24 25 -42q25 -17 61 -17q33 0 64 18l27 -55q-58 -27 -91 -27z" />
    <glyph glyph-name="uni0944" unicode="&#x944;" 
d="M-136 -240q-51 0 -87 21q-36 22 -36 52q0 19 12 35q13 17 33 24q-16 4 -26 19t-10 35q0 29 23 49q22 20 54 20h87v-55h-64q-13 0 -23 -7q-9 -6 -9 -16q0 -9 11 -16q10 -6 25 -6h37v-60h-46q-13 0 -22 -8t-9 -19q0 -7 12 -13q11 -5 28 -5q26 0 49 6q22 6 38 17l32 -46
q-19 -13 -47 -20t-62 -7z" />
    <glyph glyph-name="uni0945" unicode="&#x945;" 
d="M-108 565q-64 0 -113 41t-60 104h82q6 -36 32 -59t59 -23t58 23q26 23 32 59h82q-11 -63 -60 -104q-48 -41 -112 -41z" />
    <glyph glyph-name="uni0946" unicode="&#x946;" 
d="M-238 595q-64 0 -113 41t-60 104h82q6 -36 32 -59t59 -23q70 0 120 -45t50 -108h-83q0 37 -25 64q-26 26 -62 26z" />
    <glyph glyph-name="uni0947" unicode="&#x947;" 
d="M-145 500l-209 203l53 46l229 -249h-73z" />
    <glyph glyph-name="uni0948" unicode="&#x948;" 
d="M-151 500l-230 121l38 60l238 -177l-130 221l65 24l105 -249h-86z" />
    <glyph glyph-name="uni0949" unicode="&#x949;" horiz-adv-x="220" 
d="M70 0v427h-80v73h240v-73h-80v-427h-80zM109 565q-64 0 -113 41t-60 104h82q5 -30 31 -50t60 -20t59 20q26 20 31 50h82q-11 -63 -60 -104q-48 -41 -112 -41z" />
    <glyph glyph-name="uni094A" unicode="&#x94a;" horiz-adv-x="220" 
d="M70 0v427h-80v73h240v-73h-80v-427h-80zM-16 595q-64 0 -113 41t-60 104h82q5 -30 31 -50t60 -20q70 0 120 -48q50 -49 50 -117h-83q0 37 -25 64q-26 26 -62 26z" />
    <glyph glyph-name="uni094B" unicode="&#x94b;" horiz-adv-x="220" 
d="M70 0v427h-80v73h75l-199 203l53 46l227 -249h84v-73h-80v-427h-80z" />
    <glyph glyph-name="uni094C" unicode="&#x94c;" horiz-adv-x="220" 
d="M70 0v427h-80v73h71l-220 121l38 60l238 -177l-130 221l65 24l118 -249h60v-73h-80v-427h-80z" />
    <glyph glyph-name="uni094D" unicode="&#x94d;" 
d="M-135 -102l-37 50l63 32l187 -155l-41 -41l-146 127z" />
    <glyph glyph-name="uni0950" unicode="&#x950;" horiz-adv-x="780" 
d="M223 3q-61 0 -118 55t-90 145l64 32q26 -71 65 -114q40 -43 79 -43q37 0 63 23q26 22 26 54q0 37 -25 64q-25 26 -61 26q-29 0 -50 -10l-10 60q43 0 74 23t31 55q0 22 -15 37q-14 15 -35 15q-25 0 -51 -14q-25 -14 -47 -40l-57 47q33 39 73 60q41 22 82 22q54 0 92 -37
t38 -90q0 -24 -10 -46t-29 -38q16 -13 36 -20q21 -7 45 -7q17 0 40 15q24 14 51 41q30 30 61 46t58 16q58 0 99 -50t41 -121q0 -79 -41 -135t-99 -56q-44 0 -79 39q-36 39 -46 98h78q5 -27 18 -44q13 -18 29 -18q25 0 42 34q18 34 18 82q0 40 -18 68q-17 28 -42 28
q-19 0 -41 -13q-21 -13 -41 -37q-27 -32 -60 -50q-32 -18 -64 -18q-3 0 -14 4l-3 1q6 -5 9 -13q3 -9 3 -20q0 -65 -49 -110q-50 -46 -120 -46zM498 473q-74 0 -130 49q-57 48 -70 123h86q7 -42 41 -70q34 -27 78 -27q40 0 71 27q32 28 39 70h80q-13 -75 -68 -123
q-56 -49 -127 -49zM457 632v75h80v-75h-80z" />
    <glyph glyph-name="uni0953" unicode="&#x953;" 
d="M-149 511v222h80v-222h-80z" />
    <glyph glyph-name="uni0952" unicode="&#x952;" 
d="M-555 -61v75h361v-75h-361z" />
    <glyph glyph-name="uni0951" unicode="&#x951;" 
d="M-224 511v222h80v-222h-80zM-74 511v222h80v-222h-80z" />
    <glyph glyph-name="uni0954" unicode="&#x954;" 
d="M-173 500l45 195h104l-85 -195h-64z" />
    <glyph glyph-name="uni0958" unicode="&#x958;" horiz-adv-x="593" 
d="M-10 427v73h613v-73h-260v-86q16 19 36 29t42 10q58 0 99 -38t41 -92q0 -52 -27 -103t-75 -92l-59 54q39 32 60 69t21 72q0 23 -17 39q-18 16 -42 16q-23 0 -44 -13q-22 -14 -35 -37v-255h-80v127q-17 -14 -37 -22q-21 -7 -43 -7q-63 0 -108 43q-45 44 -45 105t45 104
t109 43q27 0 63 -13l-21 -69q-19 7 -41 7q-31 0 -53 -21t-22 -51t21 -52q22 -21 52 -21q20 0 41 12t39 33v209h-273zM137 -40l-50 47l50 48l46 -48z" />
    <glyph glyph-name="uni0959" unicode="&#x959;" horiz-adv-x="648" 
d="M80 -36l-55 47l55 48l50 -48zM-10 427v73h668v-73h-80v-427h-80v47q-81 -47 -175 -47q-85 0 -168 85t-134 224l66 26q4 -20 17 -34q13 -13 30 -13q12 0 21 8q8 7 8 18v113h-173zM323 75q58 0 104 14q45 14 71 40v21q-11 -11 -31 -17q-19 -6 -44 -6q-59 0 -101 39t-42 95
t42 95q42 40 101 40q34 0 65 -15l-22 -69q-15 10 -43 10q-26 0 -45 -18q-18 -17 -18 -42t18 -42q19 -18 45 -18q25 0 45 10q20 9 30 26v189h-255v-134q0 -29 -23 -49q-23 -21 -55 -21q-9 0 -26 8q21 -58 79 -107t105 -49z" />
    <glyph glyph-name="uni095A" unicode="&#x95a;" horiz-adv-x="431" 
d="M-10 427v73h451v-73h-80v-427h-80v427h-111v-218q0 -20 -9 -35q-9 -14 -21 -14q-21 0 -74 51t-53 71q0 11 7 19q6 8 16 8h36q7 0 13 9q5 10 5 23v86h-100zM117 -34l-50 48l50 47l50 -47z" />
    <glyph glyph-name="uni095B" unicode="&#x95b;" horiz-adv-x="609" 
d="M-10 427v73h629v-73h-80v-427h-80v264h-85q10 -14 15 -35t5 -47q0 -57 -37 -97t-89 -40q-75 0 -144 80t-103 207l75 32q19 -106 67 -175q49 -69 105 -69q19 0 33 18q13 19 13 45q0 33 -19 74q-19 40 -54 82h218v88h-469zM93 -40l-50 47l50 47l50 -47z" />
    <glyph glyph-name="uni095C" unicode="&#x95c;" horiz-adv-x="507" 
d="M-10 427v73h527v-73h-88v-118h-189q-10 0 -17 -4t-7 -10q0 -14 29 -35t48 -21q15 0 43 9t43 9q39 0 67 -29q28 -28 28 -69q0 -65 -50 -110q-50 -46 -120 -46q-85 0 -164 61t-127 163l64 37q40 -85 101 -136q62 -50 126 -50q37 0 64 24q26 23 26 57q0 10 -6 16q-6 7 -15 7
q-16 0 -45 -9q-30 -9 -46 -9q-36 0 -91 58t-55 96q0 27 20 47q20 19 48 19h145v43h-359zM295 -131l-50 47l50 48l54 -48z" />
    <glyph glyph-name="uni095D" unicode="&#x95d;" horiz-adv-x="467" 
d="M-10 427v73h487v-73h-116v-145h-176q-31 0 -52 -21q-22 -22 -22 -52q0 -51 36 -95q36 -43 79 -43q-10 10 -15 22q-5 13 -5 27q0 51 34 86q35 36 83 36q49 0 83 -35q35 -36 35 -86q0 -52 -47 -90q-47 -37 -113 -37q-98 0 -174 65q-76 66 -76 150q0 61 45 105q46 43 110 43
h95v70h-291zM318 71q16 0 29 16q14 15 14 34t-11 33q-11 13 -27 13q-15 0 -26 -13q-11 -14 -11 -33q0 -15 9 -28q8 -13 23 -22zM262 -131l-50 47l50 48l50 -48z" />
    <glyph glyph-name="uni095E" unicode="&#x95e;" horiz-adv-x="596" 
d="M-10 427v73h616v-73h-276v-95q13 18 34 28q22 10 48 10q62 0 105 -42q44 -42 44 -101q0 -49 -19 -98q-20 -50 -56 -93l-64 46q29 34 44 71q15 38 15 74q0 28 -20 48t-48 20q-20 0 -42 -16q-22 -15 -41 -43v-236h-80v173q-13 -15 -34 -24q-21 -8 -46 -8q-59 0 -94 36
t-35 96v154h-51zM170 216q23 0 45 14q21 14 35 38v159h-129v-154q0 -24 14 -40q15 -17 35 -17zM126 -38l-50 47l50 47l49 -47z" />
    <glyph glyph-name="uni095F" unicode="&#x95f;" horiz-adv-x="471" 
d="M-10 427v73h491v-73h-80v-427h-80v118q-17 -17 -46 -27q-29 -9 -65 -9q-79 0 -135 61t-56 148q34 -9 46 -9q32 0 54 21q23 22 23 52q0 20 -9 39q-10 19 -27 33h-116zM210 157q28 0 58 16q29 16 53 45v209h-129q15 -26 22 -44q8 -18 8 -28q0 -49 -32 -86q-31 -37 -80 -46
q11 -30 38 -48q28 -18 62 -18zM145 -36l-50 45l50 46l50 -46z" />
    <glyph glyph-name="uni0960" unicode="&#x960;" horiz-adv-x="698" 
d="M-10 427v73h718v-73h-311v-141l80 41q0 27 18 45q18 19 43 19q26 0 45 -16q18 -16 18 -39q0 -16 -11 -32t-30 -27l41 -77q-30 -3 -50 -21t-20 -43t22 -43t53 -18q21 0 34 2q14 2 20 5l28 -59q-37 -23 -82 -23q-64 0 -110 40q-45 40 -45 96q0 29 16 54q16 24 43 37l-13 23
l-100 -47v-203h-80v155l-216 -114l-41 68l191 100l-41 46q-12 15 -26 23t-27 8q-19 0 -47 -13t-63 -37l-32 73q74 52 145 52q30 0 55 -9t41 -25l61 -68v168h-327z" />
    <glyph glyph-name="uni0961" unicode="&#x961;" horiz-adv-x="554" 
d="M-10 427v73h574v-73h-129v-77q38 -12 61 -53q24 -41 24 -96q0 -63 -35 -109t-87 -52q-21 0 -35 -11q-15 -11 -15 -27q0 -7 10 -12t24 -5h27v-75h-26q-18 0 -31 -8t-13 -19q0 -5 23 -4q13 1 20 1q36 0 51 1q19 2 26 7l32 -56q-19 -13 -47 -20t-62 -7q-51 0 -87 23t-36 55
q0 21 12 39q13 18 33 25q-16 4 -26 19t-10 35q0 40 32 69q32 28 78 28q28 13 45 41t17 62q0 31 -16 54q-17 22 -40 22q-28 -3 -53 -34q-24 -31 -36 -79l-76 22q8 31 26 55q-10 17 -29 26q-19 10 -41 10q-26 0 -45 -23q-18 -22 -18 -54q0 -42 32 -81t85 -60l-33 -64
q-74 30 -119 86t-45 119t43 107q44 45 105 45q34 0 62 -14q27 -14 39 -38q17 22 36 35t38 15v77h-365z" />
    <glyph glyph-name="uni0962" unicode="&#x962;" 
d="M-337 -72q0 46 37 79t90 33q29 0 52 -11t35 -31q17 20 41 31t49 11q47 0 81 -35q33 -35 33 -84q0 -44 -32 -78q-33 -33 -81 -39q-22 -3 -37 -14q-15 -10 -15 -24q0 -17 18 -29t43 -12q30 0 55 12l23 -38q-47 -18 -78 -18q-51 0 -88 25q-36 25 -36 60q0 39 28 67t68 29
q27 0 45 18q19 17 19 41q0 25 -14 43t-33 18q-24 -3 -45 -24q-21 -22 -32 -55l-65 16q1 4 9 16l13 21q-9 12 -25 19t-35 7q-22 0 -37 -16t-15 -38q0 -30 27 -57q27 -28 71 -42l-28 -45q-63 20 -102 60t-39 84z" />
    <glyph glyph-name="uni0963" unicode="&#x963;" 
d="M-357 -73q0 46 41 79q42 33 100 33q32 0 57 -11q26 -12 39 -32q20 21 45 33q26 11 53 11q53 0 91 -33q37 -33 37 -79q0 -42 -33 -74t-82 -38q-24 0 -42 -8q-17 -8 -17 -19q0 -9 13 -16q12 -6 30 -6h26v-42h-25q-20 0 -34 -6q-14 -5 -14 -13q0 -6 14 -10q13 -3 33 -3
q45 0 74 16l30 -40q-32 -18 -104 -18q-48 0 -82 16t-34 39q0 15 12 28q11 12 30 17q-15 3 -24 13q-10 11 -10 25q0 28 31 48t74 20q26 9 43 29q16 19 16 42q0 22 -16 37t-38 15q-27 -3 -49 -24q-23 -21 -35 -54l-72 16q6 16 24 39q-9 11 -26 17t-40 6q-24 0 -40 -16
q-17 -15 -17 -37q0 -30 30 -57t78 -41l-31 -46q-69 20 -113 60q-43 40 -43 84z" />
    <glyph glyph-name="uni0964" unicode="&#x964;" horiz-adv-x="290" 
d="M140 0v500h80v-500h-80z" />
    <glyph glyph-name="uni0965" unicode="&#x965;" horiz-adv-x="490" 
d="M140 0v500h80v-500h-80zM340 0v500h80v-500h-80z" />
    <glyph glyph-name="uni0966" unicode="&#x966;" horiz-adv-x="450" 
d="M225 -1q-79 0 -135 74q-56 73 -56 177t56 178t135 74t135 -74t56 -178t-56 -177q-56 -74 -135 -74zM225 71q41 0 71 52q29 53 29 127t-29 127q-30 52 -71 52t-71 -52q-29 -53 -29 -127t29 -127q30 -52 71 -52z" />
    <glyph glyph-name="uni0967" unicode="&#x967;" horiz-adv-x="449" 
d="M295 -42v276q-13 -11 -30 -16q-18 -6 -38 -6q-63 0 -108 42q-45 43 -45 103q0 64 45 110q45 45 108 45q61 0 105 -45q43 -46 43 -110v-399h-80zM227 285q28 0 48 21t20 51t-20 51t-48 21t-48 -21t-20 -51t20 -51t48 -21z" />
    <glyph glyph-name="uni0968" unicode="&#x968;" horiz-adv-x="449" 
d="M293 -70l-109 172q-47 0 -81 20q-33 20 -33 48q0 25 17 42q18 18 42 18q21 0 42 -12q22 -12 40 -34q41 15 66 55t25 91q0 45 -28 77q-29 32 -69 32q-29 0 -55 -10q-27 -9 -48 -27l-46 57q28 28 67 43q38 15 82 15q78 0 133 -55t55 -132q0 -60 -35 -115q-36 -55 -97 -90
l104 -155z" />
    <glyph glyph-name="uni0969" unicode="&#x969;" horiz-adv-x="449" 
d="M259 -127q-34 29 -91 127q-39 7 -65 28q-26 20 -26 45q0 28 17 48q18 20 42 20q21 0 44 -19t42 -51q33 12 53 38q20 25 20 55q0 34 -32 58q-31 24 -76 24h-52v64q57 0 97 21t40 51q0 23 -23 39q-22 16 -54 16q-51 0 -91 -28l-36 59q73 42 127 42q68 0 116 -37
q48 -38 48 -91q0 -33 -20 -60q-21 -28 -54 -40q43 -16 70 -48q26 -33 26 -70q0 -51 -35 -94q-35 -44 -92 -65l68 -86z" />
    <glyph glyph-name="uni096A" unicode="&#x96a;" horiz-adv-x="449" 
d="M231 0q-60 0 -103 37q-42 37 -42 89q0 41 19 78q19 36 53 60q-57 33 -89 77q-33 44 -33 87q0 25 12 49q11 23 32 41l70 -27q-15 -15 -24 -32q-8 -17 -8 -32q0 -36 28 -70q28 -35 76 -57q50 23 79 58q30 35 30 70q0 12 -10 28q-10 15 -28 30l76 32q21 -14 32 -39
q12 -24 12 -53q0 -41 -33 -84t-90 -76q40 -19 63 -56q24 -38 24 -83q0 -53 -43 -90t-103 -37zM231 64q26 0 44 18q18 19 18 45q0 30 -19 56q-20 27 -52 42q-25 -12 -39 -38q-15 -27 -15 -60q0 -26 18 -45q19 -18 45 -18z" />
    <glyph glyph-name="uni096B" unicode="&#x96b;" horiz-adv-x="450" 
d="M339 -75l-64 50q25 9 40 29t15 44l-10 36l-36 114l-73 -14q-71 0 -122 53q-50 54 -50 129q0 46 14 87t40 72l64 -41q-18 -18 -27 -48q-10 -31 -10 -70q0 -45 27 -77q26 -32 64 -32q19 0 33 2q14 3 22 7q-18 31 -18 73q0 38 23 64q22 27 54 27q24 0 42 -24q17 -24 17 -58
q0 -28 -9 -53q-10 -26 -27 -47l54 -182q9 -34 9 -55q0 -27 -20 -51q-20 -23 -52 -35z" />
    <glyph glyph-name="uni096C" unicode="&#x96c;" horiz-adv-x="449" 
d="M322 -126q-30 30 -47 66q-18 36 -21 75q-77 14 -127 57q-50 44 -50 97q0 32 13 60q13 29 37 49q-36 21 -57 50t-21 59q0 53 48 91q48 37 116 37q36 0 73 -10l27 -72q-36 13 -100 13q-30 0 -52 -17q-21 -18 -21 -42q0 -30 29 -51q30 -21 71 -21h63v-64h-54q-34 0 -58 -24
t-24 -58t27 -58q26 -24 64 -24q12 33 35 53q22 20 47 20t42 -19q18 -19 18 -46q0 -21 -19 -40q-19 -20 -50 -31q0 -26 14 -54q15 -29 41 -55z" />
    <glyph glyph-name="uni096D" unicode="&#x96d;" horiz-adv-x="450" 
d="M220 0q-79 0 -134 75q-56 74 -56 180q0 132 29 240l71 -13q-28 -77 -28 -227q0 -75 35 -129q34 -53 83 -53q35 0 60 18q26 18 31 45q-54 5 -90 52q-37 47 -37 112q0 62 35 106q34 44 83 44t83 -44q35 -44 35 -106q0 -136 -55 -218q-54 -82 -145 -82zM330 191q18 49 18 91
v45q0 23 -13 39q-14 16 -33 16t-32 -24t-13 -58q0 -31 20 -60q19 -29 53 -49z" />
    <glyph glyph-name="uni096E" unicode="&#x96e;" horiz-adv-x="450" 
d="M239 0q-79 0 -135 48t-56 116q0 31 16 64q17 33 47 63l219 209l59 -50l-214 -205q-22 -26 -33 -47q-12 -21 -12 -34q0 -38 32 -64q32 -27 77 -27q26 0 56 14q31 14 62 40l45 -54q-42 -35 -84 -54t-79 -19z" />
    <glyph glyph-name="uni096F" unicode="&#x96f;" horiz-adv-x="450" 
d="M307 -105l-41 56q23 4 39 16q15 11 15 25q0 20 -3 34q-4 14 -10 20l-223 223q-17 17 -27 43q-9 26 -9 57q0 60 45 103t109 43q60 0 103 -43t43 -103q0 -61 -34 -105q-34 -45 -84 -49l145 -146q13 -13 20 -32t7 -41q0 -37 -27 -65q-27 -29 -68 -36zM193 278q32 0 54 27
q23 26 23 64q0 34 -20 58t-48 24q-30 0 -51 -24q-21 -25 -21 -59q0 -37 18 -64q19 -26 45 -26z" />
    <glyph glyph-name="uni0970" unicode="&#x970;" horiz-adv-x="418" 
d="M210 -5q-58 0 -99 39t-41 94q0 61 41 104t99 43q57 0 98 -43q40 -43 40 -104q0 -55 -40 -94q-41 -39 -98 -39zM210 70q24 0 41 17t17 41q0 30 -17 51t-41 21q-25 0 -42 -21q-18 -21 -18 -51q0 -24 18 -41q17 -17 42 -17z" />
    <glyph glyph-name="uni097B" unicode="&#x97b;" horiz-adv-x="431" 
d="M-10 427v73h451v-73h-80v-427h-80v427h-109v-223q0 -17 -9 -30q-10 -12 -23 -12q-21 0 -74 50t-53 70q0 11 7 19q6 8 16 8h36q8 0 14 9q6 10 6 23v86h-102zM0 -81v75h361v-75h-361z" />
    <glyph glyph-name="uni097C" unicode="&#x97c;" horiz-adv-x="612" 
d="M-10 427v73h632v-73h-80v-427h-80v264h-100q21 -36 21 -67q0 -53 -40 -90t-97 -37q-79 0 -143 73t-84 184l69 23q16 -89 60 -147q45 -58 98 -58q24 0 40 16q17 15 17 37q0 23 -20 59q-21 36 -59 82h238v88h-472zM78 -81v75h361v-75h-361z" />
    <glyph glyph-name="uni097E" unicode="&#x97e;" horiz-adv-x="467" 
d="M-10 427v73h486v-73h-83v-118h-193q-8 0 -14 -4t-6 -10q0 -15 20 -38q19 -23 32 -23q14 0 41 12q26 11 40 11q50 0 85 -29q35 -28 35 -69q0 -66 -48 -112q-49 -47 -117 -47q-78 0 -147 50q-70 50 -109 134l68 32q30 -65 81 -103t107 -38q35 0 60 25q25 24 25 59
q0 10 -12 16q-11 7 -28 7q-14 0 -40 -12q-26 -11 -40 -11q-33 0 -83 50q-50 51 -50 84q0 38 29 64q28 27 69 27h115v43h-323zM94 -81v75h361v-75h-361z" />
    <glyph glyph-name="uni097F" unicode="&#x97f;" horiz-adv-x="434" 
d="M-9 427v73h453v-73h-80v-427h-80v113q-47 -22 -91 -22q-68 0 -115 42q-48 43 -48 103q0 69 50 117q51 49 122 49q4 0 12 -4l20 -11l14 -69q-19 9 -46 9q-22 0 -45 -13l127 -105v218h-293zM193 166q22 0 32 1q13 1 17 5l-117 109q-7 -9 -11 -20q-4 -12 -4 -25
q0 -29 24 -49q25 -21 59 -21zM15 -81v75h361v-75h-361z" />
    <glyph glyph-name="uni0972" unicode="&#x972;" horiz-adv-x="593" 
d="M443 0v214q-30 -14 -41 -14q-31 0 -47 9l5 -10q11 -24 11 -30q0 -56 -42 -95q-41 -39 -100 -39q-63 0 -122 55q-58 55 -91 145l62 29q25 -69 67 -112q41 -42 84 -42q26 0 44 17q18 18 18 42q0 34 -26 59q-26 24 -62 24q-18 0 -33 -4l-18 61q43 8 72 28q28 21 28 45
q0 22 -13 38t-32 16q-27 0 -58 -16q-31 -17 -61 -47l-40 52q34 41 76 63q42 23 83 23q52 0 88 -38q37 -38 37 -91q0 -24 -12 -46q-11 -22 -32 -36q17 -12 47 -19q29 -6 68 -6q14 0 24 2t16 5v145h-80v73h240v-73h-80v-427h-80zM488 565q-64 0 -113 41t-60 104h82
q5 -30 31 -50t60 -20t59 20q26 20 31 50h82q-11 -63 -60 -104q-48 -41 -112 -41z" />
    <glyph glyph-name="uni097D" unicode="&#x97d;" horiz-adv-x="364" 
d="M104 167q62 11 103 49q41 37 41 84q0 51 -31 86q-31 36 -74 36q-21 0 -48 -13q-26 -13 -55 -37l-45 59q33 33 72 51q38 18 76 18q78 0 133 -59q55 -58 55 -141q0 -66 -42 -116q-41 -50 -105 -61v-123h-80v167z" />
    <glyph glyph-name="uni0971" unicode="&#x971;" horiz-adv-x="100" 
d="M-159 611v100h100v-100h-100z" />
    <glyph glyph-name="uni0904" unicode="&#x904;" horiz-adv-x="593" 
d="M443 0v214q-30 -14 -41 -14q-31 0 -47 9l5 -10q11 -24 11 -30q0 -56 -42 -95q-41 -39 -100 -39q-63 0 -122 55q-58 55 -91 145l62 29q25 -69 67 -112q41 -42 84 -42q26 0 44 17q18 18 18 42q0 34 -26 59q-26 24 -62 24q-18 0 -33 -4l-18 61q43 8 72 28q28 21 28 45
q0 22 -13 38t-32 16q-27 0 -58 -16q-31 -17 -61 -47l-40 52q34 41 76 63q42 23 83 23q52 0 88 -38q37 -38 37 -91q0 -24 -12 -46q-11 -22 -32 -36q17 -12 47 -19q29 -6 68 -6q14 0 24 2t16 5v145h-80v73h240v-73h-80v-427h-80zM352 595q-64 0 -113 41t-60 104h82
q5 -30 31 -50t60 -20q70 0 120 -48q50 -49 50 -117h-79q0 37 -27 64q-26 26 -64 26z" />
    <glyph glyph-name="uni0979" unicode="&#x979;" horiz-adv-x="606" 
d="M-10 427v73h626v-73h-80v-427h-80v264h-85q10 -14 15 -35t5 -47q0 -57 -37 -97t-89 -40q-75 0 -144 80t-103 207l75 32q19 -106 67 -175q49 -69 105 -69q19 0 33 18q13 19 13 45q0 33 -19 74q-19 40 -54 82h218v88h-466zM150 -50l-50 47l50 47l50 -47zM350 -50l-50 47
l50 47l50 -47zM250 -130l-50 47l50 47l50 -47z" />
    <glyph glyph-name="uni097A" unicode="&#x97a;" horiz-adv-x="469" 
d="M-10 427v73h489v-73h-80v-427h-80v123q-20 -20 -48 -30q-28 -11 -61 -11q-79 0 -135 61t-56 148q34 -9 46 -9q32 0 54 21q23 22 23 52q0 20 -9 39q-10 19 -27 33h-116zM210 157q38 0 73 26l-92 87q-16 -19 -36 -31q-21 -12 -45 -16q11 -30 38 -48q28 -18 62 -18zM319 241
v186h-127q15 -17 22 -36q8 -18 8 -36q0 -11 -1 -18z" />
    <glyph glyph-name="uni0900" unicode="&#x900;" 
d="M-108 749q63 0 111 -44q49 -44 61 -111h-91q-6 36 -29 59t-52 23q-33 0 -59 -23t-32 -59h-82q12 67 61 111t112 44zM-155 625h80v-83h-80v83z" />
    <glyph glyph-name="uni0955" unicode="&#x955;" 
d="M-108 565q-64 0 -113 41t-60 104h82q6 -36 32 -59t59 -23t58 23q26 23 32 59h82q-11 -63 -60 -104q-48 -41 -112 -41zM-276 427v73h351v-73h-351z" />
    <glyph glyph-name="uni20B9" unicode="&#x20b9;" horiz-adv-x="543" 
d="M70 575h403v-57h-171q23 -8 41 -30q18 -21 25 -51h105v-54h-106q-6 -67 -58 -114q-53 -46 -125 -49l205 -211v-9h-81l-214 218v61q7 0 21 -2q15 -2 22 -2q63 0 108 31q45 32 47 77h-222v54h220q-12 36 -40 59q-28 22 -62 22h-118v57z" />
    <glyph glyph-name="uni0947_uni0902.abvs" 
d="M-145 500l-231 199l50 50l254 -249h-73zM-109 605v100h100v-100h-100z" />
    <glyph glyph-name="uni0947_uni0930_uni094D.rphf.abvs" 
d="M-145 500l-224 203l48 46l136 -141q5 43 41 72t85 29q21 0 38 -5q17 -4 30 -13l-13 -55q-25 9 -55 9q-26 0 -45 -17q-18 -18 -18 -42q0 -19 5 -34q6 -16 16 -25l29 -27h-73z" />
    <glyph glyph-name="uni0947_uni0930_uni094D.rphf.abvs_uni0902.abvs" 
d="M-77 526v79h80v-79h-80zM-145 500l-229 203l53 46l136 -141q5 43 41 72t85 29q21 0 38 -5q17 -4 30 -13l-13 -55q-25 9 -55 9q-26 0 -45 -17q-18 -18 -18 -42q0 -19 5 -34q6 -16 16 -25l29 -27h-73z" />
    <glyph glyph-name="uni0948_uni0902.abvs" 
d="M-151 500l-240 126l38 55l243 -172l-115 216l55 24l105 -249h-86zM-52 620v100h100v-100h-100z" />
    <glyph glyph-name="uni0948_uni0930_uni094D.rphf.abvs" 
d="M-156 500l-249 115l32 56l263 -167l-171 213l46 32l82 -120q8 35 42 58q33 22 78 22q21 0 38 -5q17 -4 30 -13l-14 -55q-25 9 -54 9q-30 0 -52 -18q-21 -19 -21 -45q0 -17 9 -38t27 -44h-86z" />
    <glyph glyph-name="uni0948_uni0930_uni094D.rphf.abvs_uni0902.abvs" 
d="M-55 526v84h80v-84h-80zM-156 500l-224 110l32 56l238 -162l-170 213l55 32l77 -120q8 35 40 58q33 22 75 22q21 0 38 -5q17 -4 30 -13l-13 -55q-25 9 -55 9t-52 -18q-21 -19 -21 -45q0 -16 9 -37q10 -21 28 -45h-87z" />
    <glyph glyph-name="uni0930_uni094D.rphf" 
d="M-138 500q-21 18 -33 43t-12 52q0 47 36 81q36 33 87 33q21 0 38 -5q17 -4 30 -13l-14 -55q-25 9 -54 9q-23 0 -39 -16t-16 -38q0 -23 13 -47t37 -44h-73z" />
    <glyph glyph-name="uni0930_uni094D.rphf_uni0902.abvs" 
d="M-138 500q-17 21 -27 43q-9 22 -9 43q0 57 40 98q41 40 98 40q35 0 59 -14v-59q-25 9 -59 9q-31 0 -53 -22q-22 -21 -22 -52q0 -27 11 -50t30 -36h-68zM-71 531v79h80v-79h-80z" />
    <glyph glyph-name="uni0930_uni094D.blwf" 
d="M-272 -173l127 173h73l136 -173h-73l-100 118l-86 -118h-77z" />
    <glyph glyph-name="uni0936_uni0930_uni094D.blwf.vatu" horiz-adv-x="552" 
d="M402 0v191l-209 -146l-46 63l141 97l-95 59l-136 -87l-46 59l118 73q-25 14 -40 39q-14 24 -14 52q0 47 33 80q34 33 81 33q46 0 78 -33q33 -33 33 -80q0 -24 -13 -48q-12 -24 -35 -43l95 -64l55 37v145h-64v73h224v-73h-80v-427h-80zM187 345q15 5 24 21q9 15 9 34
q0 16 -10 27q-9 11 -23 11q-13 0 -23 -11q-9 -11 -9 -27q0 -17 9 -32q8 -14 23 -23z" />
    <glyph glyph-name="uni095E_uni0930_uni094D.blwf.vatu" horiz-adv-x="613" 
d="M-10 427v73h633v-73h-276v-95q13 18 38 28q26 10 59 10q56 0 95 -42t39 -101q0 -41 -19 -90t-56 -101l-73 46q33 33 50 70q18 38 18 75q0 28 -20 48t-48 20q-20 0 -42 -16q-22 -15 -41 -43v-236h-80v142l-194 -156l-42 50l133 107q-45 6 -75 43t-30 87v154h-69zM194 209
q18 0 38 16q19 16 35 43v159h-128v-154q0 -27 16 -45q16 -19 39 -19zM180 -76l-50 45l50 46l50 -46z" />
    <glyph glyph-name="uni0924_uni094D.half_uni0924.pres" horiz-adv-x="590" 
d="M-10 427v73h610v-73h-80v-427h-80v291h-159q-29 0 -49 -20q-21 -20 -21 -49q0 -48 35 -95q34 -47 94 -82l-45 -50q-76 44 -120 107q-44 62 -44 127q0 19 8 35q9 16 24 27h-150v75h427v61h-450z" />
    <glyph glyph-name="uni0915_uni094D_uni0937.akhn" horiz-adv-x="566" 
d="M271 -18l-50 68q-23 -4 -40 -4q-62 0 -105 40q-44 40 -44 96q0 35 24 69t65 58q-26 22 -41 46q-14 24 -14 45q0 50 34 85q35 35 83 35q49 0 83 -35q35 -35 35 -84q0 -22 -13 -45q-12 -23 -35 -42q19 -9 73 -9q31 0 54 6q23 5 36 16v100h-63v73h223v-73h-80v-427h-80v250
q-35 -20 -90 -20q-47 0 -83 10q-37 10 -59 28q-33 -15 -52 -39q-20 -23 -20 -47q0 -25 20 -43t48 -18l23 6q0 30 17 52q18 21 42 21q27 0 45 -20q19 -20 19 -49q0 -19 -9 -34q-9 -16 -24 -25l38 -49zM180 350q18 7 30 20q11 14 11 30q0 19 -11 32t-27 13q-15 0 -26 -13
t-11 -32q0 -12 9 -26q9 -13 25 -24z" />
    <glyph glyph-name="uni091C_uni094D_uni091E.akhn" horiz-adv-x="550" 
d="M-10 427v73h570v-73h-80v-427h-80v314h-259q-6 0 -10 -4t-4 -10q0 -12 12 -30t20 -18q14 0 42 9t42 9q40 0 69 -27q28 -26 28 -64q0 -47 -33 -84q-33 -36 -84 -45q41 -34 68 -50l-54 -55q-59 34 -96 78q-46 0 -79 21q-33 20 -33 49q0 20 16 34q15 14 37 14q14 0 33 -11
q20 -10 44 -30q44 8 72 30q29 22 29 49q0 7 -5 11q-5 5 -12 5q-14 0 -42 -9t-42 -9q-28 0 -70 46q-42 47 -42 77q0 37 28 63t67 26h258v38h-410z" />
    <glyph glyph-name="uni0915_uni094D.half" horiz-adv-x="459" 
d="M-10 427v73h479v-73h-127v-91q17 17 39 27q21 9 43 9q26 0 55 -17v-82q-14 12 -28 18t-27 6q-26 0 -48 -15t-34 -41v-241h-80v123q-14 -14 -35 -22t-45 -8q-63 0 -108 42t-45 101q0 61 45 105q45 43 108 43q34 0 55 -10l-12 -72q-16 7 -42 7q-31 0 -52 -21
q-22 -22 -22 -52q0 -28 21 -48q22 -20 52 -20q24 0 45 13q22 14 35 37v209h-272z" />
    <glyph glyph-name="uni0916_uni094D.half" horiz-adv-x="472" 
d="M-10 427v73h492v-73h-245v-134q0 -29 -23 -49q-23 -21 -55 -21q-9 0 -26 8q21 -58 79 -107t105 -49q58 0 104 14q45 14 71 40v-82q-81 -47 -175 -47q-85 0 -168 85t-134 224l66 26q4 -20 17 -34q13 -13 30 -13q12 0 21 8q8 7 8 18v113h-167zM274 261q0 56 42 95
q42 40 101 40q34 0 65 -15l-22 -69q-15 10 -43 10q-26 0 -45 -18q-18 -17 -18 -42t18 -42q19 -18 45 -18q25 0 45 10q20 9 30 26v-93q-9 -9 -28 -13q-20 -5 -47 -5q-59 0 -101 39t-42 95z" />
    <glyph glyph-name="uni0917_uni094D.half" horiz-adv-x="220" 
d="M-10 427v73h240v-73h-55v-245q0 -14 -8 -25q-7 -10 -18 -10q-33 0 -84 51q-50 51 -50 84q0 10 6 18q6 7 15 9h36q10 2 16 8q7 7 7 15v95h-105z" />
    <glyph glyph-name="uni0918_uni094D.half" horiz-adv-x="325" 
d="M-10 427v73h345v-73h-183q-15 -3 -24 -14q-10 -11 -10 -26q0 -20 22 -35q21 -14 52 -14h41v-75h-29q-35 0 -59 -16q-25 -15 -25 -37t26 -37q26 -16 63 -16q40 0 76 16q35 17 60 46v-90q-27 -23 -62 -35t-74 -12q-70 0 -120 37q-49 38 -49 91q0 30 19 55q18 25 49 36
q-32 11 -51 34q-19 22 -19 47q0 14 5 26q5 11 14 19h-67z" />
    <glyph glyph-name="uni0919_uni094D.half" horiz-adv-x="610" 
d="M-10 427v73h630v-73h-194v-118h-167q-9 0 -16 -5q-6 -6 -6 -13q0 -13 24 -32q23 -20 39 -20q17 0 29 2q12 1 17 4q12 7 21 10q9 4 15 4q33 0 57 -28q23 -28 23 -67q0 -64 -45 -110q-45 -45 -108 -45q-78 0 -158 58q-79 59 -137 160l47 50q41 -88 108 -141q68 -52 140 -52
q30 0 52 21q21 21 21 50q0 12 -7 21q-6 8 -16 8q-4 0 -15 -5l-17 -6q-25 -9 -45 -9q-36 0 -90 58q-55 58 -55 96q0 27 21 47q21 19 51 19h137v43h-356zM546 255q-22 0 -38 13t-16 32q0 12 16 21t38 9t37 -9q16 -9 16 -21q0 -19 -16 -32q-15 -13 -37 -13zM267 -102l-37 45
l73 42l187 -155l-41 -41l-146 127z" />
    <glyph glyph-name="uni091A_uni094D.half" horiz-adv-x="359" 
d="M225 82q-55 0 -93 35q-39 34 -39 83q0 30 12 56t33 44h-125v75h302v-75h-72q-32 -15 -51 -42t-19 -58q0 -18 15 -30q15 -13 37 -13q42 0 84 36q41 37 70 98v-109q-33 -47 -74 -74q-41 -26 -80 -26zM-10 427v73h379v-73h-379z" />
    <glyph glyph-name="uni091B_uni094D.half" horiz-adv-x="546" 
d="M-10 427v73h566v-73h-113v-60q34 -20 53 -47q20 -28 20 -57q0 -97 -88 -178q-89 -82 -193 -82q-71 0 -122 47q-50 47 -50 113q0 34 11 60q12 26 31 37q-32 11 -51 42t-19 70q0 29 18 55h-63zM235 78q34 0 64 12q29 13 48 35q-27 27 -42 61q-15 33 -15 68q0 36 20 67
q20 30 53 46v60h-205q-18 0 -30 -16q-13 -16 -13 -39q0 -22 22 -37t53 -15h43l13 -75h-33q-29 0 -49 -24q-21 -24 -21 -58q0 -35 27 -60t65 -25zM397 172q19 19 29 42q10 24 10 49q0 17 -9 29q-10 12 -23 12q-14 0 -24 -15q-10 -14 -10 -35q0 -26 7 -48q7 -21 20 -34z
M218 -102l-37 50l63 32l187 -155l-41 -41l-146 127z" />
    <glyph glyph-name="uni091C_uni094D.half" horiz-adv-x="456" 
d="M258 45q-64 0 -131 75q-66 75 -111 198l67 32q38 -104 86 -167t89 -63q24 0 42 18q17 18 17 44q0 40 -23 82q-22 41 -63 75h245v-75h-104q12 -14 19 -36q6 -21 6 -46q0 -57 -41 -97q-40 -40 -98 -40zM-10 427v73h476v-73h-476z" />
    <glyph glyph-name="uni091D_uni094D.half" horiz-adv-x="405" 
d="M-10 427v73h425v-73h-110v-109h-165q-12 0 -21 -5q-9 -6 -9 -13q0 -11 20 -27t33 -16q12 0 36 7q24 6 36 6q26 0 75 -19t75 -19q6 0 16 4t24 12v-61q-24 -14 -41 -14q-18 0 -31 2q-13 3 -19 7v-20q0 -42 -31 -76q-31 -33 -78 -41q32 -19 80 -36l-48 -54q-46 17 -112 72
q-48 0 -81 20q-34 20 -34 48q0 21 17 35q18 15 42 15q19 0 39 -12t38 -33q38 7 63 25t25 39q0 13 -5 22t-12 9q-13 0 -37 -7q-24 -6 -37 -6q-30 0 -76 44q-46 45 -46 74q0 32 25 54q24 23 59 23h100v50h-235z" />
    <glyph glyph-name="uni091E_uni094D.half" horiz-adv-x="353" 
d="M169 77q-44 0 -85 20q-41 21 -72 58l39 54q27 -27 58 -42t60 -15t49 27t20 66q0 29 -20 49t-49 20q-20 0 -45 -9l-37 59q43 25 82 25q56 0 99 -33q42 -33 51 -83q17 -8 23 -10q9 -4 14 -4q46 0 77 18v-72q-27 -10 -73 -10q-5 0 -20 6l-21 8q-5 -56 -48 -94t-102 -38z
M-10 427v73h373v-73h-373z" />
    <glyph glyph-name="uni091F_uni094D.half" horiz-adv-x="441" 
d="M-10 427v73h461v-73h-88v-145h-180q-29 0 -49 -21q-21 -22 -21 -52q0 -52 42 -88q42 -37 101 -37q27 0 56 16t53 45l64 -45q-30 -43 -76 -67t-97 -24q-92 0 -158 59q-65 58 -65 141q0 61 39 105q38 43 93 43h118v70h-293zM218 -102l-27 55l63 32l187 -155l-41 -41
l-146 127z" />
    <glyph glyph-name="uni0920_uni094D.half" horiz-adv-x="452" 
d="M-10 427v73h472v-73h-102v-145h-180q-28 0 -48 -21q-20 -22 -20 -52q0 -49 43 -87q42 -38 97 -38q36 0 62 21q25 21 25 50q0 22 -7 42q-7 19 -20 35l57 41q23 -13 37 -43q13 -29 13 -66q0 -64 -49 -110q-49 -45 -118 -45q-86 0 -153 61t-67 139q0 61 41 105q40 43 98 43
h109v70h-290zM214 -92l-27 55l63 32l187 -155l-41 -41l-146 127z" />
    <glyph glyph-name="uni0921_uni094D.half" horiz-adv-x="504" 
d="M-10 427v73h524v-73h-85v-118h-193q5 0 -3 -3q-17 -7 -17 -11q0 -15 35 -38q34 -23 57 -23q4 0 15 5q14 7 26 11q14 5 50 5q29 0 49 -28q21 -28 21 -68q0 -65 -48 -110q-49 -46 -117 -46q-85 0 -164 61t-127 163l68 32q30 -82 91 -131q61 -50 132 -50q35 0 60 24
q25 23 25 57q0 10 -9 16q-9 7 -22 7q-4 0 -18 -4l-18 -5q-34 -9 -45 -9q-35 0 -88 58t-53 96q0 27 20 47q20 19 48 19h145v43h-359zM271 -92l-27 55l63 32l187 -155l-41 -41l-146 127z" />
    <glyph glyph-name="uni0922_uni094D.half" horiz-adv-x="457" 
d="M-10 427v73h477v-73h-107v-145h-176q-31 0 -52 -21q-22 -22 -22 -52q0 -46 36 -84q36 -39 79 -39q-20 29 -20 64q0 44 30 76q30 31 72 31q52 0 88 -35q37 -36 37 -86q0 -52 -48 -90q-47 -37 -114 -37q-94 0 -167 61t-73 139q0 61 47 105q46 43 112 43h91v70h-290zM302 86
q19 0 34 16q16 15 16 34t-11 33q-10 13 -25 13q-13 0 -22 -13q-9 -14 -9 -33t5 -32q4 -13 12 -18zM234 -102l-27 55l63 32l187 -155l-41 -41l-146 127z" />
    <glyph glyph-name="uni0923_uni094D.half" horiz-adv-x="348" 
d="M-10 427v73h368v-73h-52v-172q0 -60 -39 -102q-38 -42 -93 -42t-93 42q-39 42 -39 102v172h-52zM174 186q22 0 37 20t15 49v172h-104v-172q0 -29 15 -49t37 -20z" />
    <glyph glyph-name="uni0924_uni094D.half" horiz-adv-x="299" 
d="M-10 427v73h319v-73h-319zM319 282h-162q-19 0 -33 -12q-13 -12 -13 -29q0 -48 34 -98q34 -51 94 -93l-46 -55q-76 53 -119 119q-43 65 -43 127q0 48 37 82t89 34h162v-75z" />
    <glyph glyph-name="uni0925_uni094D.half" horiz-adv-x="371" 
d="M220 91q-63 0 -118 60q-56 60 -81 155q34 -16 89 -16q59 0 84 22q26 22 26 72q0 36 -23 62q-24 25 -57 25q-16 0 -27 -9t-11 -22q0 -12 11 -20t27 -8v-68q-49 0 -83 29q-35 30 -35 71q0 42 35 72q34 30 83 30q66 0 113 -47q47 -48 47 -115q0 -65 -50 -110
q-50 -46 -121 -46q17 -29 41 -45q24 -17 50 -17q45 0 90 28q46 29 81 79v-100q-33 -39 -78 -60q-44 -22 -93 -22zM311 427v73h70v-73h-70z" />
    <glyph glyph-name="uni0926_uni094D.half" horiz-adv-x="425" 
d="M145 -27l-32 54l68 18l187 -140l-59 -41l-132 118zM-10 427v73h445v-73h-82v-127h-190q-23 0 -40 -13q-16 -13 -16 -32q0 -36 39 -73q38 -37 76 -37l20 -1q9 0 12 1q0 34 19 58q18 24 45 24q24 0 42 -18q17 -19 17 -45q0 -20 -10 -37t-27 -27l55 -103l-67 -30l-55 106
h-49q-65 0 -131 61t-66 121q0 50 38 85t92 35h116v52h-283z" />
    <glyph glyph-name="uni0927_uni094D.half" horiz-adv-x="328" 
d="M276 427v73h62v-73h-62zM65 206q0 28 9 49q8 22 24 33q-36 21 -56 57q-21 37 -21 79q0 48 32 82t77 34q48 0 83 -30q34 -29 34 -71q0 -31 -34 -53q-35 -22 -83 -22v55q15 0 26 7q11 8 11 18q-2 9 -11 15t-21 6q-14 0 -24 -12t-10 -29q0 -30 16 -57q17 -27 45 -43
q28 16 69 16l28 -61q-49 0 -84 -21q-35 -22 -35 -52q0 -21 18 -36t44 -15q46 0 85 21q40 22 61 59v-90q-21 -31 -60 -48q-38 -17 -85 -17q-57 0 -98 37q-40 37 -40 89z" />
    <glyph glyph-name="uni0928_uni094D.half" horiz-adv-x="292" 
d="M126 159q-22 0 -66 56q-43 56 -43 85q0 12 6 21q7 9 16 9h273v-75h-141q-7 0 -13 -6q-5 -5 -5 -13v-54q0 -10 -8 -16q-8 -7 -19 -7zM-10 427v73h312v-73h-312z" />
    <glyph glyph-name="uni0929_uni094D.half" horiz-adv-x="292" 
d="M126 159q-22 0 -66 56q-43 56 -43 85q0 12 6 21q7 9 16 9h273v-75h-141q-7 0 -13 -6q-5 -5 -5 -13v-54q0 -10 -8 -16q-8 -7 -19 -7zM-10 427v73h312v-73h-312zM167 -36l-50 45l50 46l50 -46z" />
    <glyph glyph-name="uni092A_uni094D.half" horiz-adv-x="262" 
d="M-10 427v73h282v-73h-155v-145q0 -27 19 -47q19 -19 46 -19q23 0 49 19q27 20 51 54v-98q-16 -24 -43 -37q-26 -13 -57 -13q-60 0 -103 41q-42 42 -42 100v145h-47z" />
    <glyph glyph-name="uni092B_uni094D.half" horiz-adv-x="455" 
d="M-10 427v73h475v-73h-137v-91q13 18 36 29q23 10 52 10q17 0 32 -5t27 -15v-87q-18 16 -34 24q-15 8 -25 8q-25 0 -48 -13q-24 -13 -40 -37v-250h-80v172q-11 -16 -32 -25q-22 -9 -48 -9q-53 0 -91 40q-38 39 -38 95v154h-49zM168 213q21 0 42 14q21 13 38 37v163h-129
v-154q0 -25 14 -42q15 -18 35 -18z" />
    <glyph glyph-name="uni092C_uni094D.half" horiz-adv-x="268" 
d="M193 71q-68 0 -116 44t-48 106q0 65 51 110q52 46 124 46q30 0 50 -3q20 -4 29 -10l-15 -76q-24 14 -61 14q-17 0 -30 -3q-13 -4 -21 -10l132 -95v-78q-12 -21 -38 -33q-25 -12 -57 -12zM193 146q17 0 32 5t27 15l-133 91q-5 -6 -7 -15q-3 -9 -3 -21q0 -31 25 -53
q24 -22 59 -22zM-10 427v73h288v-73h-288z" />
    <glyph glyph-name="uni092D_uni094D.half" horiz-adv-x="341" 
d="M245 427v73h106v-73h-106zM6 438q0 45 32 76q32 32 77 32q46 0 78 -37q32 -36 32 -88v-146h136v-75h-136v-59q0 -13 -8 -23q-8 -9 -20 -9q-22 0 -70 56t-48 82q0 12 8 20t19 8h39v146q0 21 -9 35q-9 15 -21 15t-21 -9q-8 -10 -8 -23q0 -15 5 -25q6 -11 13 -11v-60
q-41 0 -69 28q-29 28 -29 67z" />
    <glyph glyph-name="uni092E_uni094D.half" horiz-adv-x="297" 
d="M-10 427v73h317v-73h-145v-152h155v-75h-155v-56q0 -10 -8 -16q-8 -7 -19 -7q-29 0 -74 47q-44 46 -44 77q0 12 11 21q10 9 25 9h29v152h-92z" />
    <glyph glyph-name="uni092F_uni094D.half" horiz-adv-x="304" 
d="M-10 427v73h324v-73h-117q16 -18 24 -38t8 -39q0 -54 -34 -90q-34 -37 -80 -33q8 -31 37 -50q29 -20 67 -20q25 0 53 14q27 13 52 38v-82q-22 -22 -49 -33q-27 -12 -56 -12q-83 0 -141 61q-59 61 -59 148l41 -9q37 0 63 21q26 22 26 52q0 21 -10 40q-11 19 -29 32h-120z
" />
    <glyph glyph-name="glyph166" horiz-adv-x="220" 
d="M-10 427v73h80q-24 42 -24 68q0 59 49 101q50 42 120 42q91 0 166 -56q76 -55 109 -146h-77q-27 58 -81 93q-54 34 -117 34q-37 0 -63 -20t-26 -48q0 -12 8 -30q7 -17 22 -38h74v-73h-80v-427h-80v427h-80z" />
    <glyph glyph-name="glyph167" horiz-adv-x="220" 
d="M-10 427v73h80q-9 11 -14 26t-5 33q0 67 68 114t164 47q126 0 258 -54q132 -55 254 -157h-105q-236 136 -404 136q-64 0 -110 -26q-45 -27 -45 -64q0 -14 8 -29q8 -14 22 -26h69v-73h-80v-427h-80v427h-80z" />
    <glyph glyph-name="uni0932_uni094D.half" horiz-adv-x="389" 
d="M205 0q-80 37 -128 96q-47 58 -47 119q0 58 45 99q44 41 107 41q32 0 60 -13q29 -13 49 -37q20 24 51 37t67 13v-73q-32 0 -65 -35q-32 -35 -53 -92l-64 36q10 38 32 64q-12 12 -32 19q-20 6 -45 6q-30 0 -51 -19t-21 -46q0 -46 37 -87q38 -42 99 -64zM-10 427v73h409
v-73h-409z" />
    <glyph glyph-name="uni0933_uni094D.half" horiz-adv-x="503" 
d="M174 41q-59 0 -100 47q-42 46 -42 112q0 63 42 107q41 45 100 45q35 0 64 -19t40 -51q11 32 40 51q28 19 63 19q59 0 100 -44q42 -44 42 -106q0 -65 -40 -111t-97 -46q-37 0 -69 23q-31 22 -44 59q-18 -39 -45 -63q-27 -23 -54 -23zM173 116q17 0 33 24t22 60
q-6 33 -21 55q-16 22 -34 22q-25 0 -43 -23q-18 -22 -18 -54q0 -35 18 -59q18 -25 43 -25zM386 120q24 0 40 23q17 24 17 57q0 32 -18 54q-18 23 -43 23q-20 0 -36 -22q-17 -22 -23 -55q6 -35 24 -57q18 -23 39 -23zM-10 427v73h523v-73h-523z" />
    <glyph glyph-name="uni0934_uni094D.half" horiz-adv-x="502" 
d="M165 41q-55 0 -93 49q-39 49 -39 119q0 59 39 101q38 42 93 42q40 0 71 -19q32 -19 43 -51q11 32 43 51q31 19 70 19q54 0 92 -42t38 -101q0 -68 -38 -116t-92 -48q-40 0 -72 23q-33 22 -46 59q-18 -39 -48 -63q-29 -23 -61 -23zM174 116q17 0 33 24t22 60q-6 33 -21 55
q-16 22 -34 22q-25 0 -43 -23q-18 -22 -18 -54q0 -35 18 -59q18 -25 43 -25zM392 120q21 0 35 23q15 24 15 57q0 32 -17 54q-18 23 -42 23q-20 0 -36 -22q-17 -22 -23 -55q6 -35 25 -57q20 -23 43 -23zM-10 427v73h522v-73h-522zM275 -36l-50 45l50 46l50 -46z" />
    <glyph glyph-name="uni0935_uni094D.half" horiz-adv-x="275" 
d="M195 86q-69 0 -117 44q-49 44 -49 106q0 63 49 107q49 45 119 45q45 0 80 -20l-18 -69q-26 14 -64 14q-36 0 -61 -23q-25 -22 -25 -54q0 -31 25 -53t61 -22q30 0 56 17q27 17 44 46v-103q-20 -17 -46 -26t-54 -9zM-10 427v73h295v-73h-295z" />
    <glyph glyph-name="uni0936_uni094D.half" horiz-adv-x="357" 
d="M244 -15l-224 206l55 54l41 -36q44 0 77 27q34 27 41 69q-13 -11 -28 -17t-30 -6q-55 0 -94 33q-39 34 -39 81q0 48 38 81q39 34 93 34q66 0 106 -48t40 -127q0 -68 -40 -119t-101 -62l123 -110zM175 357q22 0 38 10t16 24q0 19 -16 32t-38 13t-37 -12q-15 -11 -15 -28
q0 -16 15 -28q15 -11 37 -11z" />
    <glyph glyph-name="uni0937_uni094D.half" horiz-adv-x="264" 
d="M-10 427v73h284v-73h-135l145 -167v-92q-46 -32 -91 -32q-64 0 -109 35t-45 84v172h-49zM193 211q16 0 29 4t21 12l-124 137v-100q0 -22 22 -37q21 -16 52 -16z" />
    <glyph glyph-name="uni0938_uni094D.half" horiz-adv-x="379" 
d="M-10 427v73h399v-73h-127v-118q0 -41 -23 -71q-24 -29 -57 -29l122 -168l-64 -41l-228 313l69 51q24 -42 38 -60q18 -22 30 -22q14 0 23 11q10 10 10 25v109h-192zM308 227l-46 75h137v-75h-91z" />
    <glyph glyph-name="uni0939_uni094D.half" horiz-adv-x="445" 
d="M-10 427v73h465v-73h-85v-109h-198q-18 0 -30 -6q-13 -7 -13 -16q0 -5 6 -11q7 -5 17 -9h278v-75h-188q-48 0 -81 -25q-34 -26 -34 -62q0 -48 65 -81q66 -34 158 -34l-9 -71q-122 0 -208 54t-86 131q0 33 16 60q17 27 44 40q-27 12 -42 35q-16 23 -16 49q0 40 36 68
t87 28h118v34h-300z" />
    <glyph glyph-name="uni0958_uni094D.half" horiz-adv-x="455" 
d="M-10 427v73h475v-73h-127v-91q17 17 39 27q21 9 43 9q26 0 55 -17v-73q-9 7 -23 11t-32 4q-26 0 -48 -15t-34 -41v-241h-80v127q-16 -16 -37 -25q-20 -9 -41 -9q-63 0 -107 42t-44 101q0 61 45 105q45 43 108 43q31 0 60 -10l-11 -70q-17 5 -48 5t-52 -21
q-22 -22 -22 -52q0 -28 21 -48t50 -20q23 0 44 13q21 14 34 37v209h-268zM144 -39l-50 47l50 47l50 -47z" />
    <glyph glyph-name="uni0959_uni094D.half" horiz-adv-x="498" 
d="M-10 427v73h518v-73h-254v-107q0 -40 -23 -69q-24 -28 -57 -28h-3q-27 0 -30 4q21 -56 80 -100t115 -44q39 0 86 22t96 63v-82q-45 -38 -91 -58t-88 -20q-46 0 -95 24t-95 68q-79 76 -127 209l60 36q16 -28 30 -43q14 -16 24 -16q16 0 27 9q11 10 11 23v109h-184z
M437 168q-59 0 -100 32q-42 32 -42 78q0 48 41 82q40 34 98 34q37 0 70 -12l-26 -70q-16 7 -42 7q-25 0 -43 -12q-18 -13 -18 -30q0 -14 18 -24t43 -10t47 9q21 9 35 25v-78q-12 -15 -34 -23q-21 -8 -47 -8zM79 -36l-50 47l50 48l50 -48z" />
    <glyph glyph-name="uni095A_uni094D.half" horiz-adv-x="226" 
d="M-10 427v73h246v-73h-60v-245q0 -14 -8 -25q-7 -10 -18 -10q-33 0 -84 51q-50 51 -50 84q0 10 6 18q6 7 15 9h36q10 2 16 8q7 7 7 15v95h-106zM114 -39l-50 48l50 47l50 -47z" />
    <glyph glyph-name="uni095B_uni094D.half" horiz-adv-x="446" 
d="M248 85q-65 0 -129 65q-64 66 -103 173l62 32q32 -88 79 -141q46 -54 91 -54q22 0 38 14t16 33t-21 52q-19 32 -60 80h245v-75h-109q12 -14 19 -29q6 -15 6 -28q0 -51 -39 -86q-39 -36 -95 -36zM-10 427v73h466v-73h-466zM202 -40l-50 48l50 47l50 -47z" />
    <glyph glyph-name="uni095E_uni094D.half" horiz-adv-x="459" 
d="M-10 427v73h479v-73h-137v-91q13 18 36 29q23 10 52 10q17 0 32 -5t27 -15v-87q-18 16 -34 24q-15 8 -25 8q-25 0 -48 -13q-24 -13 -40 -37v-250h-80v172q-11 -16 -32 -25q-22 -9 -48 -9q-53 0 -91 40q-38 39 -38 95v154h-53zM172 213q21 0 42 14q21 13 38 37v163h-129
v-154q0 -25 14 -42q15 -18 35 -18zM118 -39l-55 50l55 50l54 -50z" />
    <glyph glyph-name="uni0936_uni094D.half_uni0930_uni094D.blwf.vatu" horiz-adv-x="327" 
d="M407 241v-68l-222 91q-33 -28 -127 -82l-46 63l114 69q-28 16 -44 42t-16 54q0 48 34 81q33 34 81 34t82 -34q34 -33 34 -81q0 -24 -15 -51q-16 -26 -44 -50zM185 355q15 13 24 27q8 14 8 27q0 17 -11 29q-10 12 -25 12q-14 0 -25 -12q-10 -12 -10 -29q0 -13 10 -27
q11 -14 29 -27z" />
    <glyph glyph-name="uni0924_uni094D.half_uni0930_uni094D.blwf.vatu" horiz-adv-x="293" 
d="M114 25l-41 60l225 143q-30 36 -61 56t-57 20q-21 0 -53 -15q-33 -15 -74 -44l-41 65q48 34 91 51q43 18 76 18q40 0 90 -35q51 -34 104 -97v-55zM-10 427v73h313v-73h-313z" />
    <glyph glyph-name="uni0924_uni094D.half_uni0924_uni094D.half.pres" horiz-adv-x="297" 
d="M221 9q-69 58 -108 118q-38 60 -38 110q0 15 6 29t17 25h-86v64h365v-64h-165q-24 0 -40 -16q-17 -16 -17 -39q0 -40 30 -87q31 -48 86 -94zM-10 427v73h317v-73h-317z" />
    <glyph glyph-name="uni0915_uni094D_uni0937.akhn_uni094D.half" horiz-adv-x="411" 
d="M277 -18l-64 73q-75 0 -129 40q-53 40 -53 96q0 39 24 76q25 37 67 61q-25 14 -40 36q-14 22 -14 45q0 46 35 78q36 33 86 33q51 0 86 -33q36 -32 36 -78q0 -26 -14 -48t-37 -33q45 -21 62 -21q35 0 63 11q29 12 46 32v-82q-17 -17 -45 -27q-28 -9 -63 -9q-34 0 -71 14
t-75 40q-30 -14 -48 -40t-18 -55q0 -27 26 -45q26 -19 63 -19q0 30 17 52q18 21 42 21q22 0 38 -16t16 -39q0 -18 -8 -34q-8 -17 -23 -29l49 -55zM186 355q21 10 33 24q12 15 12 30t-12 25q-13 11 -30 11t-29 -11q-12 -10 -12 -25q0 -18 10 -33q11 -15 28 -21zM340 427v73
h81v-73h-81z" />
    <glyph glyph-name="uni091C_uni094D_uni091E.akhn_uni094D.half" horiz-adv-x="377" 
d="M33 100q0 19 13 33q14 14 33 14q22 0 45 -12q22 -13 41 -35q43 0 74 21q31 22 31 52q0 10 -6 18q-7 7 -16 7q-15 0 -44 -8q-28 -8 -43 -8q-30 0 -77 47q-46 47 -46 78q0 36 25 61q24 25 59 25h275v-75h-250q-12 0 -21 -4q-8 -4 -8 -9q0 -12 16 -30t26 -18q15 0 42 8
q28 8 43 8q43 0 74 -28q31 -29 31 -69q0 -47 -36 -84q-35 -37 -90 -47l59 -36l-50 -54q-45 26 -100 81q-41 0 -71 19q-29 18 -29 45zM-10 427v73h397v-73h-397z" />
    <glyph glyph-name="uni0940_uni0902.abvs" horiz-adv-x="220" 
d="M124 629v100h100v-100h-100zM70 0v427h-80v73h80q-12 69 -49 115q-37 45 -81 45q-23 0 -39 -16t-16 -38q0 -27 16 -53q16 -27 45 -47h-92q-23 13 -36 40q-13 26 -13 59q0 54 40 92t96 38q71 0 130 -67q58 -66 76 -168h83v-73h-80v-427h-80z" />
    <glyph glyph-name="uni0940_uni0930_uni094D.rphf.abvs" horiz-adv-x="220" 
d="M70 0v427h-80v73h80q-6 70 -45 118q-39 47 -90 47q-21 0 -35 -19q-15 -18 -15 -45q0 -24 15 -48t41 -42h-82q-25 14 -40 40q-14 25 -14 54q0 51 38 88q39 36 93 36q37 0 71 -18q34 -17 59 -49q15 27 40 42q25 16 54 16q13 0 31 -7q18 -8 38 -22l-14 -55q-25 9 -55 9
q-18 0 -31 -14t-13 -33q9 -8 17 -33q6 -22 14 -65h83v-73h-80v-427h-80z" />
    <glyph glyph-name="uni0940_uni0930_uni094D.rphf.abvs_uni0902.abvs" horiz-adv-x="220" 
d="M170 536v75h80v-75h-80zM70 0v427h-80v73h80q-6 70 -45 118q-39 47 -90 47q-21 0 -35 -19q-15 -18 -15 -45q0 -24 15 -48t41 -42h-82q-25 14 -40 40q-14 25 -14 54q0 51 38 88q39 36 93 36q37 0 71 -18q34 -17 59 -49q20 36 48 57t56 21q13 0 31 -7q18 -8 38 -22l-14 -55
q-25 9 -55 9q-22 0 -38 -20q-16 -19 -16 -47q9 -8 17 -33q6 -22 14 -65h83v-73h-80v-427h-80z" />
    <glyph glyph-name="glyph189" horiz-adv-x="220" 
d="M70 0v427h-80v73h80q-44 63 -115 99q-70 36 -150 36q-33 0 -57 -18q-23 -17 -23 -42q0 -19 9 -39q9 -21 26 -41h-85q-15 17 -22 38q-8 21 -8 42q0 56 47 95q47 40 113 40q104 0 196 -56q93 -57 149 -154h80v-73h-80v-427h-80z" />
    <glyph glyph-name="glyph190" horiz-adv-x="220" 
d="M70 0v427h-80v73h80q-44 63 -115 99q-70 36 -150 36q-33 0 -57 -18q-23 -17 -23 -42q0 -19 9 -39q9 -21 26 -41h-85q-15 17 -22 38q-8 21 -8 42q0 56 47 95q47 40 113 40q104 0 196 -56q93 -57 149 -154h80v-73h-80v-427h-80zM97 639v75h80v-75h-80z" />
    <glyph glyph-name="glyph191" horiz-adv-x="220" 
d="M70 0v427h-80v73h80q-44 63 -115 99q-70 36 -150 36q-33 0 -57 -18q-23 -17 -23 -42q0 -19 9 -39q9 -21 26 -41h-85q-15 17 -22 38q-8 21 -8 42q0 56 47 95q47 40 113 40q69 0 130 -20q60 -21 106 -59q15 40 47 65q32 24 70 24q13 0 30 -7q18 -8 38 -22l-14 -55
q-25 9 -54 9q-23 0 -39 -16t-16 -38q0 -14 4 -28q23 -29 43 -63h80v-73h-80v-427h-80z" />
    <glyph glyph-name="glyph192" horiz-adv-x="220" 
d="M168 536v75h80v-75h-80zM70 0v427h-80v73h80q-44 63 -113 99t-147 36q-33 0 -57 -18q-23 -17 -23 -42q0 -19 9 -39q9 -21 26 -41h-85q-15 17 -22 38q-8 21 -8 42q0 56 47 95q47 40 113 40t126 -20q59 -21 105 -59q15 40 47 65q32 24 70 24q13 0 30 -7q18 -8 38 -22
l-14 -55q-25 9 -54 9q-23 0 -39 -16t-16 -38q0 -14 4 -28q23 -29 43 -63h80v-73h-80v-427h-80z" />
    <glyph glyph-name="uni0930_uni094D.blwf_uni0941.blws" 
d="M-163 -260q-65 0 -117 17t-83 49l36 35q33 -29 76 -45q42 -15 88 -15q38 0 64 13q27 14 27 33q0 14 -11 23q-11 10 -26 10q-16 0 -32 -10q-15 -10 -27 -27l-41 26q18 27 45 42q26 15 55 15q43 0 74 -23t31 -56q0 -36 -47 -62q-46 -25 -112 -25zM-290 -55l181 56l182 -61
l-27 -42l-155 52l-163 -52z" />
    <glyph glyph-name="uni0930_uni094D.blwf_uni0942.blws" 
d="M-108 -242q-47 0 -80 21t-33 50q0 33 33 56t80 23q67 0 134 -33q68 -32 126 -92l-37 -25q-48 50 -106 77t-117 27q-22 0 -38 -10q-16 -9 -16 -23q0 -12 16 -21q16 -8 38 -8v-42zM-291 -64l182 66l181 -66l-13 -42l-168 62l-169 -66z" />
    <glyph glyph-name="glyph195" 
d="M-133 -280q-131 0 -233 59l26 52q80 -56 207 -56q39 0 66 19q28 18 28 45q0 17 -14 29q-15 12 -35 12q-13 0 -29 -7q-15 -7 -31 -20l-35 46q23 19 48 30q24 10 47 10q48 0 83 -29q34 -30 34 -71q0 -49 -47 -84q-48 -35 -115 -35z" />
    <glyph glyph-name="glyph196" 
d="M-84 -255q-48 0 -83 27q-34 26 -34 64q0 39 34 67t82 28q58 0 129 -54t138 -150l-46 -32q-60 86 -118 134q-59 48 -103 48q-20 0 -34 -12t-14 -29q0 -15 14 -25q15 -11 35 -11q22 0 46 14l23 -50q-33 -19 -69 -19z" />
    <glyph glyph-name="glyph198" horiz-adv-x="472" 
d="M-115 427v73h597v-73h-80v-427h-80v105q-16 -19 -46 -30t-68 -11q-77 0 -131 50q-54 51 -54 122q55 0 93 13q39 14 39 33q0 14 -27 24t-65 10q-26 0 -78 -12q-51 -13 -77 -13v73q26 0 78 14q51 13 77 13q71 0 122 -32q50 -32 50 -77q0 -38 -39 -64q-38 -27 -93 -27
q9 -23 37 -38q29 -14 68 -14t70 14q30 14 44 38v236h-437z" />
    <glyph glyph-name="uni0930_uni094D_uni200C.half" horiz-adv-x="220" 
d="M145 195q-59 0 -130 41v73q84 -39 130 -39q34 0 59 5q24 5 36 15v-81q-38 -14 -95 -14zM-10 427v73h240v-73h-240z" />
    <glyph glyph-name="uni0915_uni0930_uni094D.blwf.vatu" horiz-adv-x="596" 
d="M-10 427v73h616v-73h-253v-86q16 19 40 29t53 10q48 0 82 -37q34 -36 34 -88q0 -58 -24 -110q-25 -53 -69 -90l-59 54q34 29 53 66t19 75q0 23 -15 39q-14 16 -35 16t-42 -16t-37 -44v-245h-80v121l-213 -140l-37 55l125 79q-44 15 -71 50t-27 76q0 63 45 107
q45 45 109 45q12 0 34 -8v-69q-11 2 -33 2q-31 0 -53 -23q-22 -22 -22 -54q0 -28 18 -48t43 -20q21 0 43 12q21 12 39 33v209h-283z" />
    <glyph glyph-name="uni0916_uni0930_uni094D.blwf.vatu" horiz-adv-x="639" 
d="M-10 427v73h659v-73h-80v-427h-80v68l-263 -136l-28 45l85 42q-77 9 -149 88q-72 78 -117 202l59 41q5 -27 20 -44q15 -18 34 -18q12 0 20 8q8 7 8 18v113h-168zM312 79q53 0 99 17t78 49v30q-9 -9 -26 -13q-17 -5 -40 -5q-56 0 -95 35q-40 35 -40 85q0 52 39 88
q39 37 95 37q26 0 47 -10l-12 -70q-15 5 -35 5q-22 0 -38 -15q-16 -14 -16 -35q0 -19 15 -32t37 -13t41 10q18 9 28 26v159h-251v-109q0 -39 -18 -67t-44 -28q-24 0 -41 8q21 -56 76 -104q56 -48 101 -48z" />
    <glyph glyph-name="uni0917_uni0930_uni094D.blwf.vatu" horiz-adv-x="441" 
d="M-10 427v73h461v-73h-80v-427h-80v112l-235 -121l-32 60l267 132v244h-111v-218q0 -24 -9 -42q-9 -17 -21 -17q-21 0 -74 55t-53 77q0 11 7 19q6 8 16 8h36q7 0 13 9q5 10 5 23v86h-110z" />
    <glyph glyph-name="uni091C_uni0930_uni094D.blwf.vatu" horiz-adv-x="591" 
d="M-10 427v73h611v-73h-80v-427h-80v79l-264 -138l-32 60l296 148v115h-86q10 -12 16 -26q5 -13 5 -26q0 -51 -41 -86q-42 -36 -100 -36q-76 0 -137 67q-62 67 -80 170l69 23q14 -80 57 -133q44 -52 96 -52q23 0 40 14q16 14 16 34q0 19 -19 51q-19 33 -54 75h218v88h-451z
" />
    <glyph glyph-name="uni091D_uni0930_uni094D.blwf.vatu" horiz-adv-x="619" 
d="M-10 427v73h639v-73h-80v-427h-80v97l-127 -92l-32 40l159 109v36q-15 -11 -37 -16q-22 -6 -49 -6q-17 0 -42 9q0 -50 -34 -88q-33 -39 -85 -48q50 -35 83 -41l-50 -50q-55 31 -104 73q-48 0 -83 20q-34 20 -34 48q0 22 16 38t39 16q22 0 45 -12q22 -12 40 -33
q37 7 62 27q24 21 24 46q0 6 -12 11q-12 4 -29 4q-8 0 -22 -8q-15 -7 -23 -7q-39 0 -86 46q-48 46 -48 84q0 36 30 61q31 25 74 25h69v38h-223zM383 243q33 0 56 7q23 6 30 18v159h-176v-113h-149q-10 0 -17 -4t-7 -10q0 -15 15 -34q14 -18 26 -18q13 0 38 8q25 7 38 7
q25 0 73 -10t73 -10z" />
    <glyph glyph-name="uni0924_uni0930_uni094D.blwf.vatu" horiz-adv-x="476" 
d="M-10 427v73h496v-73h-80v-427h-80v164l-212 -139l-46 70l230 133q-30 36 -61 56t-57 20q-21 0 -53 -15q-33 -15 -74 -44l-41 65q48 34 92 51q44 18 80 18q27 0 64 -22q37 -23 78 -64v134h-336z" />
    <glyph glyph-name="uni0926_uni0930_uni094D.blwf.vatu" horiz-adv-x="431" 
d="M-10 427v73h451v-73h-79v-152h-175q-32 0 -55 -19t-23 -46q0 -49 45 -84q44 -35 107 -35q-8 14 -8 29q0 28 20 48t49 20q31 0 52 -22q22 -21 22 -52q0 -22 -12 -41q-13 -20 -34 -32l47 -101l-70 -33l-49 116l-201 -123l-36 55l132 78q-65 24 -104 72q-40 48 -40 104
q0 58 45 100q45 41 108 41h100v77h-292z" />
    <glyph glyph-name="uni092A_uni0930_uni094D.blwf.vatu" horiz-adv-x="462" 
d="M-10 427v73h482v-73h-80v-427h-80v161l-247 -170l-41 54l141 96q-45 15 -72 52q-28 36 -28 80v154h-75zM220 205q24 0 48 13t44 37v172h-167v-163q0 -24 22 -42q22 -17 53 -17z" />
    <glyph glyph-name="uni092B_uni0930_uni094D.blwf.vatu" horiz-adv-x="613" 
d="M-10 427v73h633v-73h-276v-95q13 18 38 28q26 10 59 10q56 0 95 -42t39 -101q0 -41 -19 -90t-56 -101l-73 46q33 33 50 70q18 38 18 75q0 28 -20 48t-48 20q-20 0 -42 -16q-22 -15 -41 -43v-236h-80v142l-194 -156l-42 50l133 107q-45 6 -75 43t-30 87v154h-69zM194 209
q18 0 38 16q19 16 35 43v159h-128v-154q0 -27 16 -45q16 -19 39 -19z" />
    <glyph glyph-name="uni092C_uni0930_uni094D.blwf.vatu" horiz-adv-x="448" 
d="M-10 427v73h468v-73h-80v-427h-80v113l-230 -122l-37 50l119 64q-47 12 -76 48q-30 37 -30 83q0 69 51 117q51 49 123 49q9 0 27 -8q17 -7 43 -22l-26 -58q-19 13 -46 13q-21 0 -35 -8l117 -100v208h-308zM207 159q21 0 37 5q17 4 27 13l-132 114q-7 -9 -11 -23t-4 -32
q0 -32 24 -54q25 -23 59 -23z" />
    <glyph glyph-name="uni092D_uni0930_uni094D.blwf.vatu" horiz-adv-x="513" 
d="M283 427v73h240v-73h-80v-427h-80v107l-194 -156l-42 50l236 187v12h-138v-34q0 -13 -8 -23q-7 -9 -18 -9q-22 0 -70 46t-48 67q0 12 8 20t19 8h37v151q0 17 -8 28q-9 12 -21 12t-20 -9q-8 -10 -8 -23q0 -15 10 -25q9 -11 23 -11v-65q-47 0 -80 30q-33 29 -33 71
q0 44 31 76q31 31 74 31q46 0 79 -34q33 -33 33 -81v-151h138v152h-80z" />
    <glyph glyph-name="uni092E_uni0930_uni094D.blwf.vatu" horiz-adv-x="469" 
d="M-10 427v73h489v-73h-80v-427h-80v113l-252 -137l-42 60l294 147v15h-156v-43q0 -8 -6 -14t-15 -6q-19 0 -69 46q-49 45 -49 63q0 12 6 21q7 8 16 8h37v154h-93zM163 273h156v154h-156v-154z" />
    <glyph glyph-name="uni0935_uni0930_uni094D.blwf.vatu" horiz-adv-x="457" 
d="M-10 427v73h477v-73h-80v-427h-80v120l-250 -129l-37 55l131 63q-44 14 -71 49t-27 78q0 64 47 110q47 45 113 45q12 0 33 -8q21 -9 49 -25l-24 -59q-24 17 -56 17q-34 0 -58 -23q-24 -24 -24 -57q0 -30 22 -51q21 -21 52 -21q32 0 59 14q27 15 41 40v209h-317z" />
    <glyph glyph-name="uni0938_uni0930_uni094D.blwf.vatu" horiz-adv-x="601" 
d="M-10 427v73h621v-73h-80v-427h-80v129l-138 -47l-18 54l156 52v30h-153l-32 75h185v134h-193v-112q0 -44 -24 -75q-25 -31 -59 -31l115 -177l-68 -32l-209 318l64 41q23 -41 36 -56q15 -21 27 -21q16 0 27 11q11 10 11 25v109h-188z" />
    <glyph glyph-name="uni0939_uni0930_uni094D.blwf.vatu" horiz-adv-x="441" 
d="M-10 427v73h461v-73h-81v-108h-203q-16 0 -28 -7q-11 -7 -11 -17q0 -6 11 -15q9 -6 31 -19q38 14 73 14q68 0 115 -41q48 -40 48 -98q0 -28 -8 -51q-8 -24 -22 -38l-73 37q11 11 17 25t6 29q0 13 -5 23q-4 10 -12 13l-73 -119l-54 31l64 115q-49 0 -83 -26
q-35 -26 -35 -63q0 -42 66 -72q67 -30 161 -30l-13 -78q-122 0 -208 52q-86 53 -86 127q0 36 16 66t44 46q-28 16 -44 40q-16 23 -16 48q0 34 29 59q30 24 71 24h142v33h-300z" />
    <glyph glyph-name="glyph216" horiz-adv-x="507" 
d="M357 0v182l-173 76l-127 -72l-46 55l118 68q-30 17 -47 44t-17 56q0 50 35 86q35 35 84 35q50 0 85 -35q35 -36 35 -86q0 -30 -16 -57q-17 -27 -45 -43l114 -50v168h-28v73h188v-73h-80v-427h-80zM184 350q18 9 29 23q11 15 11 32q0 21 -12 35q-11 15 -28 15
q-16 0 -28 -15q-11 -14 -11 -35q0 -18 11 -33q10 -16 28 -22z" />
    <glyph glyph-name="uni0915_uni094D.half_uni0915.pres" horiz-adv-x="618" 
d="M-10 427v73h638v-73h-269v-89q11 19 36 31q25 11 57 11q50 0 86 -34q35 -35 35 -83q0 -23 -8 -42t-22 -31q14 -10 22 -28t8 -41q0 -34 -28 -64q-29 -31 -75 -48l-50 55q32 6 52 22q21 17 21 37q0 13 -15 23q-14 9 -35 9q-22 0 -44 -12t-40 -34v-109h-80v82
q-20 -24 -49 -37t-61 -13q-52 0 -89 31t-37 74q0 21 13 40q13 20 36 33q-22 10 -36 30q-13 20 -13 42q0 50 40 86q40 35 97 35q50 0 93 -25l-25 -64q-30 14 -69 14q-23 0 -40 -13q-16 -14 -16 -33q0 -15 19 -26t46 -11q23 0 46 10q24 9 45 27v145h-289zM170 107q31 0 60 14
q28 13 49 38v55q-10 -12 -38 -23q-29 -11 -71 -18q-19 0 -33 -11q-14 -10 -14 -25q0 -12 14 -21t33 -9zM359 189q16 19 38 30t46 11l32 -5q8 5 13 15t5 23q0 17 -12 30q-12 12 -29 12q-30 0 -55 -16q-25 -17 -38 -44v-56z" />
    <glyph glyph-name="uni0915_uni094D.half_uni0924.pres" horiz-adv-x="641" 
d="M-10 427v73h661v-73h-261v-109q12 12 30 19q18 6 40 6q62 0 105 -42q44 -42 44 -102q0 -44 -27 -94q-27 -51 -76 -100l-55 54q37 37 58 74q20 37 20 67q0 28 -20 48t-49 20q-18 0 -37 -12q-18 -12 -33 -33v-223h-80v245h-100q-28 -5 -47 -26q-18 -21 -18 -49
q0 -36 20 -68t55 -52l-46 -50q-51 29 -80 73t-29 91q0 27 11 49q10 21 29 32h-87v75h292v107h-320z" />
    <glyph glyph-name="uni0915_uni094D.half_uni0932.pres" horiz-adv-x="595" 
d="M-10 427v73h615v-73h-263v-99q14 17 36 27q22 9 47 9q56 0 95 -35q40 -36 40 -86q0 -41 -24 -79q-25 -38 -67 -62l-48 57q27 16 43 38t16 44q0 20 -16 34t-38 14q-25 0 -48 -14q-22 -14 -36 -38v-186q19 19 41 30q21 10 42 10q53 0 91 -33q37 -33 37 -79q0 -40 -37 -77
q-37 -38 -97 -60l-39 64q42 15 67 35q26 20 26 38q0 15 -15 26t-37 11q-23 0 -54 -24q-30 -25 -60 -68l-82 41l18 23q-13 13 -30 21q-17 7 -34 7q-23 0 -40 -11q-16 -10 -16 -25q0 -24 30 -44q30 -21 76 -29l-22 -65q-71 13 -118 51q-46 39 -46 86q0 46 39 79t95 33
q45 0 85 -28v96q-15 -15 -36 -24q-21 -8 -45 -8q-62 0 -105 37q-44 37 -44 90t44 90q43 37 105 37q37 0 66 -17l-22 -63q-28 5 -45 5q-28 0 -48 -15t-20 -37t20 -37t48 -15t50 10q22 11 32 29v186h-272z" />
    <glyph glyph-name="uni0915_uni094D.half_uni0935.pres" horiz-adv-x="609" 
d="M-10 427v73h629v-73h-265v-77q17 20 40 32q23 11 47 11q56 0 95 -40q40 -41 40 -98q0 -43 -24 -94q-24 -52 -70 -106l-63 50q37 44 57 83t20 67q0 26 -16 45q-16 18 -38 18q-30 0 -54 -21q-25 -21 -34 -55v-242h-80v54q-22 -26 -52 -40t-64 -14q-46 0 -78 28
q-33 29 -33 69q0 25 14 48q15 24 40 38q-24 6 -39 31q-15 26 -15 59q0 49 40 83q40 35 96 35q52 0 76 -14l-16 -63q-21 9 -61 9q-23 0 -39 -14q-16 -15 -16 -35q0 -22 17 -38q16 -16 40 -16q25 0 49 17t41 46v144h-284zM156 75q30 0 61 17q31 18 57 49v50q-18 -22 -45 -34
q-26 -12 -55 -12q-20 -2 -33 -16q-14 -14 -14 -33q0 -9 8 -15q9 -6 21 -6z" />
    <glyph glyph-name="uni0917_uni094D.half_uni0928.pres" horiz-adv-x="461" 
d="M-10 427v73h481v-73h-80v-427h-80v145l-109 -54q-2 -1 -3 -3q-1 -3 -1 -6q0 -9 4 -18l8 -16q6 -12 6 -16q0 -14 -7 -23q-6 -10 -16 -10q-50 0 -100 31t-50 61q0 6 9 15q8 8 23 17l236 104v200h-129v-182q0 -22 -10 -38t-24 -16q-32 0 -80 44q-48 45 -48 74q0 7 8 13
q8 5 20 5h36q7 0 13 7q5 6 5 16v77h-112z" />
    <glyph glyph-name="uni0919_uni094D.half_uni0915.pres" horiz-adv-x="572" 
d="M-10 427v73h592v-73h-186v-109h-189q-14 0 -23 -5q-10 -6 -10 -13q0 -13 26 -28q27 -16 48 -16q17 0 50 10q32 11 49 11q46 0 79 -25t33 -61q0 -45 -39 -80q-39 -36 -99 -47v-65q18 16 41 24q22 8 45 8q42 0 72 -22q30 -21 30 -52q0 -30 -34 -55q-35 -26 -87 -35l-27 50
q32 6 52 17q21 12 21 24q0 7 -8 13q-8 5 -19 5q-21 0 -43 -9q-22 -10 -43 -27v-98h-80v70q-12 -10 -36 -16q-23 -5 -55 -5q-44 0 -76 21q-31 22 -31 52q0 28 29 48q28 20 69 20h46l9 -50h-37q-15 0 -25 -5q-11 -6 -11 -13q0 -10 6 -16q6 -7 15 -7q36 0 62 9q26 10 35 26v88
q-61 0 -121 27q-60 26 -109 75l41 48q48 -40 107 -62q58 -21 121 -21q41 0 70 15t29 36q0 11 -10 19q-11 8 -25 8q-17 0 -48 -9q-32 -9 -49 -9q-54 0 -103 36q-50 35 -50 74q0 38 33 65q34 27 81 27h108v34h-326zM507 255q-20 0 -35 14q-14 14 -14 33q0 20 14 34
q15 14 35 14q21 0 36 -14t15 -34q0 -19 -15 -33t-36 -14z" />
    <glyph glyph-name="uni0919_uni094D.half_uni0916.pres" horiz-adv-x="570" 
d="M-10 427v73h590v-73h-190v-109h-207q-10 0 -17 -5q-7 -6 -7 -13q0 -10 25 -23q24 -13 44 -13q17 0 49 12q32 13 49 13q52 0 88 -32q37 -31 37 -76q0 -21 -12 -42t-33 -39v-257h-60v54q-26 -18 -54 -18q-34 0 -58 23t-24 55q0 28 22 48q21 20 52 20q15 0 28 -5
q12 -4 21 -13l-23 -35q-7 4 -22 4q-11 0 -18 -7q-8 -7 -8 -17t10 -16q10 -7 24 -7q21 0 35 11q15 11 15 26v107q-62 -11 -86 -11q-40 0 -70 11v-64q0 -29 -16 -49q-17 -20 -40 -20l90 -75l-36 -36l-160 141l41 36q11 -13 16 -18q7 -6 11 -6q12 0 21 7q8 7 8 17v89
q-90 52 -115 73l45 50q47 -39 98 -60q52 -21 102 -21q48 0 82 13t34 32q0 13 -13 23q-12 9 -30 9q-17 0 -50 -12q-33 -13 -50 -13q-46 0 -98 39q-51 39 -51 74q0 38 30 64q30 27 73 27h128v34h-320zM501 255q-20 0 -35 14q-14 14 -14 33q0 20 14 34q15 14 35 14q23 0 40 -14
q16 -14 16 -34q0 -19 -16 -33q-17 -14 -40 -14z" />
    <glyph glyph-name="uni0919_uni094D.half_uni0917.pres" horiz-adv-x="567" 
d="M-10 427v73h587v-73h-186v-109h-207q-8 0 -13 -4q-6 -4 -6 -9q0 -12 26 -26q26 -15 47 -15q17 0 50 6q33 5 50 5q46 0 79 -27t33 -66q0 -25 -9 -45q-8 -19 -23 -28v-270h-80v234q-51 -9 -72 -9l-57 9v-176q0 -9 -6 -16q-6 -6 -15 -6q-29 0 -74 36q-44 35 -44 59q0 7 5 13
q6 5 13 5h28q5 0 9 5q4 6 4 13v85q-51 24 -118 80l46 56q51 -43 100 -65q49 -23 90 -23q51 0 87 15t36 37q0 10 -9 17q-10 7 -23 7l-101 -15q-56 0 -104 33q-48 34 -48 73q0 36 29 62q29 25 70 25h127v34h-321zM502 255q-20 0 -35 14q-14 14 -14 33q0 20 14 34q15 14 35 14
q21 0 36 -14t15 -34q0 -19 -15 -33t-36 -14z" />
    <glyph glyph-name="uni0919_uni094D.half_uni0918.pres" horiz-adv-x="576" 
d="M-10 427v73h596v-73h-187v-109h-193q-12 0 -20 -5q-8 -6 -8 -13q0 -10 21 -22t38 -12l109 12q48 0 83 -26q34 -26 34 -62q0 -34 -18 -61q-17 -28 -46 -38v-256h-80v63q-16 -16 -38 -25t-46 -9q-52 0 -88 23q-37 23 -37 55q0 11 7 23t20 23q-20 3 -32 17q-13 14 -13 32
q0 19 10 35t26 24q-65 24 -118 68l50 54q46 -38 94 -59q48 -20 93 -20q56 0 96 15t40 37q0 10 -11 16q-10 7 -25 7q-19 0 -55 -12q-36 -11 -55 -11q-40 0 -90 39q-49 39 -49 71q0 38 31 65t74 27h116v34h-329zM233 -82q24 0 47 16q23 15 39 42v97q-25 -9 -59 -9t-59 9
q-13 -3 -21 -14q-8 -10 -8 -23q0 -9 8 -17t21 -10q3 1 14 1l22 -1l19 -41h-28q-16 0 -27 -7t-11 -17q0 -13 11 -19q11 -7 32 -7zM511 255q-20 0 -35 14q-14 14 -14 33q0 20 14 34q15 14 35 14q21 0 36 -14t15 -34q0 -19 -15 -33t-36 -14z" />
    <glyph glyph-name="uni0919_uni094D.half_uni092E.pres" horiz-adv-x="577" 
d="M-10 427v73h597v-73h-187v-109h-216q-8 0 -13 -4q-6 -4 -6 -9q0 -13 29 -28q29 -16 53 -16q17 0 50 11q34 12 51 12q44 0 76 -27q31 -27 31 -66q0 -32 -15 -58q-14 -27 -40 -42v-253h-80v98h-102v-31q0 -6 -5 -10q-4 -4 -11 -4q-27 0 -67 34q-41 34 -41 56l12 11
q9 8 12 8h20v82q-52 19 -127 82l45 59q49 -41 101 -63q51 -22 99 -22q49 0 84 13t35 31q0 11 -8 19t-20 8q-17 0 -50 -11q-33 -12 -50 -12q-47 0 -104 43q-58 43 -58 78q0 36 29 61q28 25 69 25h137v34h-330zM218 0h102v64h-102v-64zM512 255q-20 0 -35 14q-14 14 -14 33
q0 20 14 34q15 14 35 14q21 0 36 -14t15 -34q0 -19 -15 -33t-36 -14z" />
    <glyph glyph-name="uni0919_uni094D.half_uni0915_uni094D_uni0937.akhn.pres" horiz-adv-x="645" 
d="M-10 427v73h665v-73h-200v-92h-172q-10 0 -18 -3q-7 -3 -7 -8q0 -8 18 -20q17 -12 29 -12l88 10q41 0 71 -18q29 -17 29 -42q0 -29 -20 -54t-53 -37l58 -22v-290h-80v186q-41 -14 -101 -14q-88 0 -135 23q-32 -9 -53 -28q-20 -20 -20 -42t20 -37q20 -16 48 -16l24 3
q0 19 16 33q17 13 40 13q25 0 42 -12q18 -11 18 -28q0 -8 -6 -17q-6 -10 -17 -19l42 -33l-66 -24q-22 11 -51 41l-32 -2q-65 0 -112 29q-46 30 -46 71q0 28 24 53q25 25 64 39q-22 11 -35 26t-13 29q0 24 31 43t77 23q-57 27 -124 96l48 40q38 -49 105 -76q66 -27 148 -27
q33 0 56 7q23 8 23 18q0 9 -8 16q-8 6 -20 6l-83 -12q-31 0 -77 35q-47 36 -47 59q0 29 23 49t56 20h118v17h-385zM157 83q18 4 30 12q12 9 12 18q0 11 -9 19q-10 8 -23 8q-16 0 -27 -8t-11 -19q0 -8 8 -17q7 -8 20 -13zM256 150q11 -11 17 -22t6 -20t-15 -22
q-16 -12 -42 -25q41 -11 74 -11q63 0 102 19v77q-25 -9 -68 -9q-38 0 -74 13zM580 255q-20 0 -35 14q-14 14 -14 33q0 20 14 34q15 14 35 14q21 0 36 -14t15 -34q0 -19 -15 -33t-36 -14z" />
    <glyph glyph-name="uni091A_uni094D.half_uni091A.pres" horiz-adv-x="532" 
d="M-10 427v73h552v-73h-80v-427h-80v118q-31 -37 -71 -57q-41 -20 -83 -20q-53 0 -91 23q-37 22 -37 54q0 13 9 25q8 12 23 21h-106v75h93q-9 5 -14 12q-5 6 -5 13q0 13 8 25q7 12 20 20h-102v75h276v-75h-74q-21 -4 -34 -14q-14 -10 -14 -22q0 -14 17 -24q16 -10 40 -10
h65v-75h-83q-16 0 -28 -8q-11 -8 -11 -19q0 -9 14 -15t34 -6q42 0 83 30q41 29 71 81v200h-392z" />
    <glyph glyph-name="uni091B_uni094D.half_uni0935.pres" horiz-adv-x="520" 
d="M-10 427v73h540v-73h-101v-33q30 -12 49 -35q18 -23 18 -48q0 -39 -35 -85t-76 -61v-329h-80v69q-16 -14 -41 -21q-26 -7 -57 -7q-61 0 -104 33q-43 32 -43 78q0 48 50 82t120 34q36 0 53 -7l-13 -67q-5 2 -16 3l-29 1q-33 0 -57 -13q-23 -14 -23 -33q0 -15 18 -26
t44 -11q32 0 58 10q25 10 40 28v151q-95 -25 -172 6q-78 31 -78 95q0 22 13 41q12 19 33 27q-33 13 -53 34q-20 20 -20 41q0 12 5 23q4 11 13 20h-56zM349 427h-209q-14 -4 -23 -16t-9 -27q0 -17 21 -29t51 -12h41l14 -45h-34q-27 0 -47 -17q-19 -16 -19 -40q0 -19 26 -33
q26 -13 63 -13q42 0 98 26q-21 15 -32 37q-12 22 -12 47q0 34 20 59q20 26 51 30v33zM377 247q18 13 28 29q10 15 10 30q0 14 -8 24q-7 10 -18 10q-17 0 -28 -12q-12 -11 -12 -28t7 -31q8 -14 21 -22z" />
    <glyph glyph-name="uni091C_uni094D.half_uni091C.pres" horiz-adv-x="595" 
d="M-10 427v73h615v-73h-80v-427h-80v157l-107 -39q4 -2 6 -11q1 -9 1 -25q0 -36 -40 -62q-40 -25 -96 -25q-40 0 -87 30q-48 30 -93 84l54 50q29 -42 63 -65q34 -24 64 -24q23 0 39 11q16 12 16 28q0 13 -13 26q-12 12 -33 20l226 76v78h-144q0 -41 -35 -71
q-34 -29 -83 -29q-40 0 -84 36q-44 37 -80 100l73 28q15 -40 40 -65q25 -24 51 -24q19 0 33 13q13 12 13 30q0 16 -7 31q-8 15 -21 26h244v43h-455z" />
    <glyph glyph-name="uni091E_uni094D.half_uni091A.pres" horiz-adv-x="557" 
d="M21 259l32 68q50 -29 86 -29q21 0 35 14q15 14 15 33q0 12 -12 20t-29 8q-26 -5 -63 -18l-37 63q64 30 91 30q43 0 76 -18q33 -17 43 -46h149v43h-80v73h240v-73h-80v-427h-80v57q-31 -32 -65 -49t-66 -17q-34 0 -58 19q-24 18 -24 45q0 25 5 43q4 18 13 25l-136 -55
l-37 55l269 113l18 -59q-27 -16 -43 -36q-16 -21 -16 -41q0 -14 8 -24t19 -10q26 0 56 22q30 23 57 62v159h-140q-7 -37 -43 -62q-36 -24 -85 -24q-56 0 -118 36z" />
    <glyph glyph-name="uni091E_uni094D.half_uni091C.pres" horiz-adv-x="539" 
d="M198 -9q-43 0 -85 16q-42 17 -79 48l45 59q28 -23 58 -36q31 -12 61 -12q18 0 30 11q13 12 13 28q0 14 -7 26q-7 13 -20 22l175 74v46h-119q-7 -38 -43 -62q-36 -25 -84 -25q-54 0 -118 37l32 68q52 -30 86 -30q21 0 35 14q15 14 15 34q0 11 -12 19t-29 8q-26 -5 -63 -18
l-37 64q62 29 91 29q43 0 75 -17q33 -18 43 -46h128v79h-383v73h543v-73h-80v-427h-80v155l-80 -37q6 -3 9 -15t3 -30q0 -34 -36 -58t-87 -24z" />
    <glyph glyph-name="uni091F_uni094D.half_uni091F.pres" horiz-adv-x="415" 
d="M-10 427v73h435v-73h-83v-115h-193q-15 0 -25 -11q-11 -10 -11 -25q0 -30 35 -52q36 -21 86 -21q34 0 63 10q30 9 51 27l50 -47q-7 -7 -42 -27l-14 -8v-149h-192q-15 0 -26 -12t-11 -29q0 -24 34 -40q34 -17 82 -17q39 0 70 9q31 8 50 24l49 -44q-37 -31 -81 -48
q-43 -16 -88 -16q-81 0 -139 37q-57 37 -57 90q0 50 35 86q35 35 84 35h110v57h-30q-94 0 -147 35q-52 36 -52 100q0 46 34 78q35 33 83 33h112v40h-272z" />
    <glyph glyph-name="uni091F_uni094D.half_uni0920.pres" horiz-adv-x="423" 
d="M-10 427v73h443v-73h-85v-120h-198q-13 0 -22 -11q-9 -10 -9 -25q0 -30 36 -52q35 -21 86 -21q33 0 63 10q29 9 50 27l50 -41q-32 -32 -56 -41v-124q21 -19 33 -40q12 -20 12 -38q0 -46 -47 -78t-114 -32q-87 0 -148 40q-62 40 -62 97q0 38 35 64q35 27 84 27h127v67h-27
q-84 0 -143 40q-59 39 -59 95q0 46 33 78q32 33 78 33h118v45h-278zM307 15h-166q-16 0 -28 -11q-11 -11 -11 -26q0 -26 38 -44t92 -18q34 0 57 10q24 11 24 25q0 9 -7 22q-7 14 -21 30z" />
    <glyph glyph-name="uni091F_uni094D.half_uni092F.pres" horiz-adv-x="914" 
d="M-10 427v73h934v-73h-80v-427h-80v109q-24 -20 -55 -30q-31 -11 -65 -11q-61 0 -110 53t-63 134q59 0 97 9q40 10 40 27q0 15 -19 25q-18 11 -45 11q-102 0 -203 -27v-9h-147q-33 0 -57 -24q-23 -24 -23 -58q0 -56 37 -95q36 -39 88 -39q30 0 62 19q33 18 61 52l59 -41
q-28 -49 -77 -77t-105 -28q-85 0 -145 62q-60 63 -60 151q0 63 44 108t106 45h77v61h-271zM653 143q30 0 59 12q29 13 52 36v236h-423v-53q104 28 202 28q60 0 103 -33q42 -32 42 -78q0 -36 -35 -61q-36 -25 -86 -25q5 -27 29 -44q24 -18 57 -18z" />
    <glyph glyph-name="uni091F_uni094D.half_uni0935.pres" horiz-adv-x="432" 
d="M-10 427v73h452v-73h-90v-120h-199q-17 0 -29 -9t-12 -22q0 -30 39 -52q38 -21 93 -21q34 0 63 10q30 9 51 27l54 -46q-29 -29 -49 -36v-318h-80v59q-17 -14 -42 -22q-25 -7 -56 -7q-63 0 -107 33q-45 32 -45 78q0 50 44 86q44 35 106 35q56 0 89 -17l-20 -72
q-27 14 -69 14q-29 0 -49 -13q-21 -14 -21 -33q0 -15 21 -25q21 -11 51 -11q32 0 58 10q26 9 40 27v160q-101 -9 -176 31t-75 103q0 44 36 75t87 31h117v45h-282z" />
    <glyph glyph-name="uni0920_uni094D.half_uni0920.pres" horiz-adv-x="447" 
d="M-10 427v73h467v-73h-104v-105l15 10q25 -21 39 -43t14 -41q0 -32 -19 -58q-18 -26 -49 -37v-127l16 9q24 -20 37 -42t13 -42q0 -47 -53 -81q-54 -33 -129 -33q-87 0 -148 41q-61 42 -61 100q0 38 36 64q35 27 86 27h123v65q-11 -4 -36 -4q-87 0 -148 41q-61 42 -61 100
q0 38 37 64q36 27 88 27h120v65h-283zM332 307h-177q-19 0 -33 -11q-14 -10 -14 -25q0 -27 38 -47q38 -19 91 -19q43 0 74 13q30 12 30 30q0 13 -12 24t-30 14zM331 15h-175q-20 0 -34 -11t-14 -26q0 -27 38 -47q38 -19 91 -19q42 0 72 11q30 12 30 28q0 10 -12 21
q-12 12 -32 21z" />
    <glyph glyph-name="uni0920_uni094D.half_uni092F.pres" horiz-adv-x="937" 
d="M-10 427v73h957v-73h-80v-427h-80v102q-18 -18 -47 -28t-64 -10q-65 0 -116 51t-65 130q56 0 96 13q40 14 40 33q0 15 -21 25q-22 11 -52 11q-102 0 -188 -23v-13h-164q-39 0 -66 -24q-28 -25 -28 -59q0 -56 43 -95q44 -39 105 -39q37 0 64 26q26 27 26 64q0 20 -11 42
q-10 21 -30 41l65 40q27 -22 41 -55q15 -32 15 -68q0 -68 -49 -117q-50 -48 -120 -48q-95 0 -162 62q-67 61 -67 148q0 65 51 111q52 46 124 46h83v61h-300zM676 139q32 0 61 14q29 13 50 38v236h-417v-44q71 19 189 19q63 0 107 -33q45 -32 45 -78q0 -41 -37 -71
q-37 -29 -89 -29q4 -23 30 -37q26 -15 61 -15z" />
    <glyph glyph-name="uni0921_uni094D.half_uni0921.pres" horiz-adv-x="502" 
d="M-10 427v73h522v-73h-82v-118h-189q-10 0 -17 -3q-7 -2 -7 -6q0 -12 14 -26t25 -14q19 0 55 8q36 7 55 7q43 0 74 -26q31 -27 31 -64q0 -50 -51 -85q-52 -35 -124 -35q-49 0 -64 5q-3 -3 -4 -7q-2 -4 -2 -8q0 -13 9 -22t22 -9q18 0 55 3q36 3 54 3q40 0 68 -24
q28 -25 28 -59q0 -49 -49 -83q-49 -35 -118 -35q-64 0 -137 35t-145 100l46 60q54 -57 115 -89q62 -31 121 -31q36 0 62 13q25 12 25 30q0 7 -5 11q-6 5 -13 5q-17 0 -52 -5q-35 -4 -52 -4q-38 0 -76 34q-38 33 -38 66q0 13 5 23t13 12q-77 39 -151 106l49 55
q41 -52 102 -81q62 -29 132 -29q39 0 67 13t28 32q0 8 -8 14t-19 6q-18 0 -54 -7q-35 -8 -53 -8q-35 0 -77 46q-43 46 -43 84q0 27 17 45q18 19 42 19h154v43h-360z" />
    <glyph glyph-name="uni0921_uni094D.half_uni0922.pres" horiz-adv-x="464" 
d="M-10 427v73h484v-73h-79v-100h-199q-6 0 -11 -3q-4 -2 -4 -6q0 -8 19 -19q19 -10 35 -10q15 0 45 9t45 9q46 0 78 -27q33 -27 33 -66q0 -31 -21 -57q-22 -25 -56 -34v-105h-171q-17 0 -28 -11q-12 -10 -12 -25q0 -27 34 -47q35 -19 83 -19q-7 6 -10 13q-4 8 -4 16
q0 23 24 39q25 16 59 16q39 0 67 -21q28 -22 28 -52q0 -36 -43 -61t-103 -25q-89 0 -152 41q-63 42 -63 100q0 38 35 64q35 27 85 27h91v36q-75 0 -145 29q-69 29 -123 83l37 45q49 -49 104 -75t108 -26q40 0 68 14q28 15 28 35q0 7 -9 13q-9 5 -22 5q-15 0 -45 -9t-45 -9
q-39 0 -86 43q-48 44 -48 79q0 19 17 33q18 13 42 13h155v45h-325zM338 -100q15 0 25 9q11 10 11 23q0 10 -11 16q-10 7 -25 7t-26 -8t-11 -20q0 -11 11 -19t26 -8z" />
    <glyph glyph-name="uni0921_uni094D.half_uni092F.pres" horiz-adv-x="928" 
d="M-10 427v73h948v-73h-80v-427h-80v104q-21 -17 -49 -27q-28 -9 -61 -9q-65 0 -117 50q-51 50 -65 127h40q40 0 68 13q28 14 28 33q0 15 -17 25q-18 11 -42 11q-74 0 -176 -18h-186q-11 0 -18 -4q-8 -4 -8 -10q0 -19 19 -43q19 -23 35 -23q15 0 40 14q26 14 41 14
q50 0 86 -30q35 -30 35 -72q0 -65 -48 -110q-49 -46 -117 -46q-72 0 -140 45t-113 123l60 46q37 -65 89 -102t104 -37q35 0 60 23q25 24 25 57q0 12 -11 20t-27 8q-15 0 -43 -14t-43 -14q-38 0 -85 51t-47 93q0 36 31 61t75 25h106v43h-317zM667 143q30 0 59 15t52 42v227
h-391v-50q93 25 176 25q58 0 98 -30q41 -30 41 -72q0 -43 -35 -74q-36 -31 -86 -31q9 -23 32 -38q24 -14 54 -14z" />
    <glyph glyph-name="uni0922_uni094D.half_uni0922.pres" horiz-adv-x="465" 
d="M-10 427v73h485v-73h-119v-102h-173q-31 0 -52 -16q-22 -16 -22 -38q0 -30 34 -52q33 -21 81 -21q-7 6 -10 14q-4 8 -4 18q0 28 35 48q34 20 83 20t83 -23q35 -22 35 -54q0 -36 -26 -61q-27 -25 -64 -25v-120h-170q-32 0 -54 -12q-23 -13 -23 -30q0 -29 33 -50
q34 -21 81 -21q-6 3 -10 10q-3 7 -3 15q0 29 34 49q35 20 83 20q45 0 77 -21t32 -51q0 -40 -54 -69q-54 -28 -130 -28q-92 0 -158 44q-65 44 -65 107q0 38 37 64q37 27 90 27h120v56q-102 0 -175 43q-72 43 -72 103q0 45 45 77t109 32h93v47h-286zM306 -104q15 0 25 9
q11 10 11 23q0 10 -11 16q-10 7 -25 7t-25 -8q-11 -8 -11 -19q0 -12 11 -20q10 -8 25 -8zM320 185q19 0 33 11q13 10 13 25q0 14 -13 23q-14 10 -33 10q-18 0 -31 -10q-13 -9 -13 -23q0 -15 13 -25q13 -11 31 -11z" />
    <glyph glyph-name="uni0922_uni094D.half_uni092F.pres" horiz-adv-x="933" 
d="M-10 427v73h953v-73h-80v-427h-80v99q-19 -19 -46 -29t-59 -10q-77 0 -132 54t-55 131h54q32 0 55 13q23 14 23 33q0 15 -18 25q-17 11 -42 11q-127 0 -176 -18v-18h-198q-31 0 -53 -19q-22 -18 -22 -45q0 -60 33 -103q32 -43 78 -43q-11 19 -16 32q-6 14 -6 22
q0 46 32 79t78 33t78 -33t32 -79q0 -56 -47 -96t-114 -40q-94 0 -161 67t-67 161q0 63 42 101t112 38h119v61h-317zM303 81q18 7 29 20q11 14 11 30q0 17 -9 29t-21 12t-21 -12t-9 -29q0 -16 5 -29t15 -21zM678 140q33 0 60 14q28 13 45 37v236h-396v-44q71 19 176 19
q58 0 99 -33q41 -32 41 -78q0 -43 -34 -74q-35 -31 -83 -31q8 -21 33 -33q25 -13 59 -13z" />
    <glyph glyph-name="uni0926_uni094D.half_uni0917.pres" horiz-adv-x="431" 
d="M-10 427v73h451v-73h-81v-152h-174q-32 0 -54 -19q-23 -20 -23 -47q0 -48 46 -83q45 -34 110 -34q-4 4 -7 14q-2 10 -2 25q0 22 21 38q20 16 49 16q30 0 51 -20t21 -49q0 -30 -14 -52q-15 -22 -37 -26l54 -112l-71 -33l-45 131q-26 -5 -80 5l-12 -117q-2 -17 -11 -28
q-10 -11 -22 -11q-26 0 -67 27q-40 28 -40 46q0 5 4 9t10 5h61l22 81q-56 32 -89 77q-32 45 -32 91q0 58 46 100q46 41 111 41h94v77h-290z" />
    <glyph glyph-name="uni0926_uni094D.half_uni0918.pres" horiz-adv-x="534" 
d="M-10 427v73h554v-73h-77v-153h-173q-33 0 -57 -19q-23 -18 -23 -45q0 -49 45 -84q46 -35 110 -35q-10 14 -10 29q0 27 21 47q22 19 52 19q27 0 46 -22t19 -53q0 -16 -10 -34q-11 -18 -30 -34l49 -116l-67 -30l-18 54q-24 -42 -60 -67q-36 -24 -74 -24q-53 0 -93 29
q-40 28 -48 72q-51 0 -88 32q-36 32 -36 77t34 77q33 32 81 32v30q2 59 48 99q45 41 109 41h93v78h-397zM166 116q-27 0 -45 -13q-19 -14 -19 -33q0 -23 13 -40q12 -17 31 -19q9 26 25 44t35 25q-11 11 -27 24q-11 8 -13 12zM287 -65q28 0 55 23t45 62q-71 0 -123 19
q-18 -7 -29 -24q-11 -18 -11 -40q0 -17 18 -28q19 -12 45 -12z" />
    <glyph glyph-name="uni0926_uni094D.half_uni0926.pres" horiz-adv-x="431" 
d="M-10 427v73h451v-73h-82v-152h-209q-16 0 -27 -8t-11 -19q0 -13 18 -23q18 -9 43 -9q53 0 77 14l29 -73q-60 0 -102 -19q-42 -18 -42 -45q0 -14 19 -24q18 -10 45 -10q30 0 50 3q21 3 30 8q-10 14 -10 36q0 24 20 42q19 17 47 17q27 0 45 -21q19 -22 19 -52
q0 -22 -14 -43q-13 -20 -37 -34l49 -79l-69 -34l-50 91q-34 -9 -80 -9q-60 0 -102 31t-42 74q0 26 15 49q15 22 40 34q-35 13 -57 36q-21 24 -21 49q0 39 35 66t85 27h127v77h-289z" />
    <glyph glyph-name="uni0926_uni094D.half_uni0927.pres" horiz-adv-x="571" 
d="M-10 427v73h591v-73h-77v-153h-173q-32 0 -54 -19q-23 -18 -23 -45q0 -49 44 -84t107 -35q-6 13 -6 31q0 27 21 45q20 19 49 19q27 0 46 -22t19 -53q0 -17 -12 -36t-33 -37l59 -91l-68 -40l-27 49q-27 -38 -61 -60q-34 -21 -68 -21q-53 0 -93 29q-40 28 -48 72
q-66 0 -112 33q-47 34 -47 81q0 43 27 74q26 31 64 31q23 0 42 -15t28 -40l-43 -33q-5 6 -12 10q-7 3 -15 3q-5 0 -8 -9t-3 -22q0 -19 26 -34q25 -16 63 -19q5 13 15 24q10 12 25 20q-28 28 -44 62q-15 34 -15 68q0 58 46 98q46 41 111 41h93v78h-434zM319 -50q30 0 58 19
t47 51q-57 0 -123 24q-20 -7 -33 -24q-12 -16 -12 -35q0 -14 18 -25q19 -10 45 -10z" />
    <glyph glyph-name="uni0926_uni094D.half_uni0928.pres" horiz-adv-x="427" 
d="M-10 427v73h447v-73h-77v-152h-175q-31 0 -54 -18q-22 -17 -22 -42q0 -51 45 -88q45 -36 108 -36q-6 7 -9 15t-3 16q0 27 22 47q22 19 53 19q27 0 45 -22q19 -21 19 -52q0 -23 -11 -42q-12 -20 -31 -31l55 -96l-72 -38l-50 112l-109 -46q-4 -1 -7 -5q-2 -4 -2 -8
q0 -6 2 -11q3 -6 7 -8t7 -7q2 -5 2 -11t-5 -10q-6 -4 -13 -4q-27 0 -69 24q-41 24 -41 40q0 8 7 15t19 12l95 36q-65 24 -104 71q-40 48 -40 103q0 58 45 99t109 41h97v77h-290z" />
    <glyph glyph-name="uni0926_uni094D.half_uni092C.pres" horiz-adv-x="430" 
d="M-10 427v73h450v-73h-77v-152h-175q-31 0 -54 -19q-22 -20 -22 -47q0 -49 44 -84t107 -35q-8 14 -8 35q0 25 20 42q20 18 48 18q29 0 49 -21q20 -20 20 -49q0 -23 -11 -43t-30 -31l59 -96l-72 -38l-32 58q-23 -48 -61 -77t-79 -29q-47 0 -80 30q-33 29 -33 71q0 33 21 60
q21 26 54 35q-45 32 -71 72q-25 41 -25 82q0 58 46 100q47 41 112 41h93v77h-293zM142 -91q16 0 29 6t21 17l-55 54q-14 -5 -23 -17q-9 -11 -9 -24q0 -15 11 -25q11 -11 26 -11zM219 -36q40 33 50 72q-44 0 -91 -27z" />
    <glyph glyph-name="uni0926_uni094D.half_uni092D.pres" horiz-adv-x="464" 
d="M-10 427v73h484v-73h-74v-152h-173q-32 0 -55 -21q-23 -20 -23 -49q0 -47 44 -80t107 -33q-4 2 -7 12q-2 9 -2 24q0 25 21 43q20 18 49 18q26 0 45 -22q18 -21 18 -52q0 -23 -11 -43q-10 -19 -29 -30l54 -101l-75 -35l-45 108l-105 -102l19 -18q1 -1 2 -5t1 -9
q0 -6 -7 -11q-8 -5 -19 -7h-46q-19 0 -41 11t-22 21q0 6 18 28l4 4l-40 36q-8 0 -13 -5q-6 -6 -6 -13q0 -8 2 -15q3 -7 7 -12h-81v45q0 27 20 45q20 19 48 19q35 0 66 -17q30 -17 47 -47l70 65q-77 21 -125 71q-48 51 -48 111q0 58 46 100q45 41 110 41h95v77h-330z" />
    <glyph glyph-name="uni0926_uni094D.half_uni092E.pres" horiz-adv-x="555" 
d="M-10 427v73h575v-73h-80v-427h-80v66h-109v-36q0 -11 -8 -19t-19 -8q-13 0 -61 43q-48 44 -48 56q0 16 8 28q8 11 19 11h29v38h-74q-49 0 -84 30q-35 31 -35 74t36 74q35 30 86 30h53v40h-208zM296 141h109v286h-127v-115h-135q-17 0 -28 -8q-12 -9 -12 -21t11 -21
q11 -8 27 -8h155v-113z" />
    <glyph glyph-name="uni0926_uni094D.half_uni092F.pres" horiz-adv-x="562" 
d="M-10 427v73h582v-73h-80v-427h-80v93q-29 -29 -76 -45t-105 -16q-68 0 -115 35q-48 34 -48 83q0 18 7 34t20 27q-31 11 -49 31q-19 21 -19 44q0 44 36 76q36 31 87 31h73v34h-233zM230 107q53 0 101 22q47 22 81 62v236h-109v-109h-154q-17 0 -30 -9q-12 -10 -12 -23
t12 -22t29 -9h134l-23 -55h-47q-27 0 -45 -15q-19 -14 -19 -35q0 -18 24 -30q24 -13 58 -13z" />
    <glyph glyph-name="uni0926_uni094D.half_uni0935.pres" horiz-adv-x="427" 
d="M-10 427v73h447v-73h-75v-152h-180q-30 0 -51 -19q-21 -20 -21 -47q0 -49 44 -84t106 -35q-7 15 -7 29q0 29 20 49q20 21 48 21t48 -22t20 -53q0 -20 -12 -38t-32 -30l63 -121l-67 -33l-31 53q-24 -42 -65 -67q-40 -24 -85 -24q-43 0 -73 26t-30 63q0 30 26 58
q25 28 67 43q-54 20 -87 65t-33 100q0 58 46 100q46 41 111 41h95v77h-292zM160 -71q31 0 63 24q31 23 55 64q-60 -5 -100 -27q-41 -21 -41 -47q0 -6 7 -10q6 -4 16 -4z" />
    <glyph glyph-name="uni0928_uni094D.half_uni0928.pres" horiz-adv-x="504" 
d="M-10 427v73h524v-73h-80v-427h-80v191l-146 -64q19 -52 19 -63q0 -12 -8 -20t-20 -8q-26 0 -77 36q-50 36 -50 55q0 9 5 17q5 7 13 11l184 81q-93 65 -138 73q-7 -37 -16 -59q-10 -23 -21 -23q-17 0 -49 47t-32 71q0 15 24 26q23 11 57 11q53 0 118 -32q66 -31 137 -91
v168h-364z" />
    <glyph glyph-name="uni092A_uni094D.half_uni0924.pres" horiz-adv-x="449" 
d="M-10 427v73h469v-73h-80v-427h-80v218h-106q-24 0 -42 -17q-17 -18 -17 -42q0 -33 17 -62q18 -30 48 -47l-51 -50q-44 25 -69 67q-25 41 -25 88q0 29 15 55q14 25 40 40q-24 7 -40 27q-15 20 -15 45v105h-64zM159 293h140v134h-165v-109q0 -10 7 -18q8 -7 18 -7z" />
    <glyph glyph-name="uni092A_uni094D.half_uni0932.pres" horiz-adv-x="475" 
d="M-10 427v73h495v-73h-116v-326q41 -7 68 -38q27 -32 27 -72q0 -50 -34 -91t-88 -55l-36 68q35 13 57 35q21 23 21 47q0 18 -11 30q-11 13 -26 13q-19 0 -37 -20q-19 -20 -31 -53l-64 27l9 23q-26 18 -64 18q-19 0 -33 -15t-14 -36q0 -17 24 -36q24 -20 64 -34l-32 -64
q-59 10 -97 48q-39 38 -39 85q0 53 35 90t85 37q26 0 51 -10t47 -28q3 7 13 14t25 13v76q-14 -17 -38 -26t-53 -9q-57 0 -98 36q-40 37 -40 88v165h-70zM197 213q30 0 55 15q25 16 37 42v157h-149v-162q0 -22 17 -37q16 -15 40 -15z" />
    <glyph glyph-name="uni092B_uni094D.half_uni0932.pres" horiz-adv-x="610" 
d="M-10 427v73h630v-73h-275v-95q13 18 35 28q23 10 51 10q60 0 102 -42t42 -101q0 -67 -45 -131l-73 41q18 18 28 42q10 23 10 48q0 28 -18 48q-19 20 -45 20q-21 0 -45 -16q-23 -15 -42 -43v-173q12 14 31 22t40 8q53 0 91 -33q37 -34 37 -81q0 -42 -33 -80
q-32 -37 -86 -57l-54 59q42 15 67 37q26 21 26 41q0 16 -15 28q-15 11 -37 11q-23 0 -53 -25t-61 -69l-82 41l18 23q-13 13 -30 21q-17 7 -34 7q-23 0 -40 -11q-16 -10 -16 -25q0 -24 30 -44q30 -21 76 -29l-22 -65q-71 13 -118 51q-46 39 -46 86q0 46 39 79t95 33
q55 0 97 -32v109q-13 -15 -32 -24q-20 -8 -42 -8q-62 0 -99 37q-37 38 -37 100v154h-65zM191 211q19 0 39 15q20 16 35 42v159h-130v-154q0 -26 16 -44q17 -18 40 -18z" />
    <glyph glyph-name="uni0932_uni094D.half_uni0932.pres" horiz-adv-x="581" 
d="M-10 427v73h601v-73h-142v-66q37 -11 61 -51q23 -39 23 -90q0 -31 -9 -59q-10 -27 -27 -48q36 -48 36 -99q0 -56 -42 -103t-109 -68l-29 57q45 18 73 49q27 32 27 65q0 31 -16 53t-39 22q-30 -3 -54 -31t-35 -70l-76 22l26 49q-9 14 -26 22t-39 8q-28 0 -48 -21
q-20 -20 -20 -49q0 -35 32 -69t85 -55l-33 -56q-74 30 -119 79t-45 101q0 27 10 51q9 24 27 42q-37 51 -37 107q0 60 42 103q42 42 101 42q36 0 64 -15q29 -15 42 -41q15 23 34 37q20 14 40 16v66h-379zM434 158q19 30 19 62q0 29 -16 49t-39 20q-30 -3 -54 -31
q-25 -27 -35 -69l-76 18l26 48q-10 16 -29 25q-18 9 -41 9q-26 0 -45 -21q-18 -20 -18 -49q0 -13 6 -29q7 -16 19 -33q22 7 43 7q34 0 61 -15q27 -14 40 -39q12 25 40 39q28 15 64 15q18 0 35 -6z" />
    <glyph glyph-name="uni0936_uni094D.half_uni0930_uni094D.blwf.vatu_uni091A.pres" horiz-adv-x="502" 
d="M262 14q-42 0 -71 22q-30 21 -30 52q0 18 5 32q4 14 13 21l-96 -50l-41 54l232 110l-86 36l-132 -64l-40 60l99 49q-22 13 -34 35q-13 22 -13 47q0 42 33 72t79 30q44 0 76 -30q31 -30 31 -72q0 -23 -11 -43q-10 -21 -29 -34l105 -46v132h-28v73h188v-73h-80v-427h-80v58
q-18 -21 -41 -32q-24 -12 -49 -12zM261 89q25 0 49 18q24 17 42 48v77l-73 -41q-18 -10 -28 -30q-10 -19 -10 -43q0 -12 6 -21q6 -8 14 -8zM179 373q13 8 20 20q8 12 8 25q0 11 -8 19t-20 8q-13 0 -22 -8t-9 -19t8 -23t23 -22z" />
    <glyph glyph-name="uni0936_uni094D.half_uni0930_uni094D.blwf.vatu_uni0928.pres" horiz-adv-x="512" 
d="M335 427v73h187v-73h-80v-427h-80v173l-91 -64q-6 -4 -9 -9q-3 -6 0 -9l18 -23q7 -6 10 -14q4 -8 4 -18q0 -7 -7 -13q-6 -5 -16 -5q-39 0 -99 24t-60 40q0 6 7 16q7 9 20 20l150 91l-100 65l-127 -92l-51 53l114 83q-25 14 -40 39q-14 24 -14 51q0 46 35 79q34 33 83 33
q48 0 82 -33q34 -32 34 -78q0 -26 -15 -51t-42 -44l114 -59v172h-27zM189 355q17 10 26 24q10 15 10 31q0 14 -11 25q-10 10 -25 10q-16 0 -27 -10q-11 -11 -11 -25q0 -15 10 -30t28 -25z" />
    <glyph glyph-name="uni0936_uni094D.half_uni0930_uni094D.blwf.vatu_uni0932.pres" horiz-adv-x="706" 
d="M325 0q-57 10 -95 48q-37 39 -37 87q0 38 23 66q23 29 58 35l-78 37l-144 -86l-41 58l123 73q-27 10 -43 32t-16 49q0 45 33 76q34 32 81 32q48 0 82 -30t34 -73q0 -24 -13 -47t-36 -39l155 -82q17 15 40 22q23 8 48 8q13 0 57 -16v177h-218v73h378v-73h-80v-427h-80v168
q-13 11 -27 17t-27 6q-18 0 -36 -18q-18 -17 -28 -46l-63 28l9 13q-25 9 -50 9t-43 -12t-18 -29q0 -18 23 -36q23 -17 60 -27zM193 355q15 13 24 23q8 11 8 17q0 15 -9 26q-10 11 -23 11q-16 0 -27 -11t-11 -26q0 -12 10 -23q11 -11 28 -17z" />
    <glyph glyph-name="uni0936_uni094D.half_uni0930_uni094D.blwf.vatu_uni0935.pres" horiz-adv-x="502" 
d="M352 0v68q-24 -20 -62 -30q-38 -11 -86 -11q-57 0 -98 32q-40 31 -40 76t40 76q41 32 98 32q36 0 85 -18l-18 -75q-39 18 -69 18q-23 0 -40 -10q-16 -9 -16 -23t17 -23q18 -10 42 -10q49 0 88 14q38 13 59 38v73l-168 64l-132 -73l-36 55l105 57q-25 12 -40 34t-15 48
q0 45 33 76q34 32 81 32q48 0 82 -33t34 -79q0 -17 -13 -37q-12 -20 -35 -39l104 -41v136h-27v73h187v-73h-80v-427h-80zM181 368q16 6 25 17q10 11 10 24q0 15 -11 25q-10 11 -25 11q-14 0 -24 -11q-10 -10 -10 -25q0 -11 9 -22q10 -12 26 -19z" />
    <glyph glyph-name="uni0937_uni094D.half_uni091F.pres" horiz-adv-x="437" 
d="M-10 427v73h457v-73h-70v-236h-189q-23 0 -39 -16t-16 -39q0 -33 32 -56t77 -23q39 0 69 10t45 28l45 -68q-26 -22 -67 -33q-41 -12 -93 -12q-75 0 -128 45q-53 46 -53 110q0 26 10 48t27 34q-20 12 -32 36q-12 23 -12 53v119h-63zM179 266h90l-136 101v-58q0 -18 13 -30
q14 -13 33 -13zM297 319v108h-136z" />
    <glyph glyph-name="uni0937_uni094D.half_uni0920.pres" horiz-adv-x="474" 
d="M-10 427v73h494v-73h-99v-211q25 -11 40 -38q15 -28 15 -63q0 -59 -53 -100q-52 -42 -127 -42q-87 0 -148 47q-61 48 -61 115q0 34 15 62q14 28 40 43q-21 12 -33 33t-12 46v108h-71zM335 209h-139q-27 0 -46 -21q-19 -22 -19 -52q0 -36 38 -62t91 -26q41 0 71 21
q29 20 29 49q0 15 -15 32q-14 17 -40 32zM187 284h71l-117 96v-62q0 -14 13 -24q14 -10 33 -10zM305 319v108h-126z" />
    <glyph glyph-name="uni0939_uni094D.half_uni0923.pres" horiz-adv-x="556" 
d="M305 130q10 0 15 5q6 6 6 15v58h-44v-58q0 -9 6 -15q7 -5 17 -5zM-10 427v73h576v-73h-204v-109h-198q-16 0 -27 -7q-11 -6 -11 -16q1 -8 9 -18q9 -9 24 -18q42 24 112 24h120q51 0 88 -35q36 -34 36 -83v-165h-80v167q0 17 -8 29q-9 12 -21 12v-53q0 -45 -29 -73
q-30 -27 -79 -27q-44 0 -70 27q-26 28 -26 73v43q-30 0 -51 -25q-21 -24 -21 -59q0 -47 58 -81q58 -33 140 -33l-8 -76q-112 0 -191 57t-79 137q0 31 15 58q14 28 40 46q-28 19 -43 42q-16 22 -16 43q0 36 29 61t70 25h137v34h-292z" />
    <glyph glyph-name="uni0939_uni094D.half_uni0928.pres" horiz-adv-x="479" 
d="M-10 427v73h499v-73h-118v-109h-203q-12 0 -20 -5q-8 -6 -8 -13q0 -6 9 -17q8 -9 24 -23q11 7 35 10q24 4 59 4q72 0 123 -31q51 -32 51 -76v-167h-80v82h-51q-12 0 -20 -3t-8 -8l-1 -30q0 -8 -6 -13q-6 -6 -14 -6q-17 0 -43 36t-26 60q0 16 14 28q15 11 35 11h120v8
q0 14 -29 24q-30 10 -71 10q-55 0 -93 -25q-39 -25 -39 -60q0 -47 52 -81q53 -33 127 -33l-18 -72q-100 0 -170 54q-71 55 -71 132q0 31 16 60t44 49q-28 19 -43 44q-16 25 -16 50q0 31 26 54q26 22 63 22h152v34h-301z" />
    <glyph glyph-name="uni0939_uni094D.half_uni092E.pres" horiz-adv-x="688" 
d="M-10 427v73h708v-73h-80v-427h-80v64h-111v-28q0 -11 -9 -19t-22 -8q-28 0 -70 39q-43 39 -43 64q0 11 10 19t24 8h30q0 25 -24 43q-23 18 -57 18q-57 0 -98 -27q-40 -26 -40 -64q0 -63 66 -111t163 -57l-19 -68q-123 11 -207 79q-83 68 -83 157q0 34 17 65q17 32 48 53
q-31 18 -48 40q-18 23 -18 44q0 31 33 54q33 22 80 22h142v40h-312zM538 427h-156v-105h-216q-16 0 -28 -4q-11 -4 -11 -9q0 -9 17 -22q15 -12 44 -25q28 13 78 13q67 0 114 -40t47 -96h111v288z" />
    <glyph glyph-name="uni0939_uni094D.half_uni092F.pres" horiz-adv-x="647" 
d="M-10 427v73h667v-73h-80v-427h-80v58q-23 -28 -52 -43q-28 -15 -57 -15q-60 0 -103 41q-42 42 -42 100q36 0 61 11q25 10 25 25q0 9 -15 16q-14 6 -35 6q-63 0 -107 -28q-44 -27 -44 -66q0 -62 68 -106t165 -44v-73q-130 0 -221 65q-92 66 -92 158q0 34 18 64t49 48
q-29 11 -47 33t-18 48q0 39 33 67t79 28h153v34h-325zM388 75q33 0 63 27t46 71v254h-102v-109h-231q-13 2 -24 -3q-10 -6 -10 -15q0 -13 13 -26q13 -12 34 -20q35 20 101 20q54 0 93 -29q38 -28 38 -69q0 -22 -21 -44q-20 -21 -54 -33q2 -10 17 -17t37 -7z" />
    <glyph glyph-name="uni0939_uni094D.half_uni0932.pres" horiz-adv-x="519" 
d="M-10 427v73h539v-73h-157v-109h-198q-18 0 -30 -7q-13 -6 -13 -16q1 -6 9 -17q9 -10 24 -23q48 28 123 28q88 0 140 -31q53 -31 53 -83v-169h-80v114q-15 -1 -28 -15t-19 -36l-54 22q2 9 10 21q-5 9 -14 15q-10 5 -20 5t-16 -12q-7 -13 -7 -30q0 -16 9 -29t24 -18
l-22 -49q-39 7 -65 34t-26 62q0 39 30 67t73 28q21 0 39 -8q17 -9 25 -23q9 12 25 19t36 7q0 16 -33 28q-33 11 -80 11q-71 0 -114 -34q-43 -35 -43 -92q0 -50 46 -85q47 -35 112 -35l2 -67q-99 0 -170 55q-70 55 -70 132q0 45 16 81q15 37 43 56q-27 19 -43 42
q-15 24 -15 46q0 34 29 57q29 24 70 24h142v34h-302z" />
    <glyph glyph-name="uni0939_uni094D.half_uni0935.pres" horiz-adv-x="483" 
d="M-10 427v73h503v-73h-129v-109h-195q-16 0 -27 -7q-11 -6 -11 -16q0 -5 9 -14l24 -21q15 9 43 13q27 5 65 5q78 0 125 -34q47 -33 47 -89v-178h-80v48q-23 -16 -55 -16q-54 0 -87 24t-33 63q0 38 30 61t79 23q29 0 57 -16l-11 -47q-22 8 -43 8q-19 0 -33 -8
q-14 -9 -14 -21q0 -13 16 -23q16 -9 39 -9q20 0 35 6q14 5 20 15v71q0 24 -25 38t-66 14q-65 0 -104 -26q-39 -25 -39 -68q0 -49 45 -84q44 -35 107 -35l-7 -72q-93 0 -159 57t-66 138q0 31 15 59q14 28 40 46q-25 18 -40 41q-14 24 -14 48q0 34 28 57q27 24 66 24h139v34
h-294z" />
    <glyph glyph-name="uni0938_uni094D.half_uni0924_uni0930_uni094D.blwf.vatu.pres" horiz-adv-x="762" 
d="M-10 427v73h782v-73h-80v-427h-80v158l-174 -138l-51 60l225 165q-40 34 -79 52t-72 18q-21 0 -46 -10q-25 -9 -51 -28l-35 63q29 24 62 37t67 13q37 0 76 -17q40 -17 78 -49v103h-350v-136q0 -34 -24 -58t-58 -24l132 -154l-63 -55l-237 308l64 51q29 -41 40 -54
q17 -19 28 -19q16 0 27 7q11 6 11 16v118h-192zM307 185l-45 75h201l42 -75h-198z" />
    <glyph glyph-name="uni091C_uni094D.half_uni091C_uni094D.half.pres" horiz-adv-x="394" 
d="M209 0q-42 0 -89 29q-48 28 -91 80l54 50q23 -39 57 -61q34 -23 70 -23q23 0 39 10t16 24q0 13 -13 26q-12 12 -33 20l255 86v-73l-136 -50q4 -2 6 -11q1 -9 1 -25q0 -34 -40 -58t-96 -24zM19 345l73 28q15 -40 40 -65q25 -24 51 -24q19 0 33 13q13 12 13 30q0 16 -7 31
q-8 15 -21 26h273v-75h-173q0 -41 -35 -71q-34 -29 -83 -29q-40 0 -84 36q-44 37 -80 100zM-10 427v73h414v-73h-414z" />
    <glyph glyph-name="uni0926_uni0943.blws" horiz-adv-x="428" 
d="M-10 427v73h448v-73h-79v-152h-174q-31 0 -54 -19q-22 -19 -22 -46q0 -49 44 -84t107 -35q-6 22 -6 35q0 25 21 43q20 18 49 18t49 -21q20 -22 20 -52q0 -23 -12 -43q-13 -19 -34 -29l46 -98l-62 -30h-70q-19 0 -33 -12t-14 -29q0 -20 22 -34t53 -14q37 0 65 6
q28 5 43 16l28 -55q-60 -42 -136 -42q-64 0 -110 35q-45 34 -45 83q0 50 37 86q37 35 90 35h37l-14 29q-106 0 -180 56q-75 56 -75 136q0 58 46 99t111 41h93v77h-289z" />
    <glyph glyph-name="uni0930_uni0941.psts" horiz-adv-x="536" 
d="M-10 427v73h556v-73h-281v-127q18 32 48 50t63 18q54 0 92 -33t38 -80q0 -49 -23 -96q-24 -46 -66 -82l-59 59q32 27 50 58q18 32 18 61q0 16 -15 27t-36 11q-22 0 -38 -19q-16 -20 -16 -47l-55 55q-10 -29 -30 -46q-20 -18 -42 -18q-7 0 -11 1q-5 2 -7 4l150 -196
l-59 -46l-255 342l64 41l24 -30q35 -43 48 -43q15 0 26 5q11 6 11 13v118h-195z" />
    <glyph glyph-name="uni0930_uni0942.psts" horiz-adv-x="613" 
d="M-10 427v73h633v-73h-353v-91h98q7 12 26 18q20 7 47 7q56 0 95 -45q40 -44 40 -107q0 -49 -18 -96q-17 -47 -50 -86l-64 37q52 74 52 145q0 32 -16 54q-16 23 -39 23q-18 0 -31 -15q-13 -14 -13 -35q0 -13 8 -25t21 -20l-45 -55q-29 14 -47 41q-17 27 -17 59q0 30 9 46
h-59q0 -27 -20 -45q-20 -19 -48 -19q-7 0 -11 1q-5 2 -7 4l145 -179l-59 -53l-255 326l66 47q25 -36 43 -54q19 -19 32 -19q15 0 26 11q11 10 11 25v100h-200z" />
    <glyph glyph-name="uni0939_uni0943.blws" horiz-adv-x="447" 
d="M-10 427v73h467v-73h-84v-109h-197q-19 0 -33 -7q-13 -6 -13 -16q0 -6 11 -13q8 -6 28 -15q28 16 81 16q67 0 114 -27t47 -65q0 -30 -23 -52q-24 -21 -57 -21q-22 0 -37 -9q-15 -10 -15 -23q0 -5 12 -8t30 -3q39 0 60 12l18 -73q-38 -14 -78 -14q-51 0 -86 27
q-36 26 -36 64q0 30 24 52q24 21 58 21q21 0 35 6q15 6 15 15q0 11 -25 17q-23 6 -59 6q-48 0 -83 -27q-34 -27 -34 -66q0 -60 64 -103q63 -42 153 -42l-6 -69q-121 0 -206 63q-85 62 -85 151q0 35 16 64q16 30 44 46q-27 10 -44 34q-16 24 -16 53q0 34 30 57q29 24 71 24
h142v34h-303z" />
    <glyph glyph-name="uni0918_uni0930_uni094D.blwf.vatu" horiz-adv-x="495" 
d="M-10 427v73h515v-73h-80v-427h-80v115l-228 -184l-42 50l128 101q-68 2 -116 40q-47 37 -47 88q0 30 19 55q18 25 49 36q-32 11 -51 34q-19 22 -19 47q0 14 5 26q5 11 14 19h-67zM209 157q40 0 76 16q35 17 60 46v208h-173q-22 0 -38 -12q-16 -11 -16 -28q0 -20 22 -35
q21 -14 52 -14h41v-75h-29q-35 0 -59 -16q-25 -15 -25 -37t26 -37q26 -16 63 -16z" />
    <glyph glyph-name="uni091A_uni0930_uni094D.blwf.vatu" horiz-adv-x="503" 
d="M-10 427v73h523v-73h-80v-427h-80v134l-268 -158l-42 65l118 67q-34 12 -55 43q-21 30 -21 69q0 16 12 37t34 43h-114v75h291v-75h-71q-32 -12 -52 -34t-20 -46q0 -23 22 -40q23 -16 54 -16q25 0 54 13t58 38v212h-363z" />
    <glyph glyph-name="uni0925_uni0930_uni094D.blwf.vatu" horiz-adv-x="536" 
d="M331 427v73h215v-73h-80v-427h-80v115l-234 -189l-42 50l121 96q-87 9 -145 75q-59 65 -59 153h86q46 0 78 25q32 24 32 59q0 32 -21 54q-22 23 -52 23q-16 0 -28 -10q-11 -10 -11 -24q0 -12 11 -21q12 -9 28 -9v-64q-49 0 -84 28q-35 27 -35 66q0 45 35 77t84 32
q63 0 108 -45q45 -44 45 -107q0 -66 -49 -112q-49 -47 -118 -47q21 -37 53 -58q31 -21 65 -21q42 0 78 23t54 61v197h-55z" />
    <glyph glyph-name="uni0927_uni0930_uni094D.blwf.vatu" horiz-adv-x="499" 
d="M269 427v73h240v-73h-80v-427h-80v130l-234 -189l-42 50l115 91q-53 8 -87 44q-35 35 -35 80q0 26 10 48q10 21 28 34q-39 23 -62 59q-23 37 -23 77q0 48 34 82q35 34 83 34q46 0 79 -28t33 -68q0 -33 -34 -57q-35 -23 -83 -23v55q15 0 26 7q11 8 11 18q-2 9 -11 15
t-21 6q-15 0 -26 -12t-11 -29q0 -29 17 -56t47 -44q34 16 66 16l12 -70q-39 0 -67 -19q-28 -18 -28 -45q0 -21 20 -36q19 -15 47 -15q42 0 78 21q37 22 58 59v192h-80z" />
    <glyph glyph-name="uni0928_uni0930_uni094D.blwf.vatu" horiz-adv-x="475" 
d="M-10 427v73h495v-73h-80v-427h-80v126l-252 -140l-37 60l289 155v54h-132q-10 0 -16 -7q-7 -6 -7 -16v-50q0 -13 -8 -23q-8 -9 -19 -9q-29 0 -74 55q-44 54 -44 90q0 14 11 25q10 10 25 10h264v97h-335z" />
    <glyph glyph-name="uni0932_uni0930_uni094D.blwf.vatu" horiz-adv-x="558" 
d="M-10 427v73h578v-73h-80v-427h-80v84l-133 -78l-27 45l160 90v132q-35 -3 -65 -37t-44 -86l-61 36q5 31 25 59q-20 20 -36 30q-17 11 -28 11q-35 0 -59 -25q-25 -25 -25 -61q0 -48 24 -87q25 -38 65 -53l-37 -60q-59 22 -96 77q-36 55 -36 123q0 67 48 114t116 47
q30 0 60 -16t54 -45q20 24 45 37t50 13v77h-418z" />
    <glyph glyph-name="uni094B_uni0902.abvs" horiz-adv-x="220" 
d="M70 0v427h-80v73h74l-225 199l50 50l249 -249h92v-73h-80v-427h-80zM106 605v100h100v-100h-100z" />
    <glyph glyph-name="uni094B_uni0930_uni094D.rphf.abvs" horiz-adv-x="220" 
d="M70 0v427h-80v73h69l-213 203l48 46l136 -141q6 48 42 80t84 32q13 0 30 -7q18 -8 38 -22l-13 -55q-25 9 -55 9q-26 0 -45 -17q-18 -18 -18 -42q0 -19 5 -34q6 -16 16 -25l25 -27h91v-73h-80v-427h-80z" />
    <glyph glyph-name="uni094B_uni0930_uni094D.rphf.abvs_uni0902.abvs" horiz-adv-x="220" 
d="M70 0v427h-80v73h74l-223 203l53 46l136 -141q6 48 42 80t84 32q13 0 30 -7q18 -8 38 -22l-13 -55q-25 9 -55 9q-26 0 -45 -17q-18 -18 -18 -42q0 -19 5 -34q6 -16 16 -25l25 -27h91v-73h-80v-427h-80zM138 541v75h80v-75h-80z" />
    <glyph glyph-name="uni094C_uni0902.abvs" horiz-adv-x="220" 
d="M70 0v427h-80v73h59l-218 126l38 55l243 -172l-115 216l65 24l101 -249h67v-73h-80v-427h-80zM170 620v100h100v-100h-100z" />
    <glyph glyph-name="uni094C_uni0930_uni094D.rphf.abvs" horiz-adv-x="220" 
d="M70 0v427h-80v73h60l-229 115l32 56l258 -172l-166 218l51 32l77 -120q9 40 43 65q34 26 77 26q13 0 30 -7q18 -8 38 -22l-14 -55q-25 9 -54 9q-30 0 -52 -18q-21 -19 -21 -45q0 -14 10 -35t29 -47h71v-73h-80v-427h-80z" />
    <glyph glyph-name="uni094C_uni0930_uni094D.rphf.abvs_uni0902.abvs" horiz-adv-x="220" 
d="M70 0v427h-80v73h67l-210 110l32 56l238 -162l-170 213l55 32l77 -120q9 40 41 65q33 26 74 26q13 0 30 -7q18 -8 38 -22l-13 -55q-25 9 -55 9t-52 -18q-21 -19 -21 -45q0 -16 9 -37t26 -45h74v-73h-80v-427h-80zM172 536v75h80v-75h-80z" />
    <glyph glyph-name="uni091E_uni0930_uni094D.blwf.vatu" horiz-adv-x="557" 
d="M-10 427v73h577v-73h-80v-427h-80v101l-262 -135l-27 45l289 145v53q-24 -14 -54 -14q-17 0 -41 14q-5 -54 -48 -90q-44 -37 -103 -37q-38 0 -77 22q-39 21 -72 60l45 54q20 -29 48 -45t57 -16q28 0 48 26t20 62q0 27 -18 45q-17 19 -42 19q-14 0 -27 -6t-22 -17l-50 59
q23 19 48 29q26 10 52 10q50 0 89 -33q38 -33 47 -83q4 -1 16 0q17 2 30 2h24q25 -1 30 3v154h-417z" />
    <glyph glyph-name="uni0923_uni0930_uni094D.blwf.vatu" horiz-adv-x="555" 
d="M-10 427v73h575v-73h-80v-427h-80v99l-258 -133l-32 55l290 143v263h-97v-182q0 -56 -38 -96q-39 -40 -93 -40q-56 0 -95 40t-39 96v182h-53zM173 184q23 0 39 18t16 43v182h-105v-182q0 -25 15 -43q14 -18 35 -18z" />
    <glyph glyph-name="uni092F_uni0930_uni094D.blwf.vatu" horiz-adv-x="478" 
d="M-10 427v73h498v-73h-80v-427h-80v113l-266 -137l-37 55l128 64q-57 23 -91 76q-34 54 -34 120q34 -9 46 -9q32 0 54 21q23 22 23 52q0 20 -9 39q-10 19 -27 33h-125zM219 155q27 0 55 17q29 16 54 46v209h-127q15 -26 22 -44q8 -18 8 -28q0 -49 -32 -86q-31 -37 -80 -46
q11 -31 39 -49q27 -19 61 -19z" />
    <glyph glyph-name="uni0937_uni0930_uni094D.blwf.vatu" horiz-adv-x="435" 
d="M-10 427v73h455v-73h-80v-427h-80v105l-222 -114l-27 55l177 86q-65 0 -110 36q-46 36 -46 87v172h-67zM212 200q16 0 30 5q15 4 25 13l-130 146v-109q0 -23 22 -39t53 -16zM285 273v154h-128z" />
    <glyph glyph-name="uni0915_uni094D_uni0937.akhn_uni0930_uni094D.blwf.vatu" horiz-adv-x="566" 
d="M271 -18q-21 17 -50 68q-17 -3 -32 -3q-65 0 -111 40q-46 39 -46 95q0 35 24 69t65 58q-26 22 -41 46q-14 24 -14 45q0 50 34 85q35 35 83 35q49 0 83 -35q35 -35 35 -84q0 -22 -13 -45q-12 -23 -35 -42q19 -9 72 -9q31 0 55 6q23 5 36 16v100h-63v73h223v-73h-80v-427
h-80v70l-57 -29l-27 45l84 41v123q-35 -20 -90 -20q-47 0 -83 10q-37 10 -59 28q-33 -15 -52 -39q-20 -23 -20 -47q0 -25 20 -42q20 -18 48 -18l23 5q0 32 16 55t38 23q24 0 42 -20q17 -20 17 -49q0 -13 -6 -28t-17 -31l41 -54zM180 350q18 7 30 20q11 14 11 30q0 19 -11 32
t-27 13q-15 0 -26 -13t-11 -32q0 -12 9 -26q9 -13 25 -24z" />
    <glyph glyph-name="uni091C_uni094D_uni091E.akhn_uni0930_uni094D.blwf.vatu" horiz-adv-x="549" 
d="M-10 427v73h569v-73h-80v-427h-80v56l-73 -35l-27 45l100 46v202h-259q-6 0 -10 -4t-4 -10q0 -11 23 -27q22 -16 37 -16l88 8q27 0 46 -25t19 -61q0 -47 -33 -84q-33 -36 -84 -45q41 -34 68 -50l-54 -55q-59 34 -96 78q-46 0 -79 21q-33 20 -33 49q0 20 16 34
q15 14 37 14q14 0 33 -11q20 -10 44 -30q44 8 72 30q29 22 29 49q0 7 -8 11q-8 5 -20 5t-37 -7q-24 -6 -36 -6q-28 0 -70 44q-42 43 -42 72q0 38 29 64q28 27 69 27h255v38h-409z" />
    <glyph glyph-name="uni094F" unicode="&#x94f;" horiz-adv-x="220" 
d="M70 0v427h-80v73h42q-9 16 -25 26q-15 9 -33 9l-80 -5q-41 0 -73 31t-40 79h82q3 -18 20 -30q18 -12 41 -12q10 0 30 2q20 3 30 3q40 0 73 -21q34 -20 52 -55q-7 42 -31 70t-54 28q-64 0 -113 41t-60 104h82q6 -36 32 -59t59 -23q69 0 119 -55t51 -133h36v-73h-80v-427
h-80z" />
    <glyph glyph-name="uni093B" unicode="&#x93b;" horiz-adv-x="220" 
d="M70 0v427h-80v73h80v120h80v-120h81v-73h-81v-427h-80z" />
    <glyph glyph-name="uni0956" unicode="&#x956;" 
d="M-331 -175q-73 0 -127 41q-55 41 -66 104h82q6 -36 38 -59q31 -23 73 -23q41 0 73 23q31 23 37 59h82q-11 -63 -65 -104q-55 -41 -127 -41z" />
    <glyph glyph-name="uni0957" unicode="&#x957;" 
d="M-331 -135q-75 0 -130 33q-54 32 -63 82h82q4 -23 35 -37q32 -15 76 -15t75 15q31 14 35 37h82q-9 -50 -63 -82q-55 -33 -129 -33zM-331 -255q-75 0 -130 33q-54 32 -63 82h82q4 -23 35 -37q32 -15 76 -15t75 15q31 14 35 37h82q-9 -50 -63 -82q-55 -33 -129 -33z" />
    <glyph glyph-name="uni093A" unicode="&#x93a;" 
d="M-152 485v135h80v-135h-80z" />
    <glyph glyph-name="uni0973" unicode="&#x973;" horiz-adv-x="594" 
d="M364 427v73h240v-73h-80v-427h-80v204q-30 -14 -41 -14q-26 0 -42 9q11 -24 11 -40q0 -56 -42 -95q-41 -39 -100 -39q-63 0 -122 55q-58 55 -91 145l62 29q25 -69 67 -112q41 -42 84 -42q26 0 44 17q18 18 18 42q0 34 -26 59q-26 24 -62 24q-18 0 -33 -4l-18 61
q43 8 72 28q28 21 28 45q0 23 -13 39t-32 16q-26 0 -57 -17q-31 -16 -62 -47l-40 52q34 40 76 63q41 22 83 22q52 0 88 -37q37 -38 37 -91q0 -24 -12 -46q-11 -22 -32 -36q17 -12 47 -19q29 -6 68 -6q19 0 40 12v150h-80zM442 485v135h80v-135h-80z" />
    <glyph glyph-name="uni0974" unicode="&#x974;" horiz-adv-x="821" 
d="M443 0v214q-30 -14 -41 -14q-7 0 -21 6q-13 6 -33 17q11 -13 17 -28q6 -16 6 -31q0 -53 -40 -91t-97 -38q-65 0 -125 55t-93 145l62 29q25 -69 67 -112q41 -42 84 -42q26 0 44 21t18 51q0 37 -38 58q-37 20 -83 8l-18 61q43 8 72 28q28 21 28 45q0 22 -13 38t-32 16
q-27 0 -58 -16q-31 -17 -61 -47l-40 52q34 41 76 63q42 23 83 23q52 0 88 -38q37 -38 37 -91q0 -20 -9 -41t-25 -41q17 -12 42 -19q24 -6 53 -6q19 0 31 2q13 2 19 5v145h-80v73h468v-73h-80v-427h-80v427h-148v-427h-80zM669 485v135h80v-135h-80z" />
    <glyph glyph-name="uni0975" unicode="&#x975;" horiz-adv-x="814" 
d="M364 427v73h240v-73h-80v-427h-80v204q-30 -14 -41 -14q-26 0 -42 9q11 -24 11 -40q0 -56 -42 -95q-41 -39 -100 -39q-63 0 -122 55q-58 55 -91 145l62 29q25 -69 67 -112q41 -42 84 -42q26 0 44 17q18 18 18 42q0 34 -26 59q-26 24 -62 24q-18 0 -33 -4l-18 61
q43 8 72 28q28 21 28 45q0 23 -13 39t-32 16q-26 0 -57 -17q-31 -16 -62 -47l-40 52q34 40 76 63q41 22 83 22q52 0 88 -37q37 -38 37 -91q0 -24 -12 -46q-11 -22 -32 -36q17 -12 47 -19q29 -6 68 -6q19 0 40 12v150h-80zM664 0v427h-80v73h42q-9 16 -25 26q-15 9 -33 9
l-80 -5q-41 0 -73 31t-40 79h82q3 -18 20 -30q18 -12 41 -12q10 0 30 2q20 3 30 3q40 0 73 -21q34 -20 52 -55q-7 42 -31 70t-54 28q-64 0 -113 41t-60 104h82q6 -36 32 -59t59 -23q69 0 119 -55t51 -133h36v-73h-80v-427h-80z" />
    <glyph glyph-name="uni0976" unicode="&#x976;" horiz-adv-x="594" 
d="M364 427v73h240v-73h-80v-427h-80v204q-30 -14 -41 -14q-26 0 -42 9q11 -24 11 -40q0 -56 -42 -95q-41 -39 -100 -39q-63 0 -122 55q-58 55 -91 145l62 29q25 -69 67 -112q41 -42 84 -42q26 0 44 17q18 18 18 42q0 34 -26 59q-26 24 -62 24q-18 0 -33 -4l-18 61
q43 8 72 28q28 21 28 45q0 23 -13 39t-32 16q-26 0 -57 -17q-31 -16 -62 -47l-40 52q34 40 76 63q41 22 83 22q52 0 88 -37q37 -38 37 -91q0 -24 -12 -46q-11 -22 -32 -36q17 -12 47 -19q29 -6 68 -6q19 0 40 12v150h-80zM263 -175q-73 0 -127 41q-55 41 -66 104h82
q6 -36 38 -59q31 -23 73 -23q41 0 73 23q31 23 37 59h82q-11 -63 -65 -104q-55 -41 -127 -41z" />
    <glyph glyph-name="uni0977" unicode="&#x977;" horiz-adv-x="594" 
d="M364 427v73h240v-73h-80v-427h-80v204q-30 -14 -41 -14q-26 0 -42 9q11 -24 11 -40q0 -56 -42 -95q-41 -39 -100 -39q-63 0 -122 55q-58 55 -91 145l62 29q25 -69 67 -112q41 -42 84 -42q26 0 44 17q18 18 18 42q0 34 -26 59q-26 24 -62 24q-18 0 -33 -4l-18 61
q43 8 72 28q28 21 28 45q0 23 -13 39t-32 16q-26 0 -57 -17q-31 -16 -62 -47l-40 52q34 40 76 63q41 22 83 22q52 0 88 -37q37 -38 37 -91q0 -24 -12 -46q-11 -22 -32 -36q17 -12 47 -19q29 -6 68 -6q19 0 40 12v150h-80zM263 -135q-75 0 -130 33q-54 32 -63 82h82
q4 -23 35 -37q32 -15 76 -15t75 15q31 14 35 37h82q-9 -50 -63 -82q-55 -33 -129 -33zM263 -255q-75 0 -130 33q-54 32 -63 82h82q4 -23 35 -37q32 -15 76 -15t75 15q31 14 35 37h82q-9 -50 -63 -82q-55 -33 -129 -33z" />
    <glyph glyph-name="glyph306" 
d="M-210 -54l-22 65l224 165v-80z" />
    <glyph glyph-name="glyph307" 
d="M-340 500l-209 203l53 46l229 -249h-73z" />
    <glyph glyph-name="glyph308" 
d="M-346 500l-230 121l38 60l238 -177l-130 221l65 24l105 -249h-86z" />
    <glyph glyph-name="glyph309" 
d="M-340 500l-231 199l50 50l254 -249h-73zM-304 605v100h100v-100h-100z" />
    <glyph glyph-name="glyph310" 
d="M-340 500l-224 203l48 46l136 -141q5 43 41 72t85 29q21 0 38 -5q17 -4 30 -13l-13 -55q-25 9 -55 9q-26 0 -45 -17q-18 -18 -18 -42q0 -19 5 -34q6 -16 16 -25l29 -27h-73z" />
    <glyph glyph-name="glyph311" 
d="M-272 526v79h80v-79h-80zM-340 500l-229 203l53 46l136 -141q5 43 41 72t85 29q21 0 38 -5q17 -4 30 -13l-13 -55q-25 9 -55 9q-26 0 -45 -17q-18 -18 -18 -42q0 -19 5 -34q6 -16 16 -25l29 -27h-73z" />
    <glyph glyph-name="glyph312" 
d="M-346 500l-240 126l38 55l243 -172l-115 216l55 24l105 -249h-86zM-247 620v100h100v-100h-100z" />
    <glyph glyph-name="glyph313" 
d="M-351 500l-249 115l32 56l263 -167l-171 213l46 32l82 -120q8 35 42 58q33 22 78 22q21 0 38 -5q17 -4 30 -13l-14 -55q-25 9 -54 9q-30 0 -52 -18q-21 -19 -21 -45q0 -17 9 -38t27 -44h-86z" />
    <glyph glyph-name="glyph314" 
d="M-250 526v84h80v-84h-80zM-351 500l-224 110l32 56l238 -162l-170 213l55 32l77 -120q8 35 40 58q33 22 75 22q21 0 38 -5q17 -4 30 -13l-13 -55q-25 9 -55 9t-52 -18q-21 -19 -21 -45q0 -16 9 -37q10 -21 28 -45h-87z" />
    <glyph glyph-name="glyph315" 
d="M-354 611v100h100v-100h-100z" />
    <glyph glyph-name="glyph316" 
d="M-333 500q-21 18 -33 43t-12 52q0 47 36 81q36 33 87 33q21 0 38 -5q17 -4 30 -13l-14 -55q-25 9 -54 9q-23 0 -39 -16t-16 -38q0 -23 13 -47t37 -44h-73z" />
    <glyph glyph-name="glyph317" 
d="M-333 500q-17 21 -27 43q-9 22 -9 43q0 57 40 98q41 40 98 40q35 0 59 -14v-59q-25 9 -59 9q-31 0 -53 -22q-22 -21 -22 -52q0 -27 11 -50t30 -36h-68zM-266 531v79h80v-79h-80z" />
    <glyph glyph-name="glyph318" 
d="M-303 565q-64 0 -113 41t-60 104h82q6 -36 32 -59t59 -23t58 23q26 23 32 59h82q-11 -63 -60 -104q-48 -41 -112 -41z" />
    <glyph glyph-name="glyph319" 
d="M-303 552q-63 0 -112 44t-61 111h82q6 -36 32 -59t59 -23q29 0 52 23t29 59h91q-12 -67 -61 -111q-48 -44 -111 -44zM-350 676v83h80v-83h-80z" />
    <glyph glyph-name="glyph320" 
d="M-433 595q-64 0 -113 41t-60 104h82q6 -36 32 -59t59 -23q70 0 120 -45t50 -108h-83q0 37 -25 64q-26 26 -62 26z" />
    <glyph glyph-name="glyph321" 
d="M-337 -220q-80 0 -150 24q-71 23 -124 68l35 51q43 -36 105 -56q62 -19 134 -19q36 0 62 17q26 18 26 42q0 17 -16 29t-38 12q-15 0 -30 -7q-14 -7 -25 -20l-45 50q26 22 52 33q25 12 47 12q51 0 87 -32t36 -77q0 -53 -46 -90q-45 -37 -110 -37z" />
    <glyph glyph-name="glyph322" 
d="M-313 -206q-48 0 -83 32q-34 32 -34 77t37 77t89 32q75 0 153 -61q78 -60 139 -165l-60 -36q-54 94 -117 149q-62 54 -115 54q-26 0 -45 -15q-18 -14 -18 -35q0 -19 16 -32t38 -13t46 14l27 -56q-38 -22 -73 -22z" />
    <glyph glyph-name="glyph323" 
d="M-358 -260q-65 0 -117 17t-83 49l36 35q33 -29 76 -45q42 -15 88 -15q38 0 64 13q27 14 27 33q0 14 -11 23q-11 10 -26 10q-16 0 -32 -10q-15 -10 -27 -27l-41 26q18 27 45 42q26 15 55 15q43 0 74 -23t31 -56q0 -36 -47 -62q-46 -25 -112 -25zM-485 -55l181 56l182 -61
l-27 -42l-155 52l-163 -52z" />
    <glyph glyph-name="glyph324" 
d="M-303 -242q-47 0 -80 21t-33 50q0 33 33 56t80 23q67 0 134 -33q68 -32 126 -92l-37 -25q-48 50 -106 77t-117 27q-22 0 -38 -10q-16 -9 -16 -23q0 -12 16 -21q16 -8 38 -8v-42zM-486 -64l182 66l181 -66l-13 -42l-168 62l-169 -66z" />
    <glyph glyph-name="glyph325" 
d="M-467 -173l127 173h73l136 -173h-73l-100 118l-86 -118h-77z" />
    <glyph glyph-name="glyph326" 
d="M-304 -200q-64 0 -109 35q-45 34 -45 83q0 45 37 77t90 32h82v-63h-82q-24 0 -42 -12q-17 -12 -17 -29q0 -24 25 -42q25 -17 61 -17q33 0 64 18l27 -55q-58 -27 -91 -27z" />
    <glyph glyph-name="glyph327" 
d="M-331 -240q-51 0 -87 21q-36 22 -36 52q0 19 12 35q13 17 33 24q-16 4 -26 19t-10 35q0 29 23 49q22 20 54 20h87v-55h-64q-13 0 -23 -7q-9 -6 -9 -16q0 -9 11 -16q10 -6 25 -6h37v-60h-46q-13 0 -22 -8t-9 -19q0 -7 12 -13q11 -5 28 -5q26 0 49 6q22 6 38 17l32 -46
q-19 -13 -47 -20t-62 -7z" />
    <glyph glyph-name="glyph328" 
d="M-330 -102l-37 50l63 32l187 -155l-41 -41l-146 127z" />
    <glyph glyph-name="glyph329" 
d="M-229 -220q-80 0 -150 24q-71 23 -124 68l35 51q43 -36 105 -56q62 -19 134 -19q36 0 62 17q26 18 26 42q0 17 -16 29t-38 12q-15 0 -30 -7q-14 -7 -25 -20l-45 50q26 22 52 33q25 12 47 12q51 0 87 -32t36 -77q0 -53 -46 -90q-45 -37 -110 -37z" />
    <glyph glyph-name="glyph330" 
d="M-205 -206q-48 0 -83 32q-34 32 -34 77t37 77t89 32q75 0 153 -61q78 -60 139 -165l-60 -36q-54 94 -117 149q-62 54 -115 54q-26 0 -45 -15q-18 -14 -18 -35q0 -19 16 -32t38 -13t46 14l27 -56q-38 -22 -73 -22z" />
    <glyph glyph-name="glyph331" 
d="M-250 -260q-65 0 -117 17t-83 49l36 35q33 -29 76 -45q42 -15 88 -15q38 0 64 13q27 14 27 33q0 14 -11 23q-11 10 -26 10q-16 0 -32 -10q-15 -10 -27 -27l-41 26q18 27 45 42q26 15 55 15q43 0 74 -23t31 -56q0 -36 -47 -62q-46 -25 -112 -25zM-377 -55l181 56l182 -61
l-27 -42l-155 52l-163 -52z" />
    <glyph glyph-name="glyph332" 
d="M-195 -242q-47 0 -80 21t-33 50q0 33 33 56t80 23q67 0 134 -33q68 -32 126 -92l-37 -25q-48 50 -106 77t-117 27q-22 0 -38 -10q-16 -9 -16 -23q0 -12 16 -21q16 -8 38 -8v-42zM-378 -64l182 66l181 -66l-13 -42l-168 62l-169 -66z" />
    <glyph glyph-name="glyph333" 
d="M-359 -173l127 173h73l136 -173h-73l-100 118l-86 -118h-77z" />
    <glyph glyph-name="glyph334" 
d="M-196 -200q-64 0 -109 35q-45 34 -45 83q0 45 37 77t90 32h82v-63h-82q-24 0 -42 -12q-17 -12 -17 -29q0 -24 25 -42q25 -17 61 -17q33 0 64 18l27 -55q-58 -27 -91 -27z" />
    <glyph glyph-name="glyph335" 
d="M-223 -240q-51 0 -87 21q-36 22 -36 52q0 19 12 35q13 17 33 24q-16 4 -26 19t-10 35q0 29 23 49q22 20 54 20h87v-55h-64q-13 0 -23 -7q-9 -6 -9 -16q0 -9 11 -16q10 -6 25 -6h37v-60h-46q-13 0 -22 -8t-9 -19q0 -7 12 -13q11 -5 28 -5q26 0 49 6q22 6 38 17l32 -46
q-19 -13 -47 -20t-62 -7z" />
    <glyph glyph-name="glyph336" 
d="M-242 -390q-131 0 -233 59l26 52q80 -56 207 -56q39 0 66 19q28 18 28 45q0 17 -14 29q-15 12 -35 12q-13 0 -29 -7q-15 -7 -31 -20l-35 46q23 19 48 30q24 10 47 10q48 0 83 -29q34 -30 34 -71q0 -49 -47 -84q-48 -35 -115 -35z" />
    <glyph glyph-name="glyph337" 
d="M-193 -365q-48 0 -83 27q-34 26 -34 64q0 39 34 67t82 28q58 0 129 -54t138 -150l-46 -32q-60 86 -118 134q-59 48 -103 48q-20 0 -34 -12t-14 -29q0 -15 14 -25q15 -11 35 -11q22 0 46 14l23 -50q-33 -19 -69 -19z" />
    <glyph glyph-name="uni0939_uni0941.psts" horiz-adv-x="430" 
d="M-10 427v73h450v-73h-71v-109h-199q-17 0 -30 -7q-12 -6 -12 -16q1 -7 10 -18q10 -11 27 -26q51 24 78 24q63 0 108 -35t45 -85q0 -29 -15 -52q-14 -23 -38 -32l-54 38q13 11 20 23t7 23q0 19 -21 32q-22 13 -52 13q-48 0 -82 -25t-34 -61q0 -43 66 -74t159 -31l-16 -48
q44 -9 73 -36t29 -61q0 -45 -45 -77t-109 -32q-77 0 -143 29q-67 28 -110 80l36 32q41 -41 98 -64q56 -22 119 -22q31 0 52 16q22 16 22 38q0 17 -14 29q-15 12 -35 12q-13 0 -29 -7q-15 -7 -31 -20l-35 46l21 16q-83 19 -135 68q-53 49 -53 106q0 32 16 61q15 29 43 48
q-27 19 -43 43q-15 23 -15 46q0 34 29 57q29 24 70 24h142v34h-299z" />
    <glyph glyph-name="uni0939_uni0942.psts" horiz-adv-x="430" 
d="M-10 427v73h450v-73h-71v-109h-199q-17 0 -30 -7q-12 -6 -12 -16q1 -7 10 -18q10 -11 27 -26q51 24 78 24q63 0 108 -35t45 -85q0 -29 -15 -52q-14 -23 -38 -32l-54 38q13 11 20 23t7 23q0 19 -21 32q-22 13 -52 13q-48 0 -82 -25t-34 -61q0 -50 63 -85t152 -35l-14 -55
q60 -14 111 -53q51 -40 85 -99l-46 -27q-35 61 -92 97q-56 35 -119 35q-15 0 -25 -12q-11 -12 -11 -29q0 -15 14 -25q14 -11 33 -11q20 0 36 9l23 -50q-24 -14 -59 -14q-53 0 -90 27q-37 26 -37 64q0 30 22 56q22 25 57 34q-81 20 -132 68q-51 49 -51 105q0 32 16 61
q15 29 43 48q-27 19 -43 43q-15 23 -15 46q0 34 29 57q29 24 70 24h142v34h-299z" />
    <glyph glyph-name="glyph340" 
d="M-344 511v222h80v-222h-80z" />
    <glyph glyph-name="glyph341" 
d="M-419 511v222h80v-222h-80zM-269 511v222h80v-222h-80z" />
    <glyph glyph-name="glyph342" 
d="M-532 -72q0 46 37 79t90 33q29 0 52 -11t35 -31q17 20 41 31t49 11q47 0 81 -35q33 -35 33 -84q0 -44 -32 -78q-33 -33 -81 -39q-22 -3 -37 -14q-15 -10 -15 -24q0 -17 18 -29t43 -12q30 0 55 12l23 -38q-47 -18 -78 -18q-51 0 -88 25q-36 25 -36 60q0 39 28 67t68 29
q27 0 45 18q19 17 19 41q0 25 -14 43t-33 18q-24 -3 -45 -24q-21 -22 -32 -55l-65 16q1 4 9 16l13 21q-9 12 -25 19t-35 7q-22 0 -37 -16t-15 -38q0 -30 27 -57q27 -28 71 -42l-28 -45q-63 20 -102 60t-39 84z" />
    <glyph glyph-name="glyph343" 
d="M-552 -73q0 46 41 79q42 33 100 33q32 0 57 -11q26 -12 39 -32q20 21 45 33q26 11 53 11q53 0 91 -33q37 -33 37 -79q0 -42 -33 -74t-82 -38q-24 0 -42 -8q-17 -8 -17 -19q0 -9 13 -16q12 -6 30 -6h26v-42h-25q-20 0 -34 -6q-14 -5 -14 -13q0 -6 14 -10q13 -3 33 -3
q45 0 74 16l30 -40q-32 -18 -104 -18q-48 0 -82 16t-34 39q0 15 12 28q11 12 30 17q-15 3 -24 13q-10 11 -10 25q0 28 31 48t74 20q26 9 43 29q16 19 16 42q0 22 -16 37t-38 15q-27 -3 -49 -24q-23 -21 -35 -54l-72 16q6 16 24 39q-9 11 -26 17t-40 6q-24 0 -40 -16
q-17 -15 -17 -37q0 -30 30 -57t78 -41l-31 -46q-69 20 -113 60q-43 40 -43 84z" />
    <glyph glyph-name="uni25CC" unicode="&#x25cc;" horiz-adv-x="680" 
d="M304 484q0 15 11 25q10 11 25 11t25 -11q11 -10 11 -25t-11 -25q-10 -11 -25 -11t-25 11q-11 10 -11 25zM304 16q0 15 11 25q10 11 25 11t25 -11q11 -10 11 -25t-11 -25q-10 -11 -25 -11t-25 11q-11 10 -11 25zM70 250q0 15 11 25q10 11 25 11t25 -11q11 -10 11 -25
t-11 -25q-10 -11 -25 -11t-25 11q-11 10 -11 25zM538 250q0 15 11 25q10 11 25 11t25 -11q11 -10 11 -25t-11 -25q-10 -11 -25 -11t-25 11q-11 10 -11 25zM102 133q0 15 11 25q10 11 25 11t25 -11q11 -10 11 -25t-11 -25q-10 -11 -25 -11t-25 11q-11 10 -11 25zM507 367
q0 15 11 25q10 11 25 11t25 -11q11 -10 11 -25t-11 -25q-10 -11 -25 -11t-25 11q-11 10 -11 25zM421 453q0 15 11 25q10 11 25 11t25 -11q11 -10 11 -25t-11 -25q-10 -11 -25 -11t-25 11q-11 10 -11 25zM187 48q0 15 11 25q10 11 25 11t25 -11q11 -10 11 -25t-11 -26
q-10 -11 -25 -11t-25 11q-11 11 -11 26zM102 367q0 15 11 25q10 11 25 11t25 -11q11 -10 11 -25t-11 -25q-10 -11 -25 -11t-25 11q-11 10 -11 25zM507 133q0 15 11 25q10 11 25 11t25 -11q11 -10 11 -25t-11 -25q-10 -11 -25 -11t-25 11q-11 10 -11 25zM187 453q0 15 11 25
q10 11 25 11t25 -11q11 -10 11 -25t-11 -25q-10 -11 -25 -11t-25 11q-11 10 -11 25zM421 48q0 15 11 25q10 11 25 11t25 -11q11 -10 11 -25t-11 -26q-10 -11 -25 -11t-25 11q-11 11 -11 26z" />
    <glyph glyph-name="uni200C" unicode="&#x200c;" 
d="M0 -245v995h40v-995h-40z" />
    <glyph glyph-name="uni200D" unicode="&#x200d;" 
d="M0 -245v995h180v-40h-140v-955h-40z" />
    <glyph glyph-name="exclam" unicode="!" horiz-adv-x="172" 
d="M52 0v68h68v-68h-68zM74 152l-22 304v152h68v-152l-22 -304h-24z" />
    <glyph glyph-name="quotedbl" unicode="&#x22;" horiz-adv-x="294" 
d="M52 640h74l-15 -191h-35zM168 640h74l-15 -191h-35z" />
    <glyph glyph-name="numbersign" unicode="#" horiz-adv-x="648" 
d="M100 320v65h139l36 111h65l-36 -111h126l36 111h64l-36 -111h102v-65h-122l-41 -126h115v-64h-136l-42 -130h-64l41 130h-125l-42 -130h-65l42 130h-105v64h126l40 126h-118zM409 320h-126l-41 -126h126z" />
    <glyph glyph-name="dollar" unicode="$" horiz-adv-x="560" 
d="M52 205h76q0 -57 35 -100q36 -44 89 -51v225q-82 20 -133 70q-52 49 -52 107q0 63 53 110q54 48 132 53v65h60v-66q77 -8 129 -63t52 -129h-76q-8 46 -37 79q-28 33 -68 43v-213q86 -18 141 -64q55 -45 55 -97q0 -73 -56 -127q-57 -54 -140 -61v-62h-60v62q-85 7 -142 70
q-58 63 -58 149zM312 54q51 6 86 39q34 32 34 74q0 32 -34 60q-33 28 -86 40v-213zM252 550q-47 -6 -78 -33q-31 -26 -31 -61q0 -34 30 -64q31 -30 79 -44v202z" />
    <glyph glyph-name="percent" unicode="%" horiz-adv-x="742" 
d="M52 456q0 63 45 107q44 45 107 45t107 -45q45 -44 45 -107t-45 -107q-44 -45 -107 -45t-107 45q-45 44 -45 107zM120 456q0 -38 25 -64q24 -27 59 -27q34 0 59 27q24 26 24 64t-24 64q-25 27 -59 27q-35 0 -59 -27q-25 -26 -25 -64zM150 0l372 608h78l-373 -608h-77z
M386 152q0 63 45 107q44 45 107 45t107 -45q45 -44 45 -107t-45 -107q-44 -45 -107 -45t-107 45q-45 44 -45 107zM454 152q0 -41 25 -70q24 -29 59 -29t59 29q25 29 25 70t-25 69q-24 29 -59 29t-59 -29q-25 -28 -25 -69z" />
    <glyph glyph-name="ampersand" unicode="&#x26;" horiz-adv-x="495" 
d="M14 152q0 47 35 95q36 48 97 83q-35 45 -53 85q-19 40 -19 71q0 51 41 86q42 36 100 36q55 0 94 -40t39 -97q0 -43 -27 -84q-28 -41 -75 -68l94 -121q8 30 8 76h68q0 -96 -26 -141l102 -133h-91l-57 68q-25 -35 -66 -55t-90 -20q-72 0 -123 47q-51 46 -51 112zM90 159
q0 -41 31 -69q31 -29 75 -29q30 0 59 17q30 17 51 48l-121 152q-44 -25 -70 -57q-25 -32 -25 -62zM150 478q0 -19 14 -46q13 -27 39 -60q32 18 51 45q18 27 18 54q0 30 -16 51t-38 21q-28 0 -48 -19t-20 -46z" />
    <glyph glyph-name="quotesingle" unicode="'" horiz-adv-x="178" 
d="M52 640h74l-15 -191h-35z" />
    <glyph glyph-name="parenleft" unicode="(" horiz-adv-x="303" 
d="M52 266q0 102 34 192q35 94 103 162h62q-61 -73 -93 -166q-30 -89 -30 -188q0 -100 30 -190q32 -94 93 -167h-62q-68 68 -104 164q-33 90 -33 193z" />
    <glyph glyph-name="parenright" unicode=")" horiz-adv-x="303" 
d="M52 620h62q66 -66 101 -158q36 -92 36 -196q0 -106 -36 -198q-35 -93 -101 -159h-62q60 71 91 163q32 92 32 194q0 100 -32 192q-31 91 -91 162z" />
    <glyph glyph-name="asterisk" unicode="*" horiz-adv-x="466" 
d="M184 592q0 19 14 33q14 13 34 13q17 0 32 -14q14 -15 14 -32q0 -16 -12 -48q-11 -31 -34 -78q-25 52 -36 79q-12 31 -12 47zM74 479q-16 9 -21 26q-4 18 5 33q8 14 27 19q18 5 32 -3q33 -18 94 -102q-105 9 -137 27zM125 330q-17 -9 -35 -5t-27 19q-8 13 -1 31t23 27
q41 23 125 27q-28 -41 -49 -66q-22 -25 -36 -33zM277 288q0 -17 -13 -28q-13 -12 -32 -12q-17 0 -32 13q-14 12 -14 27q0 34 46 128q45 -92 45 -128zM391 403q15 -9 20 -25q5 -17 -4 -32q-8 -14 -28 -19q-19 -5 -34 3q-31 17 -91 100q105 -9 137 -27zM345 553q17 9 35 4
q19 -6 29 -23q8 -14 3 -32q-6 -19 -21 -27q-21 -12 -137 -22q60 83 91 100z" />
    <glyph glyph-name="plus" unicode="+" horiz-adv-x="484" 
d="M52 190v68h156v156h68v-156h156v-68h-156v-156h-68v156h-156z" />
    <glyph glyph-name="comma" unicode="," horiz-adv-x="196" 
d="M76 -122l-24 22q18 22 28 47q10 26 10 53h-26v80h80v-80q0 -43 -57 -110z" />
    <glyph glyph-name="hyphen" unicode="-" horiz-adv-x="332" 
d="M52 192v68h228v-68h-228z" />
    <glyph glyph-name="period" unicode="." horiz-adv-x="184" 
d="M52 0v80h80v-80h-80z" />
    <glyph glyph-name="slash" unicode="/" horiz-adv-x="420" 
d="M52 -138l259 758h57l-259 -758h-57z" />
    <glyph glyph-name="zero" unicode="0" horiz-adv-x="480" 
d="M12 304q0 125 58 213q65 98 170 98t170 -98q58 -88 58 -213t-58 -213q-65 -98 -170 -98t-170 98q-58 88 -58 213zM80 304q0 -100 38 -168q43 -79 122 -79q78 0 122 79q37 68 37 168t-37 168q-44 79 -122 79q-79 0 -122 -79q-38 -68 -38 -168z" />
    <glyph glyph-name="one" unicode="1" horiz-adv-x="479" 
d="M130 433v53q67 0 116 31q53 34 58 91h46v-608h-68v433h-152z" />
    <glyph glyph-name="two" unicode="2" horiz-adv-x="480" 
d="M31 0q0 87 65 163q53 63 148 118q64 37 94 66q43 44 43 94q0 47 -41 78q-39 28 -92 28q-55 0 -94 -37q-40 -38 -40 -92v-38h-68v38q0 82 60 140q59 57 142 57q81 0 140 -48q61 -51 61 -126q0 -66 -48 -124q-40 -48 -111 -89l-21 -12q-134 -76 -147 -148h327v-68h-418z
" />
    <glyph glyph-name="three" unicode="3" horiz-adv-x="479" 
d="M23 190h68q0 -56 46 -93q45 -36 106 -36q58 0 101 33q44 35 44 88q0 49 -45 79q-42 28 -100 28h-53v68h53q46 0 80 27q35 29 35 72q0 41 -36 67q-33 24 -79 24q-55 0 -95 -31q-42 -33 -42 -83h-68q0 77 59 130q58 52 139 52q76 0 132 -44q58 -45 58 -115q0 -41 -17 -75
q-18 -36 -51 -55q45 -12 72 -54q26 -39 26 -90q0 -81 -64 -136q-63 -53 -149 -53q-89 0 -154 56q-66 57 -66 141z" />
    <glyph glyph-name="four" unicode="4" horiz-adv-x="480" 
d="M27 152v68l274 388h68v-388h84v-68h-84v-152h-68v152h-274zM110 220h191v266z" />
    <glyph glyph-name="five" unicode="5" horiz-adv-x="479" 
d="M23 182h68q0 -51 45 -84q42 -30 100 -30q62 0 106 39q46 40 46 98q0 61 -45 103t-107 42q-40 0 -76 -15q-36 -16 -61 -46h-69l61 315h319v-68h-258l-30 -156q18 22 51 31q25 7 63 7q90 0 155 -62t65 -151q0 -86 -66 -146q-64 -59 -154 -59q-86 0 -148 50q-65 53 -65 132z
" />
    <glyph glyph-name="six" unicode="6" horiz-adv-x="480" 
d="M27 228v76q0 125 58 213q65 98 170 98q76 0 131 -50q56 -51 56 -124h-69q0 45 -36 76q-34 30 -82 30q-77 0 -121 -75q-39 -66 -39 -161q19 40 59 63q39 21 86 21q87 0 149 -56q64 -58 64 -141q0 -86 -63 -146q-63 -59 -150 -59q-91 0 -153 71q-60 68 -60 164zM103 190
q0 -55 40 -94q41 -39 97 -39q59 0 102 41q42 41 42 100q0 56 -43 94q-42 38 -101 38q-57 0 -97 -41t-40 -99z" />
    <glyph glyph-name="seven" unicode="7" horiz-adv-x="480" 
d="M12 536v68h456v-68q-119 -83 -177 -234q-51 -133 -51 -302h-84q0 161 52 296q58 146 169 240h-365z" />
    <glyph glyph-name="eight" unicode="8" horiz-adv-x="480" 
d="M28 182q0 50 28 90q28 41 74 58q-40 14 -64 49t-24 77q0 71 61 116q58 43 137 43t137 -43q61 -45 61 -116q0 -42 -26 -77q-25 -34 -66 -49q47 -17 77 -58q29 -40 29 -90q0 -81 -64 -136q-62 -53 -148 -53t-148 53q-64 55 -64 136zM96 182q0 -53 44 -88q42 -33 100 -33
t99 33q44 35 44 88q0 51 -44 83q-42 31 -99 31q-58 0 -99 -30q-45 -33 -45 -84zM110 456q0 -43 41 -68q37 -23 89 -23t88 23q41 25 41 68t-41 68q-36 23 -88 23t-89 -23q-41 -25 -41 -68z" />
    <glyph glyph-name="nine" unicode="9" horiz-adv-x="479" 
d="M30 410q0 85 60 145q61 60 146 60q91 0 153 -71q60 -68 60 -164v-76q0 -141 -61 -226q-62 -85 -164 -85q-77 0 -133 49q-57 51 -57 125h68q0 -46 37 -76q36 -30 85 -30q68 0 108 61q41 61 41 163q-27 -27 -63 -42t-74 -15q-83 0 -144 51q-62 53 -62 131zM99 418
q0 -54 41 -92q40 -37 96 -37t96 37q41 38 41 92t-41 92q-40 37 -96 37t-96 -37q-41 -38 -41 -92z" />
    <glyph glyph-name="colon" unicode=":" horiz-adv-x="184" 
d="M52 0v80h80v-80h-80zM52 292v80h80v-80h-80z" />
    <glyph glyph-name="semicolon" unicode=";" horiz-adv-x="196" 
d="M76 -122l-24 22q18 22 28 47q10 26 10 53h-26v80h80v-80q0 -43 -57 -110zM64 292v80h80v-80h-80z" />
    <glyph glyph-name="less" unicode="&#x3c;" horiz-adv-x="418" 
d="M52 192v61l314 187v-76l-241 -140l241 -140v-76z" />
    <glyph glyph-name="equal" unicode="=" horiz-adv-x="408" 
d="M52 280v65h304v-65h-304zM52 90v64h304v-64h-304z" />
    <glyph glyph-name="greater" unicode="&#x3e;" horiz-adv-x="418" 
d="M366 192l-314 -184v76l241 140l-241 140v76l314 -187v-61z" />
    <glyph glyph-name="question" unicode="?" horiz-adv-x="484" 
d="M52 426q0 76 56 129t134 53q77 0 133 -50q57 -52 57 -126q0 -38 -19 -75q-19 -36 -53 -65q-42 -35 -65 -74t-23 -74h-68q0 46 21 89t59 75t58 64q21 33 21 60q0 46 -37 77q-35 30 -84 30q-50 0 -85 -32q-37 -33 -37 -81h-68zM204 0v68h68v-68h-68z" />
    <glyph glyph-name="at" unicode="@" horiz-adv-x="862" 
d="M208 228q0 81 55 139q56 58 136 58q35 0 63 -10q32 -11 51 -34v36h77v-297q0 -17 15 -30q14 -12 35 -12q50 0 85 51q35 50 35 122q0 126 -96 216q-97 89 -233 89t-232 -97t-96 -235q0 -127 96 -216q96 -90 232 -90q64 0 117 14q52 14 87 40l35 -64q-43 -30 -104 -46
q-62 -16 -135 -16q-169 0 -289 111q-120 110 -120 267q0 170 120 290t289 120q170 0 290 -112t120 -271q0 -104 -59 -177q-59 -74 -142 -74q-47 0 -82 22q-35 23 -43 58q-17 -26 -48 -41t-68 -15q-80 0 -136 61q-55 60 -55 143zM290 228q0 -50 31 -86q31 -37 78 -37
q48 0 81 37q33 36 33 86t-33 86t-81 36q-47 0 -78 -37q-31 -36 -31 -85z" />
    <glyph glyph-name="A" unicode="A" horiz-adv-x="508" 
d="M7 0l198 608h98l198 -608h-76l-61 182h-220l-61 -182h-76zM166 250h176l-88 263z" />
    <glyph glyph-name="B" unicode="B" horiz-adv-x="529" 
d="M52 0v608h258q73 0 126 -49q53 -50 53 -122q0 -41 -20 -75q-21 -34 -56 -51q43 -20 68 -57q27 -38 27 -83q0 -74 -60 -123q-58 -48 -138 -48h-258zM128 68h182q49 0 85 28q37 30 37 75q0 46 -37 77q-36 30 -85 30h-182v-210zM128 346h182q42 0 72 26q31 26 31 65
q0 42 -30 72t-73 30h-182v-193z" />
    <glyph glyph-name="C" unicode="C" horiz-adv-x="518" 
d="M24 304q0 143 68 230q69 86 182 86q89 0 154 -57q66 -58 74 -145h-76q-5 57 -49 96q-44 38 -103 38q-82 0 -131 -78q-43 -70 -43 -170q0 -98 44 -167q49 -76 130 -76q67 0 108 40q42 40 44 107h76q0 -98 -62 -156q-63 -59 -166 -59q-113 0 -182 85q-68 85 -68 226z" />
    <glyph glyph-name="D" unicode="D" horiz-adv-x="538" 
d="M52 0v608h190q124 0 198 -83q75 -83 75 -221t-75 -221q-74 -83 -198 -83h-190zM128 68h114q89 0 143 64q54 65 54 172t-54 171t-143 64h-114v-471z" />
    <glyph glyph-name="E" unicode="E" horiz-adv-x="484" 
d="M52 0v608h418v-72h-342v-186h304v-72h-304v-206h342v-72h-418z" />
    <glyph glyph-name="F" unicode="F" horiz-adv-x="478" 
d="M52 0v608h418v-72h-342v-186h304v-72h-304v-278h-76z" />
    <glyph glyph-name="G" unicode="G" horiz-adv-x="557" 
d="M24 304q0 143 70 230q71 86 188 86q87 0 154 -54q67 -55 82 -140l-76 -8q-10 58 -56 96q-45 38 -104 38q-83 0 -132 -68q-50 -67 -50 -180q0 -110 50 -177q49 -66 132 -66q76 0 122 52q46 51 46 137h-168v76h244v-311h-54l-11 65q-29 -42 -78 -65q-47 -22 -101 -22
q-117 0 -188 85q-70 85 -70 226z" />
    <glyph glyph-name="H" unicode="H" horiz-adv-x="560" 
d="M52 0v608h76v-251h304v251h76v-608h-76v289h-304v-289h-76z" />
    <glyph glyph-name="I" unicode="I" horiz-adv-x="180" 
d="M52 0v608h76v-608h-76z" />
    <glyph glyph-name="J" unicode="J" horiz-adv-x="399" 
d="M12 152v61h76v-61q0 -38 27 -64q26 -27 64 -27q40 0 69 26q30 26 30 65v456h76v-456q0 -68 -53 -114q-51 -45 -122 -45q-68 0 -117 46q-50 46 -50 113z" />
    <glyph glyph-name="K" unicode="K" horiz-adv-x="535" 
d="M52 0v608h76v-297l311 297h84l-253 -247l260 -361h-83l-228 311l-91 -91v-220h-76z" />
    <glyph glyph-name="L" unicode="L" horiz-adv-x="453" 
d="M52 0v608h76v-540h319v-68h-395z" />
    <glyph glyph-name="M" unicode="M" horiz-adv-x="674" 
d="M52 0v608h95l190 -479l190 479h95v-608h-76v456l-183 -456h-53l-182 456v-456h-76z" />
    <glyph glyph-name="N" unicode="N" horiz-adv-x="560" 
d="M52 0v608h76l304 -479v479h76v-608h-76l-304 478v-478h-76z" />
    <glyph glyph-name="O" unicode="O" horiz-adv-x="594" 
d="M23 304q0 143 75 230q75 86 199 86t198 -86q75 -87 75 -230q0 -141 -75 -226q-74 -85 -198 -85t-199 85t-75 226zM99 304q0 -110 54 -177q54 -66 144 -66q89 0 143 66q54 67 54 177q0 113 -54 180q-54 68 -143 68q-90 0 -144 -68q-54 -67 -54 -180z" />
    <glyph glyph-name="P" unicode="P" horiz-adv-x="509" 
d="M52 0v608h250q87 0 139 -49q52 -48 52 -129q0 -82 -52 -131t-139 -49h-174v-250h-76zM128 319h174q52 0 84 30q31 31 31 81q0 49 -31 79q-32 30 -84 30h-174v-220z" />
    <glyph glyph-name="Q" unicode="Q" horiz-adv-x="599" 
d="M24 304q0 143 75 230q75 86 199 86t198 -86q75 -87 75 -230q0 -58 -13 -105q-16 -54 -48 -93l61 -45l-41 -65l-73 50q-41 -28 -76 -43q-43 -18 -83 -18q-124 0 -199 87t-75 232zM100 304q0 -114 54 -182q54 -69 144 -69q24 0 51 13q18 9 47 29l-46 42l54 61l53 -46
q23 28 32 71q6 31 6 81q0 113 -54 180q-54 68 -143 68q-90 0 -144 -68q-54 -67 -54 -180z" />
    <glyph glyph-name="R" unicode="R" horiz-adv-x="536" 
d="M52 0v608h262q90 0 144 -49q54 -48 54 -129q0 -50 -26 -91q-28 -41 -73 -58q33 -23 52 -56q20 -35 20 -73l4 -118q0 -10 11 -27l4 -7h-76l-2 4q-13 22 -13 34l-4 114q0 44 -39 72q-36 26 -86 26h-156v-250h-76zM128 319h186q55 0 89 30q33 31 33 81q0 49 -33 79
q-34 30 -89 30h-186v-220z" />
    <glyph glyph-name="S" unicode="S" horiz-adv-x="491" 
d="M17 205h76q0 -69 42 -110q41 -42 110 -42t110 31q42 31 42 83q0 47 -49 75q-36 20 -103 32q-89 16 -147 59q-66 50 -66 123q0 74 58 119t155 45t155 -53t58 -141h-76q-10 57 -47 92q-38 34 -90 34q-62 0 -100 -26q-37 -26 -37 -70q0 -46 43 -77q36 -27 94 -37
q99 -17 155 -52q73 -44 73 -116q0 -86 -62 -137q-63 -52 -166 -52t-166 60q-62 60 -62 160z" />
    <glyph glyph-name="T" unicode="T" horiz-adv-x="467" 
d="M6 539v69h456v-69h-191v-539h-76v539h-189z" />
    <glyph glyph-name="U" unicode="U" horiz-adv-x="542" 
d="M43 182v426h76v-426q0 -54 47 -89q44 -32 105 -32t105 32q47 35 47 89v426h76v-426q0 -83 -70 -137q-66 -52 -158 -52t-158 52q-70 54 -70 137z" />
    <glyph glyph-name="V" unicode="V" horiz-adv-x="499" 
d="M6 608h76l168 -486l167 486h76l-206 -608h-76z" />
    <glyph glyph-name="W" unicode="W" horiz-adv-x="757" 
d="M8 608h76l129 -471l129 471h76l129 -471l130 471h72l-163 -608h-76l-130 486l-129 -486h-76z" />
    <glyph glyph-name="X" unicode="X" horiz-adv-x="514" 
d="M6 0l205 304l-205 304h92l159 -236l160 236h91l-206 -304l206 -304h-91l-160 235l-159 -235h-92z" />
    <glyph glyph-name="Y" unicode="Y" horiz-adv-x="569" 
d="M3 608h80l201 -297l202 297h80l-241 -358v-250h-81v250z" />
    <glyph glyph-name="Z" unicode="Z" horiz-adv-x="485" 
d="M16 0v76l350 456h-350v76h441v-76l-358 -456h373v-76h-456z" />
    <glyph glyph-name="bracketleft" unicode="[" horiz-adv-x="294" 
d="M52 620h190v-38h-114v-635h114v-38h-190v711z" />
    <glyph glyph-name="backslash" unicode="\" horiz-adv-x="404" 
d="M352 -138h-69l-231 750h69z" />
    <glyph glyph-name="bracketright" unicode="]" horiz-adv-x="294" 
d="M52 620h190v-711h-190v38h114v635h-114v38z" />
    <glyph glyph-name="asciicircum" unicode="^" horiz-adv-x="501" 
d="M210 376h78l161 -282h-81l-114 212h-6l-115 -212h-81z" />
    <glyph glyph-name="underscore" unicode="_" horiz-adv-x="428" 
d="M0 -134v56h428v-56h-428z" />
    <glyph glyph-name="grave" unicode="`" horiz-adv-x="251" 
d="M52 640h74l73 -167h-75z" />
    <glyph glyph-name="a" unicode="a" horiz-adv-x="429" 
d="M22 122q0 58 53 96q48 34 118 40q49 4 74 15q35 14 35 46q0 35 -27 59t-64 24q-39 0 -68 -23q-30 -24 -30 -60v-15h-69v30q0 58 52 95q48 34 115 34q64 0 111 -35q49 -37 49 -94v-228q0 -19 14 -32q13 -13 32 -13v-61h-27q-27 0 -49 14q-22 15 -31 39q-21 -31 -59 -46
q-35 -14 -77 -14q-69 0 -110 35q-42 35 -42 94zM90 122q0 -29 26 -48q24 -17 58 -17q52 0 89 31q39 31 39 79v61q-28 -23 -102 -29l-19 -1q-37 -3 -63 -23q-28 -21 -28 -53z" />
    <glyph glyph-name="b" unicode="b" horiz-adv-x="458" 
d="M52 0v608h68v-224q19 33 52 52q32 20 70 20q83 0 138 -70q52 -66 52 -158q0 -94 -51 -163q-55 -72 -139 -72q-37 0 -71 23q-31 21 -51 56v-72h-68zM120 228q0 -69 31 -117q34 -54 91 -54t91 54q30 48 30 117q0 67 -31 115q-34 52 -90 52t-91 -52q-31 -48 -31 -115z" />
    <glyph glyph-name="c" unicode="c" horiz-adv-x="433" 
d="M27 228q0 107 54 171t144 64q79 0 131 -46q51 -45 58 -121h-68q-4 48 -37 77t-84 29q-59 0 -94 -48q-36 -47 -36 -126t36 -127q35 -48 94 -48q50 0 83 31t38 83h68q-7 -79 -59 -126q-51 -48 -130 -48q-90 0 -144 64t-54 171z" />
    <glyph glyph-name="d" unicode="d" horiz-adv-x="458" 
d="M26 228q0 92 52 158q54 70 137 70q38 0 70 -20q33 -19 52 -52v224h69v-608h-69v72q-20 -35 -51 -56q-34 -23 -71 -23q-84 0 -138 73q-51 68 -51 162zM94 228q0 -69 30 -117q34 -54 91 -54t91 54q31 48 31 117q0 67 -31 115q-35 52 -91 52t-90 -52q-31 -48 -31 -115z" />
    <glyph glyph-name="e" unicode="e" horiz-adv-x="431" 
d="M28 228q0 107 52 171t138 64t138 -64t52 -171v-23h-312q0 -69 33 -110q34 -42 89 -42q48 0 79 25t35 66h68q-6 -69 -56 -110q-49 -41 -126 -41q-86 0 -138 64t-52 171zM96 266h243q-5 62 -38 99t-83 37t-83 -37q-34 -37 -39 -99z" />
    <glyph glyph-name="f" unicode="f" horiz-adv-x="236" 
d="M8 380v68h61v38q0 50 35 86q36 36 86 36h38v-69h-30q-25 0 -42 -15q-19 -15 -19 -38v-38h91v-68h-91v-380h-68v380h-61z" />
    <glyph glyph-name="g" unicode="g" horiz-adv-x="456" 
d="M25 228q0 92 52 158q54 70 137 70q39 0 70 -15q35 -16 52 -46v46h69v-441q0 -68 -59 -111q-55 -41 -132 -41q-70 0 -121 33q-56 37 -61 97h69q6 -34 41 -53q30 -16 72 -16q49 0 84 24q38 25 38 67v61q-17 -30 -52 -46q-31 -15 -70 -15q-83 0 -137 70q-52 66 -52 158z
M93 228q0 -67 31 -115q34 -52 90 -52t91 52q31 48 31 115t-31 114q-35 52 -91 52t-90 -52q-31 -47 -31 -114z" />
    <glyph glyph-name="h" unicode="h" horiz-adv-x="438" 
d="M52 0v608h68v-213q24 28 55 44q32 17 67 17q63 0 107 -45q45 -44 45 -107v-304h-68v304q0 35 -28 60q-27 23 -64 23q-45 0 -106 -74l-8 -9v-304h-68z" />
    <glyph glyph-name="i" unicode="i" horiz-adv-x="172" 
d="M52 0v456h68v-456h-68zM52 539v69h68v-69h-68z" />
    <glyph glyph-name="j" unicode="j" horiz-adv-x="173" 
d="M-31 -152v69h38q19 0 32 13t13 32v494h69v-494q0 -47 -33 -81q-34 -33 -81 -33h-38zM52 539v69h69v-69h-69z" />
    <glyph glyph-name="k" unicode="k" horiz-adv-x="431" 
d="M52 0v608h68v-350l198 190h99l-171 -163l178 -285h-83l-145 235l-76 -72v-163h-68z" />
    <glyph glyph-name="l" unicode="l" horiz-adv-x="172" 
d="M52 0v608h68v-608h-68z" />
    <glyph glyph-name="m" unicode="m" horiz-adv-x="673" 
d="M51 0v441h68v-23q19 19 45 29q25 9 54 9q37 0 69 -16q33 -16 53 -45q24 29 58 45t71 16q66 0 112 -44q48 -44 48 -108v-304h-69v304q0 38 -27 64q-26 27 -64 27t-64 -27q-27 -26 -27 -64v-304h-68v304q0 38 -27 64q-27 27 -65 27q-40 0 -69 -26q-30 -26 -30 -65v-304h-68
z" />
    <glyph glyph-name="n" unicode="n" horiz-adv-x="458" 
d="M51 0v441h68v-46q18 31 53 47q33 14 73 14q71 0 121 -52q50 -51 50 -123v-281h-69v281q0 46 -33 78t-80 32t-81 -32t-34 -78v-281h-68z" />
    <glyph glyph-name="o" unicode="o" horiz-adv-x="465" 
d="M27 228q0 107 56 171t149 64t150 -64q56 -64 56 -171t-56 -171q-57 -64 -150 -64t-149 64t-56 171zM95 228q0 -79 37 -127q38 -48 100 -48t100 48q37 48 37 127t-37 126q-38 48 -100 48t-100 -48q-37 -47 -37 -126z" />
    <glyph glyph-name="p" unicode="p" horiz-adv-x="457" 
d="M52 -152v600h68v-64q19 33 52 52q32 20 70 20q83 0 138 -70q52 -66 52 -158t-52 -158q-55 -70 -138 -70q-38 0 -70 20q-33 19 -52 52v-224h-68zM120 228q0 -67 31 -115q35 -52 91 -52t90 52q31 48 31 115t-31 115q-34 52 -90 52t-91 -52q-31 -48 -31 -115z" />
    <glyph glyph-name="q" unicode="q" horiz-adv-x="457" 
d="M25 228q0 92 52 158q54 70 137 70q38 0 70 -20q33 -19 52 -52v64h69v-600h-69v224q-19 -33 -52 -52q-32 -20 -70 -20q-83 0 -137 70q-52 66 -52 158zM93 228q0 -67 31 -115q34 -52 90 -52t91 52q31 48 31 115t-31 114q-35 52 -91 52t-90 -52q-31 -47 -31 -114z" />
    <glyph glyph-name="r" unicode="r" horiz-adv-x="294" 
d="M52 0v448h68v-79q15 41 54 64q37 23 83 23h30v-69h-30q-58 0 -98 -46q-39 -44 -39 -106v-235h-68z" />
    <glyph glyph-name="s" unicode="s" horiz-adv-x="392" 
d="M20 167h68q0 -48 29 -77t77 -29q49 0 78 18t29 47q0 40 -41 63q-34 19 -88 24q-57 5 -96 42q-41 38 -41 91q0 57 42 91q41 34 110 34q76 0 121 -42q46 -41 46 -110h-68q0 41 -27 66t-72 25q-38 0 -61 -17q-23 -18 -23 -47q0 -35 37 -53q28 -15 78 -19q62 -5 106 -42
q46 -39 46 -95q0 -62 -46 -99t-122 -37q-83 0 -132 45q-50 46 -50 121z" />
    <glyph glyph-name="t" unicode="t" horiz-adv-x="220" 
d="M68 448v130h68v-130h69v-61h-69v-289q0 -12 9 -21t21 -9h39v-68h-61q-31 0 -54 22q-22 23 -22 54v311h-61v61h61z" />
    <glyph glyph-name="u" unicode="u" horiz-adv-x="459" 
d="M42 174v274h68v-266q0 -52 29 -89q31 -40 78 -40q51 0 86 38t35 91v266h69v-448h-69v61q-19 -34 -58 -52q-35 -16 -78 -16q-69 0 -115 55q-45 53 -45 126z" />
    <glyph glyph-name="v" unicode="v" horiz-adv-x="398" 
d="M9 448h68l121 -357l122 357h69l-152 -448h-76z" />
    <glyph glyph-name="w" unicode="w" horiz-adv-x="627" 
d="M10 448h68l106 -357l99 357h61l106 -357l99 357h69l-137 -448h-76l-91 342l-92 -342h-76z" />
    <glyph glyph-name="x" unicode="x" horiz-adv-x="398" 
d="M9 0l152 228l-152 220h76l113 -159l115 159h76l-152 -220l152 -228h-76l-115 167l-113 -167h-76z" />
    <glyph glyph-name="y" unicode="y" horiz-adv-x="433" 
d="M7 448h68l149 -361l133 361h68l-198 -524q-13 -36 -47 -56q-33 -20 -74 -20h-46v61h46q31 0 54 28q20 24 30 63z" />
    <glyph glyph-name="z" unicode="z" horiz-adv-x="397" 
d="M17 0v68l265 312h-250v68h334v-68l-266 -312h282v-68h-365z" />
    <glyph glyph-name="braceleft" unicode="{" horiz-adv-x="352" 
d="M52 264q33 0 57 23q23 24 23 57v104q0 80 49 136t119 56v-64q-40 0 -68 -37q-28 -38 -28 -91v-104q0 -35 -20 -64q-20 -28 -52 -40q32 -12 52 -40q20 -29 20 -64v-104q0 -53 28 -91q28 -37 68 -37v-64q-70 0 -119 56t-49 136v104q0 33 -23 57q-24 23 -57 23v48z" />
    <glyph glyph-name="bar" unicode="|" horiz-adv-x="180" 
d="M52 -156v796h76v-796h-76z" />
    <glyph glyph-name="braceright" unicode="}" horiz-adv-x="352" 
d="M300 264v-48q-33 0 -57 -23q-23 -24 -23 -57v-104q0 -80 -49 -136t-119 -56v64q40 0 68 37q28 38 28 91v104q0 34 22 63q21 29 57 42q-36 13 -57 41q-22 29 -22 62v104q0 53 -28 91q-28 37 -68 37v64q70 0 119 -56t49 -136v-104q0 -33 23 -57q24 -23 57 -23z" />
    <glyph glyph-name="asciitilde" unicode="~" horiz-adv-x="496" 
d="M88 180l-36 52q24 29 54 44q30 16 60 16q25 0 46 -7q22 -7 38 -21q17 -15 37 -22q21 -8 41 -8q25 0 47 10t37 28l32 -52q-21 -25 -51 -38q-30 -14 -63 -14q-25 0 -46 6q-20 6 -34 18q-20 16 -41 25t-42 9q-19 0 -40 -12t-39 -34z" />
    <glyph glyph-name="Euro" horiz-adv-x="618" 
d="M88 304l3 60h-39v65h52q24 85 89 138t145 53q89 0 154 -57q66 -58 74 -145h-76q-5 57 -49 96q-44 38 -103 38q-47 0 -89 -34q-42 -33 -63 -89h250v-65h-267q-5 -32 -5 -60q0 -32 6 -66h266v-64h-246q23 -52 63 -82q40 -31 85 -31q64 0 107 50q43 49 45 117h76
q0 -97 -66 -166q-67 -69 -162 -69q-74 0 -137 50q-63 49 -93 131h-56v64h40q-4 28 -4 66z" />
    <glyph glyph-name="quotesinglbase" unicode="&#x201a;" horiz-adv-x="180" 
d="M52 0v76h76v-76q0 -29 -20 -57q-21 -29 -56 -49v30q10 9 16 29t6 47h-22z" />
    <glyph glyph-name="florin" unicode="&#x192;" horiz-adv-x="362" 
d="M90 380v68h65l4 38q0 50 33 86t81 36h37l-8 -69h-22q-25 0 -42 -15q-19 -15 -19 -38l-4 -38h95v-68h-95l-15 -418q0 -46 -29 -80t-73 -34h-46l16 69h22q19 0 32 13t13 32l16 418h-61z" />
    <glyph glyph-name="quotedblbase" unicode="&#x201e;" horiz-adv-x="328" 
d="M52 0v76h76v-76q0 -44 -22 -75q-23 -31 -54 -31v30q11 0 18 22q8 23 8 54h-26zM200 0v76h76v-76q0 -44 -22 -75q-23 -31 -54 -31v30q12 0 21 22q9 23 9 54h-30z" />
    <glyph glyph-name="ellipsis" unicode="&#x2026;" horiz-adv-x="500" 
d="M284 0h-68v68h68v-68zM120 0h-68v68h68v-68zM448 0h-68v68h68v-68z" />
    <glyph glyph-name="dagger" unicode="&#x2020;" horiz-adv-x="484" 
d="M52 396v69h156v155h68v-155h156v-69h-156v-415h-68v415h-156z" />
    <glyph glyph-name="daggerdbl" unicode="&#x2021;" horiz-adv-x="484" 
d="M52 424v69h156v127h68v-127h156v-69h-156v-226h156v-68h-156v-130h-68v130h-156v68h156v226h-156z" />
    <glyph glyph-name="circumflex" unicode="&#x2c6;" horiz-adv-x="333" 
d="M134 618h64l83 -146h-63l-48 90h-5l-49 -90h-64z" />
    <glyph glyph-name="perthousand" unicode="&#x2030;" horiz-adv-x="1078" 
d="M52 456q0 63 45 107q44 45 107 45t107 -45q45 -44 45 -107t-45 -107q-44 -45 -107 -45t-107 45q-45 44 -45 107zM120 456q0 -38 25 -64q24 -27 59 -27q34 0 59 27q24 26 24 64t-24 64q-25 27 -59 27q-35 0 -59 -27q-25 -26 -25 -64zM150 0l372 608h78l-373 -608h-77z
M386 152q0 63 45 107q44 45 107 45t107 -45q45 -44 45 -107t-45 -107q-44 -45 -107 -45t-107 45q-45 44 -45 107zM454 152q0 -41 25 -70q24 -29 59 -29t59 29q25 29 25 70t-25 69q-24 29 -59 29t-59 -29q-25 -28 -25 -69zM722 152q0 63 45 107q44 45 107 45t107 -45
q45 -44 45 -107t-45 -107q-44 -45 -107 -45t-107 45q-45 44 -45 107zM790 152q0 -41 25 -70q24 -29 59 -29t59 29q25 29 25 70t-25 69q-24 29 -59 29t-59 -29q-25 -28 -25 -69z" />
    <glyph glyph-name="Scaron" unicode="&#x160;" horiz-adv-x="491" 
d="M17 205h76q0 -69 42 -110q41 -42 110 -42t110 31q42 31 42 83q0 47 -49 75q-36 20 -103 32q-89 16 -147 59q-66 50 -66 123q0 74 58 119t155 45t155 -53t58 -141h-76q-10 57 -47 92q-38 34 -90 34q-62 0 -100 -26q-37 -26 -37 -70q0 -46 43 -77q36 -27 94 -37
q99 -17 155 -52q73 -44 73 -116q0 -86 -62 -137q-63 -52 -166 -52t-166 60q-62 60 -62 160zM218 640l-81 146h64l49 -90h4l48 90h64l-84 -146h-64z" />
    <glyph glyph-name="guilsinglleft" unicode="&#x2039;" horiz-adv-x="290" 
d="M52 192v61l186 187v-92l-133 -124l133 -124v-92z" />
    <glyph glyph-name="OE" unicode="&#x152;" horiz-adv-x="924" 
d="M23 304q0 143 75 230q75 86 199 86q57 0 108 -23q51 -22 87 -63v74h418v-72h-342v-186h304v-72h-304v-206h342v-72h-418v77q-35 -40 -86 -62t-109 -22q-124 0 -199 85t-75 226zM99 304q0 -110 54 -177q54 -66 144 -66q88 0 142 66q53 67 53 177q0 113 -53 180
q-54 68 -142 68q-90 0 -144 -68q-54 -67 -54 -180z" />
    <glyph glyph-name="quoteleft" unicode="&#x2018;" horiz-adv-x="204" 
d="M52 502q0 29 20 57q21 29 56 49l24 -22q-24 -20 -37 -42t-13 -42h30v-76h-80v76z" />
    <glyph glyph-name="quoteright" unicode="&#x2019;" horiz-adv-x="204" 
d="M72 532v76h80v-76q0 -29 -20 -57q-21 -29 -56 -49l-24 26q24 20 37 41t13 39h-30z" />
    <glyph glyph-name="quotedblleft" unicode="&#x201c;" horiz-adv-x="328" 
d="M52 502q0 44 22 75q23 31 54 31l12 -30q-16 0 -27 -22q-11 -23 -11 -54h30v-76h-80v76zM184 502q0 44 22 75q23 31 54 31l16 -30q-17 0 -30 -22q-12 -23 -12 -54h30v-76h-80v76z" />
    <glyph glyph-name="quotedblright" unicode="&#x201d;" horiz-adv-x="344" 
d="M64 532v76h80v-76q0 -44 -22 -75q-23 -31 -54 -31l-16 30q17 0 30 22q12 23 12 54h-30zM212 532v76h80v-76q0 -44 -22 -75q-23 -31 -54 -31l-16 30q17 0 30 22q12 23 12 54h-30z" />
    <glyph glyph-name="bullet" unicode="&#x2022;" horiz-adv-x="328" 
d="M52 240q0 46 33 79t79 33t79 -33t33 -79t-33 -79t-79 -33t-79 33t-33 79z" />
    <glyph glyph-name="endash" unicode="&#x2013;" horiz-adv-x="552" 
d="M0 192v68h552v-68h-552z" />
    <glyph glyph-name="emdash" unicode="&#x2014;" horiz-adv-x="800" 
d="M0 192v68h800v-68h-800z" />
    <glyph glyph-name="lozenge" unicode="&#x2dc;" horiz-adv-x="364" 
d="M75 484l-23 54q16 19 36 30q20 10 40 10q15 0 29 -5t25 -14t25 -14q13 -5 28 -5q16 0 30 7q15 7 25 19l22 -56q-14 -16 -33 -25q-20 -9 -43 -9q-16 0 -30 4q-14 5 -24 13q-12 10 -26 16q-14 5 -28 5q-13 0 -27 -8t-26 -22z" />
    <glyph glyph-name="trademark" unicode="&#x2122;" horiz-adv-x="766" 
d="M52 579v41h271v-41h-114v-323h-46v323h-111zM372 256v364h58l113 -287l115 287h56v-364h-44v274l-111 -274h-30l-111 274v-274h-46z" />
    <glyph glyph-name="scaron" unicode="&#x161;" horiz-adv-x="392" 
d="M20 159h68q0 -48 29 -77t77 -29q49 0 78 18t29 47q0 40 -41 63q-34 19 -88 24q-57 5 -96 42q-41 38 -41 91q0 57 42 91q41 34 110 34q76 0 121 -42q46 -41 46 -110h-68q0 41 -27 66t-72 25q-38 0 -61 -17q-23 -18 -23 -47q0 -35 37 -53q28 -15 78 -19q62 -5 106 -42
q46 -39 46 -95q0 -62 -46 -99t-122 -37q-83 0 -132 45q-50 46 -50 121zM157 520l-82 146h64l49 -90h5l48 90h63l-83 -146h-64z" />
    <glyph glyph-name="guilsinglright" unicode="&#x203a;" horiz-adv-x="290" 
d="M238 192l-186 -184v92l133 124l-133 124v92l186 -187v-61z" />
    <glyph glyph-name="oe" unicode="&#x153;" horiz-adv-x="769" 
d="M27 228q0 107 56 171t149 64q54 0 100 -25q47 -26 72 -70q22 44 63 69q41 26 88 26q87 0 139 -64t52 -171v-23h-312q0 -69 33 -110q33 -42 88 -42q49 0 80 25t35 66h68q-6 -69 -56 -110t-127 -41q-47 0 -88 26q-41 25 -63 69q-25 -44 -72 -70q-46 -25 -100 -25
q-93 0 -149 64t-56 171zM95 228q0 -79 37 -127q38 -48 100 -48t100 48q37 48 37 127t-37 126q-38 48 -100 48t-100 -48q-37 -47 -37 -126zM434 266h243q-5 62 -39 99q-33 37 -83 37t-83 -37t-38 -99z" />
    <glyph glyph-name="Ydieresis" unicode="&#x178;" horiz-adv-x="569" 
d="M3 608h80l201 -297l202 297h80l-241 -358v-250h-81v250zM412 640h-68v68h68v-68zM228 640h-68v68h68v-68z" />
    <glyph glyph-name="exclamdown" unicode="&#xa1;" horiz-adv-x="172" 
d="M52 448h68v-68h-68v68zM74 296h24l22 -304v-152h-68v152z" />
    <glyph glyph-name="cent" unicode="&#xa2;" horiz-adv-x="491" 
d="M52 228q0 107 54 171t144 64q22 0 39 -3l22 76h57l-27 -94q42 -21 68 -60t30 -86h-68q-2 26 -15 48q-12 23 -33 37l-94 -327q6 -1 21 -1q50 0 83 31t38 83h68q-7 -79 -59 -126q-51 -48 -130 -48q-21 0 -38 3l-19 -66h-57l24 84q-50 25 -79 83t-29 131zM272 401
q-7 1 -22 1q-59 0 -94 -48q-36 -47 -36 -126q0 -50 15 -90q16 -40 43 -61z" />
    <glyph glyph-name="sterling" unicode="&#xa3;" horiz-adv-x="670" 
d="M139 350q-6 22 -6 60q0 87 75 148q76 62 182 62q89 0 154 -57q66 -58 74 -145h-76q-5 57 -49 96q-44 38 -103 38q-73 0 -125 -36q-57 -39 -57 -102q0 -19 7 -57l1 -7h178v-72h-172q0 -157 -23 -206q30 8 90 8l130 -20q74 0 140 24v-68q-66 -24 -141 -24l-138 20
q-149 0 -182 -12q40 110 40 278h-86v72h87z" />
    <glyph glyph-name="currency" unicode="&#xa4;" horiz-adv-x="529" 
d="M86 228q0 65 20 110l-53 60l64 71l50 -56q49 34 107 34q53 0 95 -24l42 47l65 -73l-41 -45q29 -55 29 -124q0 -65 -24 -116l37 -40l-65 -72l-35 39q-46 -30 -103 -30q-62 0 -113 40l-44 -49l-65 79l49 53q-15 41 -15 96zM154 228q0 -72 33 -116q33 -43 87 -43q55 0 88 43
q33 44 33 116t-33 115t-88 43q-54 0 -87 -43t-33 -115z" />
    <glyph glyph-name="yen" unicode="&#xa5;" horiz-adv-x="666" 
d="M52 608h80l201 -297l201 297h80l-228 -339h103v-48h-115v-91h115v-48h-115v-82h-81v82h-108v48h108v91h-108v48h96z" />
    <glyph glyph-name="brokenbar" unicode="&#xa6;" horiz-adv-x="172" 
d="M120 260v-300h-68v300h68zM120 620v-300h-68v300h68z" />
    <glyph glyph-name="section" unicode="&#xa7;" horiz-adv-x="486" 
d="M52 15h68q0 -48 29 -77t77 -29q56 0 89 18q34 18 34 47q0 53 -114 79l-31 8q-57 5 -96 42q-41 38 -41 91q0 36 19 65t51 42q-18 16 -28 34t-10 35q0 57 46 91t122 34q69 0 110 -42q41 -41 41 -110h-68q0 41 -23 66q-22 25 -60 25q-45 0 -73 -17q-27 -18 -27 -47
q0 -36 40 -54q29 -13 83 -18q60 -5 101 -43q43 -39 43 -94q0 -32 -20 -60t-54 -43q26 -6 42 -30t16 -55q0 -56 -50 -90q-51 -34 -134 -34t-132 45q-50 46 -50 121zM189 255q-24 -6 -39 -23t-15 -38q0 -39 36 -65q32 -23 79 -27q7 -1 39 -12l7 -2q30 6 50 25q19 19 19 41
q0 37 -36 60q-30 19 -77 23q-35 3 -63 18z" />
    <glyph glyph-name="dieresis" unicode="&#xa8;" horiz-adv-x="356" 
d="M304 488h-68v68h68v-68zM120 488h-68v68h68v-68z" />
    <glyph glyph-name="copyright" unicode="&#xa9;" horiz-adv-x="651" 
d="M52 304q0 143 75 230q75 86 199 86t198 -86q75 -87 75 -230q0 -141 -75 -226q-74 -85 -198 -85t-199 85t-75 226zM112 304q0 -118 58 -188q59 -71 156 -71t155 71q58 70 58 188q0 120 -58 192t-155 72t-156 -72q-58 -72 -58 -192zM174 304q0 83 42 132q41 50 110 50
q62 0 102 -36q41 -35 46 -94h-53q-3 38 -29 60q-26 23 -66 23q-45 0 -73 -37q-27 -37 -27 -98t27 -98q28 -37 73 -37q40 0 66 24q25 25 29 65h53q-5 -62 -46 -100q-40 -37 -102 -37q-69 0 -110 50q-42 50 -42 133z" />
    <glyph glyph-name="ordfeminine" unicode="&#xaa;" horiz-adv-x="426" 
d="M52 342q0 48 43 79q39 28 96 33q41 4 60 12q29 11 29 37q0 29 -22 48t-52 19q-32 0 -55 -18q-25 -20 -25 -49v-12h-56v24q0 47 42 77q39 28 94 28q52 0 90 -28q40 -30 40 -77v-185q0 -15 11 -26t27 -11v-50h-22q-22 0 -40 11q-18 12 -25 32q-18 -25 -49 -38
q-28 -12 -63 -12q-56 0 -89 29q-34 29 -34 77zM107 342q0 -24 21 -38q20 -14 47 -14q42 0 73 25q32 26 32 65v49q-23 -19 -85 -24l-14 -1q-30 -3 -51 -19q-23 -17 -23 -43z" />
    <glyph glyph-name="guillemotleft" unicode="&#xab;" horiz-adv-x="474" 
d="M236 192v61l186 187v-92l-133 -124l133 -124v-92zM52 192v61l186 187v-92l-133 -124l133 -124v-92z" />
    <glyph glyph-name="logicalnot" unicode="&#xac;" horiz-adv-x="632" 
d="M580 447v-315h-68v239h-460v76h528z" />
    <glyph glyph-name="minus" unicode="&#xad;" horiz-adv-x="372" 
d="M52 192v68h268v-68h-268z" />
    <glyph glyph-name="registered" unicode="&#xae;" horiz-adv-x="651" 
d="M52 304q0 143 75 230q75 86 199 86t198 -86q75 -87 75 -230q0 -141 -75 -226q-74 -85 -198 -85t-199 85t-75 226zM112 304q0 -118 58 -188q59 -71 156 -71t155 71q58 70 58 188q0 120 -58 192t-155 72t-156 -72q-58 -72 -58 -192zM206 137v346h149q51 0 82 -28t31 -75
q0 -28 -15 -51q-16 -24 -42 -33q19 -13 30 -32t11 -41l3 -66q0 -6 7 -18l1 -2h-45q-7 12 -7 21l-1 65q0 25 -22 41q-21 15 -50 15h-89v-142h-43zM249 319h106q32 0 51 17q19 16 19 44q0 29 -19 47q-19 17 -51 17h-106v-125z" />
    <glyph glyph-name="macron" unicode="&#xaf;" horiz-adv-x="612" 
d="M52 568v52h508v-52h-508z" />
    <glyph glyph-name="degree" unicode="&#xb0;" horiz-adv-x="231" 
d="M52 553q0 26 18 45q19 18 45 18q27 0 45 -18q19 -19 19 -45q0 -27 -19 -46q-18 -19 -45 -19q-26 0 -45 19q-18 19 -18 46zM83 553q0 -13 9 -23q10 -9 23 -9t23 9q9 10 9 23q0 12 -9 21q-10 9 -23 9t-23 -9q-9 -9 -9 -21z" />
    <glyph glyph-name="plusminus" unicode="&#xb1;" horiz-adv-x="484" 
d="M52 254v68h156v156h68v-156h156v-68h-156v-156h-68v156h-156zM80 0v68h324v-68h-324z" />
    <glyph glyph-name="twosuperior" unicode="&#xb2;" horiz-adv-x="380" 
d="M52 289q0 50 45 91q31 28 96 60q46 22 61 34q30 23 30 53q0 28 -28 44q-25 13 -61 13q-35 0 -61 -19q-27 -20 -27 -51v-20h-45v20q0 47 41 78q39 28 92 28t91 -23q42 -26 42 -70q0 -37 -33 -68q-24 -23 -72 -46l-21 -10q-80 -37 -90 -77h216v-37h-276z" />
    <glyph glyph-name="threesuperior" unicode="&#xb3;" horiz-adv-x="405" 
d="M52 390h47q0 -34 34 -53q30 -16 73 -16q41 0 68 15q32 18 32 50q0 30 -32 46q-27 12 -68 12h-37v38h37q32 0 55 12q25 14 25 40q0 25 -26 39q-21 11 -54 11q-39 0 -65 -15q-31 -16 -31 -47h-48q0 46 43 73q40 25 95 25q54 0 91 -20q42 -24 42 -66q0 -22 -13 -42
q-13 -18 -34 -28q29 -7 48 -28q19 -22 19 -50q0 -49 -46 -79q-42 -26 -101 -26q-62 0 -105 27q-49 31 -49 82z" />
    <glyph glyph-name="acute" unicode="&#xb4;" horiz-adv-x="258" 
d="M132 641h74l-79 -153h-75z" />
    <glyph glyph-name="mu" unicode="&#xb5;" horiz-adv-x="469" 
d="M52 -158v606h68v-266q0 -52 29 -89q30 -40 77 -40q51 0 87 38q35 38 35 91v266h69v-448h-69v61q-20 -34 -58 -52q-35 -16 -79 -16q-25 0 -48 9q-24 8 -43 24v-184h-68z" />
    <glyph glyph-name="paragraph" unicode="&#xb6;" horiz-adv-x="589" 
d="M209 0v336q-65 0 -111 40t-46 96q0 57 46 97t111 40l328 -1v-69h-79v-539h-76v539h-97v-539h-76z" />
    <glyph glyph-name="uni2219" unicode="&#x2219;" horiz-adv-x="216" 
d="M52 240q0 23 16 40q17 16 40 16t40 -16q16 -17 16 -40t-16 -40q-17 -16 -40 -16t-40 16q-16 17 -16 40z" />
    <glyph glyph-name="cedilla" unicode="&#xb8;" horiz-adv-x="258" 
d="M52 -114l35 20q5 -10 16 -16q12 -6 26 -6q15 0 24 7t9 19q0 14 -10 23q-10 10 -24 11h-24l16 64h44l-10 -40q22 -2 37 -17q15 -16 15 -37q0 -30 -20 -48t-54 -18q-26 0 -48 10q-22 11 -32 28z" />
    <glyph glyph-name="onesuperior" unicode="&#xb9;" horiz-adv-x="274" 
d="M52 531v28q59 0 88 10q44 14 47 51h35v-311h-52v222h-118z" />
    <glyph glyph-name="ordmasculine" unicode="&#xba;" horiz-adv-x="407" 
d="M52 452q0 68 43 117q44 51 109 51q64 0 108 -51q43 -49 43 -117q0 -69 -42 -119q-44 -52 -109 -52t-109 52q-43 50 -43 119zM98 452q0 -53 28 -92q31 -41 78 -41t78 41q28 39 28 92t-28 92q-31 41 -78 41t-78 -41q-28 -39 -28 -92z" />
    <glyph glyph-name="guillemotright" unicode="&#xbb;" horiz-adv-x="474" 
d="M238 192l-186 -184v92l133 124l-133 124v92l186 -187v-61zM422 192l-186 -184v92l133 124l-133 124v92l186 -187v-61z" />
    <glyph glyph-name="onequarter" unicode="&#xbc;" horiz-adv-x="709" 
d="M52 503v37q45 0 77 20q36 22 39 60h29v-402h-45v285h-100zM145 -70l298 644h57l-299 -644h-56zM375 20v44l181 258h44v-258h57v-44h-57v-100h-44v100h-181zM430 64h126v178z" />
    <glyph glyph-name="onehalf" unicode="&#xbd;" horiz-adv-x="734" 
d="M52 503v37q45 0 77 20q36 22 39 60h29v-402h-45v285h-100zM141 -70l298 644h57l-299 -644h-56zM406 -31q0 50 44 91q32 29 96 60l8 4q84 40 84 83q0 28 -28 44q-25 13 -61 13q-35 0 -61 -19q-27 -20 -27 -51v-20h-45v20q0 47 41 78q39 28 92 28t91 -23q42 -26 42 -70
q0 -37 -33 -68q-24 -23 -72 -46l-21 -10q-80 -37 -90 -77h216v-37h-276z" />
    <glyph glyph-name="threequarters" unicode="&#xbe;" horiz-adv-x="823" 
d="M255 -70l299 644h56l-299 -644h-56zM490 20v44l180 258h44v-258h57v-44h-57v-100h-44v100h-180zM545 64h125v178zM52 390h42q0 -32 30 -52q27 -17 66 -17q37 0 63 16q29 18 29 49q0 29 -29 45q-26 13 -63 13h-32v38h32q29 0 50 13q23 15 23 39t-23 38q-21 12 -50 12
q-35 0 -59 -16q-27 -17 -27 -46h-42q0 44 38 72q36 26 86 26q48 0 82 -22q38 -24 38 -64q0 -22 -12 -41q-11 -19 -31 -29q27 -7 44 -29t17 -49q0 -47 -42 -77q-38 -28 -92 -28q-55 0 -95 29q-43 31 -43 80z" />
    <glyph glyph-name="questiondown" unicode="&#xbf;" horiz-adv-x="484" 
d="M432 49q0 -84 -54 -144q-56 -62 -136 -62q-76 0 -131 41q-59 43 -59 111q0 62 80 156t80 156h68q0 -62 -80 -156q-79 -94 -79 -156q0 -40 38 -63q34 -20 83 -20q52 0 88 41q34 40 34 96h68zM280 451v-68h-68v68h68z" />
    <glyph glyph-name="Agrave" unicode="&#xc0;" horiz-adv-x="508" 
d="M7 0l198 608h98l198 -608h-76l-61 182h-220l-61 -182h-76zM166 250h176l-88 263zM218 640l-72 147h73l74 -147h-75z" />
    <glyph glyph-name="Aacute" unicode="&#xc1;" horiz-adv-x="508" 
d="M7 0l198 608h98l198 -608h-76l-61 182h-220l-61 -182h-76zM166 250h176l-88 263zM221 640l80 153h73l-78 -153h-75z" />
    <glyph glyph-name="Acircumflex" unicode="&#xc2;" horiz-adv-x="508" 
d="M7 0l198 608h98l198 -608h-76l-61 182h-220l-61 -182h-76zM166 250h176l-88 263zM314 640l-48 90h-5l-49 -90h-64l82 146h64l83 -146h-63z" />
    <glyph glyph-name="Atilde" unicode="&#xc3;" horiz-adv-x="508" 
d="M7 0l198 608h98l198 -608h-76l-61 182h-220l-61 -182h-76zM166 250h176l-88 263zM150 648l-23 54q16 19 36 30q20 10 40 10q16 0 30 -5t25 -14t24 -14q14 -5 28 -5q16 0 30 7q15 7 25 19l22 -56q-14 -16 -33 -25q-20 -9 -43 -9q-16 0 -30 4q-13 5 -23 13q-12 10 -26 16
q-14 5 -29 5q-13 0 -27 -8t-26 -22z" />
    <glyph glyph-name="Adieresis" unicode="&#xc4;" horiz-adv-x="508" 
d="M7 0l198 608h98l198 -608h-76l-61 182h-220l-61 -182h-76zM166 250h176l-88 263zM380 640h-68v68h68v-68zM196 640h-68v68h68v-68z" />
    <glyph glyph-name="Aring" unicode="&#xc5;" horiz-adv-x="508" 
d="M7 0l198 608h98l198 -608h-76l-61 182h-220l-61 -182h-76zM166 250h176l-88 263zM191 677q0 26 18 45q19 18 45 18q27 0 45 -18q19 -19 19 -45q0 -27 -19 -46q-18 -19 -45 -19q-26 0 -45 19q-18 19 -18 46zM222 677q0 -13 9 -23q10 -9 23 -9t23 9q9 10 9 23q0 12 -9 21
q-10 9 -23 9t-23 -9q-9 -9 -9 -21z" />
    <glyph glyph-name="AE" unicode="&#xc6;" horiz-adv-x="784" 
d="M7 0l198 608h565v-72h-342v-186h304v-72h-304v-206h342v-72h-418v182h-208l-61 -182h-76zM166 250h186v287h-98z" />
    <glyph glyph-name="Ccedilla" unicode="&#xc7;" horiz-adv-x="517" 
d="M23 304q0 143 69 230q68 86 182 86q89 0 154 -57q66 -58 74 -145h-76q-5 57 -49 96q-44 38 -103 38q-82 0 -131 -78q-44 -70 -44 -170q0 -98 44 -167q49 -76 131 -76q64 0 107 50q43 49 45 117h76q0 -90 -59 -158q-60 -67 -148 -76l-6 -26q22 -2 37 -17q15 -16 15 -37
q0 -30 -20 -48t-54 -18q-26 0 -48 10q-22 11 -32 28l35 20q5 -10 16 -16q12 -6 26 -6q15 0 25 7q9 7 9 19q0 14 -10 23q-10 10 -25 11h-24l13 50q-97 9 -163 98t-66 212z" />
    <glyph glyph-name="Egrave" unicode="&#xc8;" horiz-adv-x="484" 
d="M52 0v608h418v-72h-342v-186h304v-72h-304v-206h342v-72h-418zM167 808h74l73 -167h-75z" />
    <glyph glyph-name="Eacute" unicode="&#xc9;" horiz-adv-x="484" 
d="M52 0v608h418v-72h-342v-186h304v-72h-304v-206h342v-72h-418zM303 793h74l-79 -153h-75z" />
    <glyph glyph-name="Ecircumflex" unicode="&#xca;" horiz-adv-x="484" 
d="M52 0v608h418v-72h-342v-186h304v-72h-304v-206h342v-72h-418zM232 786h64l83 -146h-63l-48 90h-5l-49 -90h-64z" />
    <glyph glyph-name="Edieresis" unicode="&#xcb;" horiz-adv-x="484" 
d="M52 0v608h418v-72h-342v-186h304v-72h-304v-206h342v-72h-418zM394 640h-68v68h68v-68zM210 640h-68v68h68v-68z" />
    <glyph glyph-name="Igrave" unicode="&#xcc;" horiz-adv-x="180" 
d="M52 0v608h76v-608h-76zM-19 808h73l74 -167h-75z" />
    <glyph glyph-name="Iacute" unicode="&#xcd;" horiz-adv-x="180" 
d="M52 0v608h76v-608h-76zM133 793h73l-78 -153h-75z" />
    <glyph glyph-name="Icircumflex" unicode="&#xce;" horiz-adv-x="180" 
d="M52 0v608h76v-608h-76zM62 786h64l83 -146h-63l-48 90h-5l-49 -90h-64z" />
    <glyph glyph-name="Idieresis" unicode="&#xcf;" horiz-adv-x="180" 
d="M52 0v608h76v-608h-76zM216 640h-68v68h68v-68zM32 640h-68v68h68v-68z" />
    <glyph glyph-name="Eth" unicode="&#xd0;" horiz-adv-x="542" 
d="M57 0v272h-45v68h45v268h189q124 0 199 -83t75 -221t-75 -221t-199 -83h-189zM133 68h113q90 0 144 64q54 65 54 172t-54 171t-144 64h-113v-199h107v-68h-107v-204z" />
    <glyph glyph-name="Ntilde" unicode="&#xd1;" horiz-adv-x="560" 
d="M52 0v608h76l304 -479v479h76v-608h-76l-304 478v-478h-76zM175 648l-23 54q16 19 36 30q20 10 40 10q15 0 29 -5t25 -14t25 -14q13 -5 28 -5q16 0 30 7q15 7 25 19l22 -56q-14 -16 -33 -25q-20 -9 -43 -9q-16 0 -30 4q-14 5 -24 13q-12 10 -26 16q-14 5 -28 5
q-13 0 -27 -8t-26 -22z" />
    <glyph glyph-name="Ograve" unicode="&#xd2;" horiz-adv-x="594" 
d="M23 304q0 143 75 230q75 86 199 86t198 -86q75 -87 75 -230q0 -141 -75 -226q-74 -85 -198 -85t-199 85t-75 226zM99 304q0 -110 54 -177q54 -66 144 -66q89 0 143 66q54 67 54 177q0 113 -54 180q-54 68 -143 68q-90 0 -144 -68q-54 -67 -54 -180zM193 808h73l74 -167
h-75z" />
    <glyph glyph-name="Oacute" unicode="&#xd3;" horiz-adv-x="594" 
d="M23 304q0 143 75 230q75 86 199 86t198 -86q75 -87 75 -230q0 -141 -75 -226q-74 -85 -198 -85t-199 85t-75 226zM99 304q0 -110 54 -177q54 -66 144 -66q89 0 143 66q54 67 54 177q0 113 -54 180q-54 68 -143 68q-90 0 -144 -68q-54 -67 -54 -180zM337 793h73l-78 -153
h-75z" />
    <glyph glyph-name="Ocircumflex" unicode="&#xd4;" horiz-adv-x="594" 
d="M23 304q0 143 75 230q75 86 199 86t198 -86q75 -87 75 -230q0 -141 -75 -226q-74 -85 -198 -85t-199 85t-75 226zM99 304q0 -110 54 -177q54 -66 144 -66q89 0 143 66q54 67 54 177q0 113 -54 180q-54 68 -143 68q-90 0 -144 -68q-54 -67 -54 -180zM262 786h64l83 -146
h-63l-48 90h-5l-49 -90h-64z" />
    <glyph glyph-name="Otilde" unicode="&#xd5;" horiz-adv-x="594" 
d="M23 304q0 143 75 230q75 86 199 86t198 -86q75 -87 75 -230q0 -141 -75 -226q-74 -85 -198 -85t-199 85t-75 226zM99 304q0 -110 54 -177q54 -66 144 -66q89 0 143 66q54 67 54 177q0 113 -54 180q-54 68 -143 68q-90 0 -144 -68q-54 -67 -54 -180zM199 648l-23 34
q16 19 36 30q20 10 40 10q15 0 29 -5t25 -14t25 -14q13 -5 28 -5q16 0 30 7q15 7 25 19l22 -36q-14 -16 -33 -25q-20 -9 -43 -9q-16 0 -30 4q-14 5 -24 13q-12 10 -26 16q-14 5 -28 5q-13 0 -27 -8t-26 -22z" />
    <glyph glyph-name="Odieresis" unicode="&#xd6;" horiz-adv-x="594" 
d="M23 304q0 143 75 230q75 86 199 86t198 -86q75 -87 75 -230q0 -141 -75 -226q-74 -85 -198 -85t-199 85t-75 226zM99 304q0 -110 54 -177q54 -66 144 -66q89 0 143 66q54 67 54 177q0 113 -54 180q-54 68 -143 68q-90 0 -144 -68q-54 -67 -54 -180zM428 640h-68v68h68
v-68zM244 640h-68v68h68v-68z" />
    <glyph glyph-name="multiply" unicode="&#xd7;" horiz-adv-x="422" 
d="M101 70l-49 52l110 107l-109 109l48 48l109 -109l111 110l48 -49l-110 -110l111 -110l-48 -48l-111 110z" />
    <glyph glyph-name="Oslash" unicode="&#xd8;" horiz-adv-x="601" 
d="M26 304q0 143 75 230q75 86 199 86q51 0 97 -17t81 -48l52 65h57l-79 -98q32 -43 49 -99t17 -119q0 -141 -75 -226t-199 -85q-49 0 -94 15q-44 16 -79 45l-63 -79h-57l89 110q-34 40 -52 97t-18 123zM102 304q0 -95 42 -160l287 354q-25 26 -59 40t-72 14q-90 0 -144 -68
q-54 -67 -54 -180zM173 110q25 -24 58 -36q33 -13 69 -13q90 0 144 66q54 67 54 177q0 93 -39 158z" />
    <glyph glyph-name="Ugrave" unicode="&#xd9;" horiz-adv-x="542" 
d="M43 182v426h76v-426q0 -54 47 -89q44 -32 105 -32t105 32q47 35 47 89v426h76v-426q0 -83 -70 -137q-66 -52 -158 -52t-158 52q-70 54 -70 137zM164 808h74l73 -167h-75z" />
    <glyph glyph-name="Uacute" unicode="&#xda;" horiz-adv-x="542" 
d="M43 182v426h76v-426q0 -54 47 -89q44 -32 105 -32t105 32q47 35 47 89v426h76v-426q0 -83 -70 -137q-66 -52 -158 -52t-158 52q-70 54 -70 137zM308 793h74l-79 -153h-75z" />
    <glyph glyph-name="Ucircumflex" unicode="&#xdb;" horiz-adv-x="542" 
d="M43 182v426h76v-426q0 -54 47 -89q44 -32 105 -32t105 32q47 35 47 89v426h76v-426q0 -83 -70 -137q-66 -52 -158 -52t-158 52q-70 54 -70 137zM237 786h64l83 -146h-63l-48 90h-5l-49 -90h-64z" />
    <glyph glyph-name="Udieresis" unicode="&#xdc;" horiz-adv-x="542" 
d="M43 182v426h76v-426q0 -54 47 -89q44 -32 105 -32t105 32q47 35 47 89v426h76v-426q0 -83 -70 -137q-66 -52 -158 -52t-158 52q-70 54 -70 137zM395 640h-68v68h68v-68zM211 640h-68v68h68v-68z" />
    <glyph glyph-name="Yacute" unicode="&#xdd;" horiz-adv-x="569" 
d="M3 608h80l201 -297l202 297h80l-241 -358v-250h-81v250zM325 793h73l-78 -153h-75z" />
    <glyph glyph-name="Thorn" unicode="&#xde;" horiz-adv-x="542" 
d="M52 0v608h76v-99h216q77 0 130 -56t53 -134q0 -73 -54 -124q-53 -51 -127 -51h-218v-144h-76zM128 440v-228h218q49 0 84 30q37 30 37 76q0 50 -35 86q-36 36 -86 36h-218z" />
    <glyph glyph-name="germandbls" unicode="&#xdf;" horiz-adv-x="541" 
d="M45 0v448q0 66 54 113q55 47 132 47q79 0 127 -40t48 -106q0 -21 -26 -55t-26 -55q0 -19 17 -34q14 -11 38 -20q52 -19 84 -52q36 -38 36 -85q0 -62 -46 -99q-45 -37 -121 -37q-40 0 -74 12q-35 11 -59 33l47 44q14 -14 34 -21q20 -8 44 -8q48 0 77 18t29 47q0 37 -35 65
q-25 20 -74 38q-32 12 -52 38q-21 26 -21 59q0 22 26 56t26 56q0 35 -27 56t-72 21q-46 0 -78 -28t-32 -68v-443h-76z" />
    <glyph glyph-name="agrave" unicode="&#xe0;" horiz-adv-x="429" 
d="M22 122q0 58 53 96q48 34 118 40q49 4 74 15q35 14 35 46q0 35 -27 59t-64 24q-39 0 -68 -23q-30 -24 -30 -60v-15h-69v30q0 58 52 95q48 34 115 34q64 0 111 -35q49 -37 49 -94v-228q0 -19 14 -32q13 -13 32 -13v-61h-27q-27 0 -49 14q-22 15 -31 39q-21 -31 -59 -46
q-35 -14 -77 -14q-69 0 -110 35q-42 35 -42 94zM90 122q0 -29 26 -48q24 -17 58 -17q52 0 89 31q39 31 39 79v61q-28 -23 -102 -29l-19 -1q-37 -3 -63 -23q-28 -21 -28 -53zM106 687h73l74 -167h-75z" />
    <glyph glyph-name="aacute" unicode="&#xe1;" horiz-adv-x="429" 
d="M22 122q0 58 53 96q48 34 118 40q49 4 74 15q35 14 35 46q0 35 -27 59t-64 24q-39 0 -68 -23q-30 -24 -30 -60v-15h-69v30q0 58 52 95q48 34 115 34q64 0 111 -35q49 -37 49 -94v-228q0 -19 14 -32q13 -13 32 -13v-61h-27q-27 0 -49 14q-22 15 -31 39q-21 -31 -59 -46
q-35 -14 -77 -14q-69 0 -110 35q-42 35 -42 94zM90 122q0 -29 26 -48q24 -17 58 -17q52 0 89 31q39 31 39 79v61q-28 -23 -102 -29l-19 -1q-37 -3 -63 -23q-28 -21 -28 -53zM250 673h73l-78 -153h-75z" />
    <glyph glyph-name="acircumflex" unicode="&#xe2;" horiz-adv-x="429" 
d="M22 122q0 58 53 96q48 34 118 40q49 4 74 15q35 14 35 46q0 35 -27 59t-64 24q-39 0 -68 -23q-30 -24 -30 -60v-15h-69v30q0 58 52 95q48 34 115 34q64 0 111 -35q49 -37 49 -94v-228q0 -19 14 -32q13 -13 32 -13v-61h-27q-27 0 -49 14q-22 15 -31 39q-21 -31 -59 -46
q-35 -14 -77 -14q-69 0 -110 35q-42 35 -42 94zM90 122q0 -29 26 -48q24 -17 58 -17q52 0 89 31q39 31 39 79v61q-28 -23 -102 -29l-19 -1q-37 -3 -63 -23q-28 -21 -28 -53zM178 666h64l84 -146h-64l-48 90h-4l-49 -90h-64z" />
    <glyph glyph-name="atilde" unicode="&#xe3;" horiz-adv-x="429" 
d="M22 122q0 58 53 96q48 34 118 40q49 4 74 15q35 14 35 46q0 35 -27 59t-64 24q-39 0 -68 -23q-30 -24 -30 -60v-15h-69v30q0 58 52 95q48 34 115 34q64 0 111 -35q49 -37 49 -94v-228q0 -19 14 -32q13 -13 32 -13v-61h-27q-27 0 -49 14q-22 15 -31 39q-21 -31 -59 -46
q-35 -14 -77 -14q-69 0 -110 35q-42 35 -42 94zM90 122q0 -29 26 -48q24 -17 58 -17q52 0 89 31q39 31 39 79v61q-28 -23 -102 -29l-19 -1q-37 -3 -63 -23q-28 -21 -28 -53zM105 528l-23 54q16 19 36 30q20 10 40 10q15 0 29 -5t25 -14t25 -14q13 -5 28 -5t29 7q15 7 25 19
l23 -56q-14 -16 -33 -25q-20 -9 -43 -9q-16 0 -30 4q-14 5 -24 13q-12 10 -26 16q-14 5 -28 5q-13 0 -27 -8t-26 -22z" />
    <glyph glyph-name="adieresis" unicode="&#xe4;" horiz-adv-x="429" 
d="M22 122q0 58 53 96q48 34 118 40q49 4 74 15q35 14 35 46q0 35 -27 59t-64 24q-39 0 -68 -23q-30 -24 -30 -60v-15h-69v30q0 58 52 95q48 34 115 34q64 0 111 -35q49 -37 49 -94v-228q0 -19 14 -32q13 -13 32 -13v-61h-27q-27 0 -49 14q-22 15 -31 39q-21 -31 -59 -46
q-35 -14 -77 -14q-69 0 -110 35q-42 35 -42 94zM90 122q0 -29 26 -48q24 -17 58 -17q52 0 89 31q39 31 39 79v61q-28 -23 -102 -29l-19 -1q-37 -3 -63 -23q-28 -21 -28 -53zM333 520h-68v68h68v-68zM149 520h-68v68h68v-68z" />
    <glyph glyph-name="aring" unicode="&#xe5;" horiz-adv-x="429" 
d="M22 122q0 58 53 96q48 34 118 40q49 4 74 15q35 14 35 46q0 35 -27 59t-64 24q-39 0 -68 -23q-30 -24 -30 -60v-15h-69v30q0 58 52 95q48 34 115 34q64 0 111 -35q49 -37 49 -94v-228q0 -19 14 -32q13 -13 32 -13v-61h-27q-27 0 -49 14q-22 15 -31 39q-21 -31 -59 -46
q-35 -14 -77 -14q-69 0 -110 35q-42 35 -42 94zM90 122q0 -29 26 -48q24 -17 58 -17q52 0 89 31q39 31 39 79v61q-28 -23 -102 -29l-19 -1q-37 -3 -63 -23q-28 -21 -28 -53zM148 585q0 26 18 45q19 18 45 18q27 0 45 -18q19 -19 19 -45q0 -27 -19 -46q-18 -19 -45 -19
q-26 0 -45 19q-18 19 -18 46zM179 585q0 -13 9 -23q10 -9 23 -9t23 9q9 10 9 23q0 12 -9 21q-10 9 -23 9t-23 -9q-9 -9 -9 -21z" />
    <glyph glyph-name="ae" unicode="&#xe6;" horiz-adv-x="704" 
d="M22 122q0 58 53 96q48 34 118 40q49 4 74 15q35 14 35 46q0 35 -27 59t-64 24q-39 0 -68 -23q-30 -24 -30 -60v-15h-69v30q0 58 52 95q48 34 115 34q47 0 85 -18q38 -19 58 -51q24 33 60 51t76 18q87 0 139 -64t52 -171v-23h-312q0 -69 33 -110q33 -42 88 -42q49 0 80 25
t35 66h68q-6 -69 -56 -110t-127 -41q-44 0 -83 22q-38 22 -61 60q-35 -39 -80 -61q-45 -21 -92 -21q-69 0 -110 35q-42 35 -42 94zM90 122q0 -29 26 -48q24 -17 58 -17q52 0 89 31q39 31 39 79v61q-28 -23 -102 -29l-19 -1q-37 -3 -63 -23q-28 -21 -28 -53zM369 266h243
q-5 62 -39 99q-33 37 -83 37t-83 -37t-38 -99z" />
    <glyph glyph-name="ccedilla" unicode="&#xe7;" horiz-adv-x="431" 
d="M26 228q0 107 54 171t144 64q80 0 131 -46q52 -45 59 -121h-68q-4 48 -38 77q-33 29 -84 29q-59 0 -94 -48q-36 -47 -36 -126t36 -127q35 -48 94 -48q51 0 84 31t38 83h68q-6 -69 -54 -118q-47 -49 -114 -55l-8 -30q22 -2 37 -17q15 -16 15 -37q0 -30 -20 -48t-54 -18
q-26 0 -48 10q-22 11 -32 28l35 20q5 -10 16 -16q12 -6 26 -6q15 0 24 7t9 19q0 14 -10 23q-10 10 -24 11h-24l14 54q-75 8 -126 75q-50 67 -50 159z" />
    <glyph glyph-name="egrave" unicode="&#xe8;" horiz-adv-x="431" 
d="M28 228q0 107 52 171t138 64t138 -64t52 -171v-23h-312q0 -69 33 -110q34 -42 89 -42q48 0 79 25t35 66h68q-6 -69 -56 -110q-49 -41 -126 -41q-86 0 -138 64t-52 171zM96 266h243q-5 62 -38 99t-83 37t-83 -37q-34 -37 -39 -99zM138 687h74l74 -167h-76z" />
    <glyph glyph-name="eacute" unicode="&#xe9;" horiz-adv-x="431" 
d="M28 228q0 107 52 171t138 64t138 -64t52 -171v-23h-312q0 -69 33 -110q34 -42 89 -42q48 0 79 25t35 66h68q-6 -69 -56 -110q-49 -41 -126 -41q-86 0 -138 64t-52 171zM96 266h243q-5 62 -38 99t-83 37t-83 -37q-34 -37 -39 -99zM246 673h74l-78 -153h-76z" />
    <glyph glyph-name="ecircumflex" unicode="&#xea;" horiz-adv-x="431" 
d="M28 228q0 107 52 171t138 64t138 -64t52 -171v-23h-312q0 -69 33 -110q34 -42 89 -42q48 0 79 25t35 66h68q-6 -69 -56 -110q-49 -41 -126 -41q-86 0 -138 64t-52 171zM96 266h243q-5 62 -38 99t-83 37t-83 -37q-34 -37 -39 -99zM187 666h64l83 -146h-63l-48 90h-5
l-48 -90h-64z" />
    <glyph glyph-name="edieresis" unicode="&#xeb;" horiz-adv-x="431" 
d="M28 228q0 107 52 171t138 64t138 -64t52 -171v-23h-312q0 -69 33 -110q34 -42 89 -42q48 0 79 25t35 66h68q-6 -69 -56 -110q-49 -41 -126 -41q-86 0 -138 64t-52 171zM96 266h243q-5 62 -38 99t-83 37t-83 -37q-34 -37 -39 -99zM342 520h-68v68h68v-68zM158 520h-68v68
h68v-68z" />
    <glyph glyph-name="igrave" unicode="&#xec;" horiz-adv-x="172" 
d="M52 0v456h68v-456h-68zM1 687h73l74 -167h-75z" />
    <glyph glyph-name="iacute" unicode="&#xed;" horiz-adv-x="172" 
d="M52 0v456h68v-456h-68zM97 673h73l-78 -153h-75z" />
    <glyph glyph-name="icircumflex" unicode="&#xee;" horiz-adv-x="172" 
d="M52 0v456h68v-456h-68zM54 666h64l83 -146h-63l-48 90h-5l-49 -90h-64z" />
    <glyph glyph-name="idieresis" unicode="&#xef;" horiz-adv-x="172" 
d="M52 0v456h68v-456h-68zM212 520h-68v68h68v-68zM28 520h-68v68h68v-68z" />
    <glyph glyph-name="eth" unicode="&#xf0;" horiz-adv-x="466" 
d="M28 228q0 107 56 171t149 64q19 0 33 -4t19 -12q-60 62 -98 85l-110 -110l-49 52l110 107l-109 109l48 48l109 -109l111 110l48 -49l-110 -110q96 -72 149 -165q54 -93 54 -187q0 -107 -56 -171t-149 -64t-149 64t-56 171zM96 228q0 -79 37 -127q38 -48 100 -48t100 48
q37 48 37 127t-37 126q-38 48 -100 48t-100 -48q-37 -47 -37 -126z" />
    <glyph glyph-name="ntilde" unicode="&#xf1;" horiz-adv-x="458" 
d="M51 0v441h68v-46q24 29 56 45q34 16 70 16q71 0 121 -52q50 -51 50 -123v-281h-69v281q0 45 -34 76q-33 30 -79 30q-47 0 -81 -30q-34 -31 -34 -76v-281h-68zM146 528l-23 54q16 19 36 30q20 10 40 10q16 0 30 -5t25 -14t24 -14q14 -5 28 -5q16 0 30 7q15 7 25 19l22 -56
q-14 -16 -33 -25q-20 -9 -43 -9q-16 0 -30 4q-13 5 -23 13q-12 10 -26 16q-14 5 -29 5q-13 0 -27 -8t-26 -22z" />
    <glyph glyph-name="ograve" unicode="&#xf2;" horiz-adv-x="465" 
d="M125 687h73l74 -167h-75zM27 228q0 107 56 171t149 64t150 -64q56 -64 56 -171t-56 -171q-57 -64 -150 -64t-149 64t-56 171zM95 228q0 -79 37 -127q38 -48 100 -48t100 48q37 48 37 127t-37 126q-38 48 -100 48t-100 -48q-37 -47 -37 -126z" />
    <glyph glyph-name="oacute" unicode="&#xf3;" horiz-adv-x="465" 
d="M269 673h73l-78 -153h-75zM27 228q0 107 56 171t149 64t150 -64q56 -64 56 -171t-56 -171q-57 -64 -150 -64t-149 64t-56 171zM95 228q0 -79 37 -127q38 -48 100 -48t100 48q37 48 37 127t-37 126q-38 48 -100 48t-100 -48q-37 -47 -37 -126z" />
    <glyph glyph-name="ocircumflex" unicode="&#xf4;" horiz-adv-x="465" 
d="M201 666h64l83 -146h-63l-48 90h-5l-49 -90h-64zM27 228q0 107 56 171t149 64t150 -64q56 -64 56 -171t-56 -171q-57 -64 -150 -64t-149 64t-56 171zM95 228q0 -79 37 -127q38 -48 100 -48t100 48q37 48 37 127t-37 126q-38 48 -100 48t-100 -48q-37 -47 -37 -126z" />
    <glyph glyph-name="otilde" unicode="&#xf5;" horiz-adv-x="465" 
d="M27 228q0 107 56 171t149 64t150 -64q56 -64 56 -171t-56 -171q-57 -64 -150 -64t-149 64t-56 171zM95 228q0 -79 37 -127q38 -48 100 -48t100 48q37 48 37 127t-37 126q-38 48 -100 48t-100 -48q-37 -47 -37 -126zM118 532l-23 54q16 19 36 30q20 10 40 10q16 0 30 -5
t25 -14t24 -14q14 -5 28 -5q16 0 30 7q15 7 25 19l22 -56q-14 -16 -33 -25q-20 -9 -43 -9q-16 0 -30 4q-13 5 -23 13q-12 10 -26 16q-14 5 -29 5q-13 0 -27 -8t-26 -22z" />
    <glyph glyph-name="odieresis" unicode="&#xf6;" horiz-adv-x="465" 
d="M360 520h-68v68h68v-68zM176 520h-68v68h68v-68zM27 228q0 107 56 171t149 64t150 -64q56 -64 56 -171t-56 -171q-57 -64 -150 -64t-149 64t-56 171zM95 228q0 -79 37 -127q38 -48 100 -48t100 48q37 48 37 127t-37 126q-38 48 -100 48t-100 -48q-37 -47 -37 -126z" />
    <glyph glyph-name="divide" unicode="&#xf7;" horiz-adv-x="492" 
d="M52 192v68h388v-68h-388zM212 44v68h68v-68h-68zM212 340v68h68v-68h-68z" />
    <glyph glyph-name="oslash" unicode="&#xf8;" horiz-adv-x="469" 
d="M31 228q0 107 56 171t149 64q55 0 98 -23l71 104h57l-90 -131q34 -32 52 -81q18 -48 18 -104q0 -107 -56 -171q-57 -64 -150 -64q-69 0 -122 40l-48 -71h-56l70 104q-24 30 -36 72q-13 42 -13 90zM99 228q0 -59 22 -102l177 261q-27 15 -62 15q-62 0 -100 -48
q-37 -47 -37 -126zM150 86q18 -16 40 -24q22 -9 46 -9q62 0 100 48q37 48 37 127q0 38 -10 72q-10 33 -29 57z" />
    <glyph glyph-name="ugrave" unicode="&#xf9;" horiz-adv-x="459" 
d="M42 174v274h68v-266q0 -52 29 -89q31 -40 78 -40q51 0 86 38t35 91v266h69v-448h-69v61q-19 -34 -58 -52q-35 -16 -78 -16q-69 0 -115 55q-45 53 -45 126zM119 688h74l73 -167h-75z" />
    <glyph glyph-name="uacute" unicode="&#xfa;" horiz-adv-x="459" 
d="M42 174v274h68v-266q0 -52 29 -89q31 -40 78 -40q51 0 86 38t35 91v266h69v-448h-69v61q-19 -34 -58 -52q-35 -16 -78 -16q-69 0 -115 55q-45 53 -45 126zM267 673h74l-79 -153h-75z" />
    <glyph glyph-name="ucircumflex" unicode="&#xfb;" horiz-adv-x="459" 
d="M42 174v274h68v-266q0 -52 29 -89q31 -40 78 -40q51 0 86 38t35 91v266h69v-448h-69v61q-19 -34 -58 -52q-35 -16 -78 -16q-69 0 -115 55q-45 53 -45 126zM192 666h64l83 -146h-63l-48 90h-5l-49 -90h-64z" />
    <glyph glyph-name="udieresis" unicode="&#xfc;" horiz-adv-x="459" 
d="M42 174v274h68v-266q0 -52 29 -89q31 -40 78 -40q51 0 86 38t35 91v266h69v-448h-69v61q-19 -34 -58 -52q-35 -16 -78 -16q-69 0 -115 55q-45 53 -45 126zM350 520h-68v68h68v-68zM166 520h-68v68h68v-68z" />
    <glyph glyph-name="yacute" unicode="&#xfd;" horiz-adv-x="433" 
d="M7 448h68l149 -361l133 361h68l-198 -524q-13 -36 -47 -56q-33 -20 -74 -20h-46v61h46q31 0 54 28q20 24 30 63zM255 673h74l-79 -153h-75z" />
    <glyph glyph-name="thorn" unicode="&#xfe;" horiz-adv-x="457" 
d="M52 -152v772h68v-236q19 33 52 52q32 20 70 20q83 0 138 -70q52 -66 52 -158t-52 -158q-55 -70 -138 -70q-38 0 -70 20q-33 19 -52 52v-224h-68zM120 228q0 -70 30 -120q34 -55 92 -55t91 55q30 50 30 120q0 67 -31 115q-34 52 -90 52t-91 -52q-31 -48 -31 -115z" />
    <glyph glyph-name="ydieresis" unicode="&#xff;" horiz-adv-x="433" 
d="M7 448h68l149 -361l133 361h68l-198 -524q-13 -36 -47 -56q-33 -20 -74 -20h-46v61h46q31 0 54 28q20 24 30 63zM342 520h-68v68h68v-68zM158 520h-68v68h68v-68z" />
  </font>
</defs>
</svg>
